<?xml version="1.0" encoding="UTF-8"?><svg id="Capa_2" xmlns="http://www.w3.org/2000/svg" width="400" height="400" xmlns:xlink="http://www.w3.org/1999/xlink" viewBox="0 0 400 400"><defs><style>.cls-1{fill:#54a9ff;}.cls-2{fill:url(#Motivo_nuevo);}.cls-3{fill:none;}</style><pattern id="Motivo_nuevo" x="0" y="0" width="58" height="54" patternTransform="translate(7510.05 7598.59) scale(2)" patternUnits="userSpaceOnUse" viewBox="0 0 58 54"><g><rect class="cls-3" width="58" height="54"/><polygon class="cls-1" points="382.15 45.99 19.63 215.04 23.85 224.1 386.37 55.05 382.15 45.99"/><polygon class="cls-1" points="324.15 45.99 -38.37 215.04 -34.15 224.1 328.37 55.05 324.15 45.99"/><polygon class="cls-1" points="266.15 45.99 -96.37 215.04 -92.15 224.1 270.37 55.05 266.15 45.99"/><polygon class="cls-1" points="208.15 45.99 -154.37 215.04 -150.15 224.1 212.37 55.05 208.15 45.99"/><polygon class="cls-1" points="150.15 45.99 -212.37 215.04 -208.15 224.1 154.37 55.05 150.15 45.99"/><polygon class="cls-1" points="92.15 45.99 -270.37 215.04 -266.15 224.1 96.37 55.05 92.15 45.99"/><polygon class="cls-1" points="34.15 45.99 -328.37 215.04 -324.15 224.1 38.37 55.05 34.15 45.99"/><polygon class="cls-1" points="382.15 18.99 19.63 188.04 23.85 197.1 386.37 28.05 382.15 18.99"/><polygon class="cls-1" points="324.15 18.99 -38.37 188.04 -34.15 197.1 328.37 28.05 324.15 18.99"/><polygon class="cls-1" points="266.15 18.99 -96.37 188.04 -92.15 197.1 270.37 28.05 266.15 18.99"/><polygon class="cls-1" points="208.15 18.99 -154.37 188.04 -150.15 197.1 212.37 28.05 208.15 18.99"/><polygon class="cls-1" points="150.15 18.99 -212.37 188.04 -208.15 197.1 154.37 28.05 150.15 18.99"/><polygon class="cls-1" points="92.15 18.99 -270.37 188.04 -266.15 197.1 96.37 28.05 92.15 18.99"/><polygon class="cls-1" points="34.15 18.99 -328.37 188.04 -324.15 197.1 38.37 28.05 34.15 18.99"/><polygon class="cls-1" points="382.15 -8.01 19.63 161.04 23.85 170.1 386.37 1.05 382.15 -8.01"/><polygon class="cls-1" points="324.15 -8.01 -38.37 161.04 -34.15 170.1 328.37 1.05 324.15 -8.01"/><polygon class="cls-1" points="266.15 -8.01 -96.37 161.04 -92.15 170.1 270.37 1.05 266.15 -8.01"/><polygon class="cls-1" points="208.15 -8.01 -154.37 161.04 -150.15 170.1 212.37 1.05 208.15 -8.01"/><polygon class="cls-1" points="150.15 -8.01 -212.37 161.04 -208.15 170.1 154.37 1.05 150.15 -8.01"/><polygon class="cls-1" points="92.15 -8.01 -270.37 161.04 -266.15 170.1 96.37 1.05 92.15 -8.01"/><polygon class="cls-1" points="34.15 -8.01 -328.37 161.04 -324.15 170.1 38.37 1.05 34.15 -8.01"/><polygon class="cls-1" points="382.15 -35.01 19.63 134.04 23.85 143.1 386.37 -25.95 382.15 -35.01"/><polygon class="cls-1" points="324.15 -35.01 -38.37 134.04 -34.15 143.1 328.37 -25.95 324.15 -35.01"/><polygon class="cls-1" points="266.15 -35.01 -96.37 134.04 -92.15 143.1 270.37 -25.95 266.15 -35.01"/><polygon class="cls-1" points="208.15 -35.01 -154.37 134.04 -150.15 143.1 212.37 -25.95 208.15 -35.01"/><polygon class="cls-1" points="150.15 -35.01 -212.37 134.04 -208.15 143.1 154.37 -25.95 150.15 -35.01"/><polygon class="cls-1" points="92.15 -35.01 -270.37 134.04 -266.15 143.1 96.37 -25.95 92.15 -35.01"/><polygon class="cls-1" points="34.15 -35.01 -328.37 134.04 -324.15 143.1 38.37 -25.95 34.15 -35.01"/><polygon class="cls-1" points="382.15 -62.01 19.63 107.04 23.85 116.1 386.37 -52.95 382.15 -62.01"/><polygon class="cls-1" points="324.15 -62.01 -38.37 107.04 -34.15 116.1 328.37 -52.95 324.15 -62.01"/><polygon class="cls-1" points="266.15 -62.01 -96.37 107.04 -92.15 116.1 270.37 -52.95 266.15 -62.01"/><polygon class="cls-1" points="208.15 -62.01 -154.37 107.04 -150.15 116.1 212.37 -52.95 208.15 -62.01"/><polygon class="cls-1" points="150.15 -62.01 -212.37 107.04 -208.15 116.1 154.37 -52.95 150.15 -62.01"/><polygon class="cls-1" points="92.15 -62.01 -270.37 107.04 -266.15 116.1 96.37 -52.95 92.15 -62.01"/><polygon class="cls-1" points="34.15 -62.01 -328.37 107.04 -324.15 116.1 38.37 -52.95 34.15 -62.01"/><polygon class="cls-1" points="382.15 -89.01 19.63 80.04 23.85 89.1 386.37 -79.95 382.15 -89.01"/><polygon class="cls-1" points="324.15 -89.01 -38.37 80.04 -34.15 89.1 328.37 -79.95 324.15 -89.01"/><polygon class="cls-1" points="266.15 -89.01 -96.37 80.04 -92.15 89.1 270.37 -79.95 266.15 -89.01"/><polygon class="cls-1" points="208.15 -89.01 -154.37 80.04 -150.15 89.1 212.37 -79.95 208.15 -89.01"/><polygon class="cls-1" points="150.15 -89.01 -212.37 80.04 -208.15 89.1 154.37 -79.95 150.15 -89.01"/><polygon class="cls-1" points="92.15 -89.01 -270.37 80.04 -266.15 89.1 96.37 -79.95 92.15 -89.01"/><polygon class="cls-1" points="34.15 -89.01 -328.37 80.04 -324.15 89.1 38.37 -79.95 34.15 -89.01"/><polygon class="cls-1" points="382.15 -116.01 19.63 53.04 23.85 62.1 386.37 -106.95 382.15 -116.01"/><polygon class="cls-1" points="324.15 -116.01 -38.37 53.04 -34.15 62.1 328.37 -106.95 324.15 -116.01"/><polygon class="cls-1" points="266.15 -116.01 -96.37 53.04 -92.15 62.1 270.37 -106.95 266.15 -116.01"/><polygon class="cls-1" points="208.15 -116.01 -154.37 53.04 -150.15 62.1 212.37 -106.95 208.15 -116.01"/><polygon class="cls-1" points="150.15 -116.01 -212.37 53.04 -208.15 62.1 154.37 -106.95 150.15 -116.01"/><polygon class="cls-1" points="92.15 -116.01 -270.37 53.04 -266.15 62.1 96.37 -106.95 92.15 -116.01"/><polygon class="cls-1" points="34.15 -116.01 -328.37 53.04 -324.15 62.1 38.37 -106.95 34.15 -116.01"/><polygon class="cls-1" points="382.15 -143.01 19.63 26.04 23.85 35.1 386.37 -133.95 382.15 -143.01"/><polygon class="cls-1" points="324.15 -143.01 -38.37 26.04 -34.15 35.1 328.37 -133.95 324.15 -143.01"/><polygon class="cls-1" points="266.15 -143.01 -96.37 26.04 -92.15 35.1 270.37 -133.95 266.15 -143.01"/><polygon class="cls-1" points="208.15 -143.01 -154.37 26.04 -150.15 35.1 212.37 -133.95 208.15 -143.01"/><polygon class="cls-1" points="150.15 -143.01 -212.37 26.04 -208.15 35.1 154.37 -133.95 150.15 -143.01"/><polygon class="cls-1" points="92.15 -143.01 -270.37 26.04 -266.15 35.1 96.37 -133.95 92.15 -143.01"/><polygon class="cls-1" points="34.15 -143.01 -328.37 26.04 -324.15 35.1 38.37 -133.95 34.15 -143.01"/><polygon class="cls-1" points="382.15 -170.01 19.63 -.96 23.85 8.1 386.37 -160.95 382.15 -170.01"/><polygon class="cls-1" points="324.15 -170.01 -38.37 -.96 -34.15 8.1 328.37 -160.95 324.15 -170.01"/><polygon class="cls-1" points="266.15 -170.01 -96.37 -.96 -92.15 8.1 270.37 -160.95 266.15 -170.01"/><polygon class="cls-1" points="208.15 -170.01 -154.37 -.96 -150.15 8.1 212.37 -160.95 208.15 -170.01"/><polygon class="cls-1" points="150.15 -170.01 -212.37 -.96 -208.15 8.1 154.37 -160.95 150.15 -170.01"/><polygon class="cls-1" points="92.15 -170.01 -270.37 -.96 -266.15 8.1 96.37 -160.95 92.15 -170.01"/><polygon class="cls-1" points="34.15 -170.01 -328.37 -.96 -324.15 8.1 38.37 -160.95 34.15 -170.01"/></g></pattern></defs><g id="Capa_1-2"><circle class="cls-2" cx="200" cy="200" r="200"/></g></svg>