<?xml version="1.0" encoding="UTF-8"?><svg id="Capa_2" xmlns="http://www.w3.org/2000/svg" width="120" height="120" viewBox="0 0 120 120"><defs><style>.cls-1{fill:#54a9ff;}</style></defs><g id="Capa_1-2"><path class="cls-1" d="m60.57,0C60.19,0,59.81,0,59.43,0c-2.98,11.21-5.98,22.42-8.94,33.64-.58,2.21-1.69,1.37-2.91.67-8.84-5.06-17.68-10.11-26.54-15.14-.86-.49-1.63-1.35-2.84-1.01-.36,1.21.5,1.99.99,2.85,4.98,8.78,9.98,17.54,15,26.29.8,1.4,1.38,2.64-.82,3.23-11.12,2.96-22.24,5.92-33.36,8.89v1.14c10.95,2.49,21.66,5.87,32.54,8.64,2.51.64,2.79,1.57,1.53,3.73-5.03,8.63-9.95,17.34-14.88,26.03-.49.86-1.35,1.64-.99,2.85,1.21.34,1.98-.52,2.84-1.01,8.86-5.02,17.7-10.07,26.54-15.14,1.22-.7,2.33-1.54,2.91.67,2.96,11.22,5.95,22.43,8.94,33.64h1.14c2.98-11.21,5.98-22.42,8.94-33.64.58-2.22,1.7-1.36,2.92-.67,8.84,5.06,17.69,10.11,26.55,15.13.86.49,1.64,1.34,2.86,1.02.32-1.31-.62-2.15-1.15-3.09-4.92-8.7-9.88-17.38-14.85-26.05-.79-1.38-1.42-2.64.8-3.23,11.12-2.97,22.24-5.93,33.36-8.89,0-.38,0-.76,0-1.14-11.12-2.96-22.24-5.92-33.36-8.89-2.22-.59-1.59-1.85-.8-3.23,4.97-8.67,9.93-17.35,14.85-26.05.53-.94,1.47-1.78,1.15-3.09-1.22-.32-2,.53-2.86,1.02-8.86,5.02-17.71,10.07-26.55,15.13-1.22.7-2.33,1.55-2.92-.67C66.55,22.42,63.55,11.21,60.57,0Z"/></g></svg>