<?xml version="1.0" encoding="UTF-8"?><svg id="Capa_2" xmlns="http://www.w3.org/2000/svg" width="800.04" height="331.24" viewBox="0 0 800.04 331.24"><defs><style>.cls-1{fill:#37383c;}.cls-2{fill:#fff;}.cls-3{fill:#54a9ff;}.cls-4{fill:#ff9ff2;}</style></defs><g id="Capa_1-2"><g><g><g><path class="cls-1" d="m8,91.24V9.92h65.03c7.15,0,23.91,0,31.16,12.24,5.24,8.83,5.12,30.43-.22,39.17-6.41,10.33-14.71,11.17-24.11,11.17h-3.08c-.48,0-.96,0-1.45,0h-37.93v18.74H8Zm59.3-42.14h1.82c3.86,0,6.56-.44,8.07-2.7.64-1.25.64-8.01-.06-9.43-1.79-3.22-5.47-3.57-12.87-3.57h-26.87v15.7h29.9Z"/><path class="cls-1" d="m7.2,90.68V8.95h65.03c7.15,0,23.91,0,31.16,12.31,5.24,8.88,5.12,30.59-.22,39.37-6.41,10.38-14.71,11.23-24.11,11.23h-3.08c-.48,0-.96,0-1.45,0h-37.93v18.83H7.2Zm59.3-42.35h1.82c3.86,0,6.56-.45,8.07-2.72.64-1.26.64-8.05-.06-9.47-1.79-3.24-5.47-3.58-12.87-3.58h-26.87v15.78h29.9Z"/><path class="cls-1" d="m6.4,90.12V7.97h65.03c7.15,0,23.91,0,31.16,12.37,5.24,8.92,5.12,30.74-.22,39.57-6.41,10.44-14.71,11.28-24.11,11.28h-3.08c-.48,0-.96,0-1.45,0h-37.93v18.93H6.4Zm59.3-42.56h1.82c3.86,0,6.56-.45,8.07-2.73.64-1.27.64-8.09-.06-9.52-1.79-3.25-5.47-3.6-12.87-3.6h-26.87v15.86h29.9Z"/><path class="cls-1" d="m5.6,89.55V6.99h65.03c7.15,0,23.91,0,31.16,12.43,5.24,8.97,5.12,30.89-.22,39.77-6.41,10.49-14.71,11.34-24.11,11.34h-3.08c-.48,0-.96,0-1.45,0h-37.93v19.02H5.6Zm59.3-42.78h1.82c3.86,0,6.56-.45,8.07-2.74.64-1.27.64-8.13-.06-9.57-1.79-3.27-5.47-3.62-12.87-3.62h-26.87v15.93h29.9Z"/><path class="cls-1" d="m4.8,88.98V6.01h65.03c7.15,0,23.91,0,31.16,12.49,5.24,9.01,5.12,31.05-.22,39.97-6.41,10.54-14.71,11.4-24.11,11.4h-3.08c-.48,0-.96,0-1.45,0h-37.93v19.12H4.8Zm59.3-42.99h1.82c3.86,0,6.56-.45,8.07-2.76.64-1.28.64-8.17-.06-9.62-1.79-3.29-5.47-3.64-12.87-3.64h-26.87v16.01h29.9Z"/><path class="cls-1" d="m4,88.41V5.02h65.03c7.15,0,23.91,0,31.16,12.56,5.24,9.06,5.12,31.21-.22,40.17-6.41,10.59-14.71,11.45-24.11,11.45h-3.08c-.48,0-.96,0-1.45,0h-37.93v19.21H4Zm59.3-43.21h1.82c3.86,0,6.56-.46,8.07-2.77.64-1.28.64-8.21-.06-9.67-1.79-3.3-5.47-3.66-12.87-3.66h-26.87v16.1h29.9Z"/><path class="cls-1" d="m3.2,87.84V4.03h65.03c7.15,0,23.91,0,31.16,12.62,5.24,9.1,5.12,31.36-.22,40.37-6.41,10.65-14.71,11.51-24.11,11.51h-3.08c-.48,0-.96,0-1.45,0h-37.93v19.31H3.2Zm59.3-43.42h1.82c3.86,0,6.56-.46,8.07-2.79.64-1.29.64-8.25-.06-9.71-1.79-3.32-5.47-3.68-12.87-3.68h-26.87v16.18h29.9Z"/><path class="cls-1" d="m2.4,87.26V3.03h65.03c7.15,0,23.91,0,31.16,12.68,5.24,9.15,5.12,31.52-.22,40.57-6.41,10.7-14.71,11.57-24.11,11.57h-3.08c-.48,0-.96,0-1.45,0H31.8v19.41H2.4Zm59.3-43.64h1.82c3.86,0,6.56-.46,8.07-2.8.64-1.3.64-8.29-.06-9.76-1.79-3.34-5.47-3.69-12.87-3.69h-26.87v16.26h29.9Z"/><path class="cls-1" d="m1.6,86.68V2.03h65.03c7.15,0,23.91,0,31.16,12.75,5.24,9.19,5.12,31.68-.22,40.77-6.41,10.75-14.71,11.63-24.11,11.63h-3.08c-.48,0-.96,0-1.45,0H31v19.5H1.6Zm59.3-43.86h1.82c3.86,0,6.56-.46,8.07-2.81.64-1.3.64-8.33-.06-9.81-1.79-3.35-5.47-3.71-12.87-3.71h-26.87v16.34h29.9Z"/><path class="cls-1" d="m.8,86.1V1.02h65.03c7.15,0,23.91,0,31.16,12.81,5.24,9.24,5.12,31.84-.22,40.98-6.41,10.81-14.71,11.69-24.11,11.69h-3.08c-.48,0-.96,0-1.45,0H30.2v19.6H.8Zm59.3-44.08h1.82c3.86,0,6.56-.47,8.07-2.83.64-1.31.64-8.37-.06-9.86-1.79-3.37-5.47-3.73-12.87-3.73h-26.87v16.42h29.9Z"/><path class="cls-1" d="m0,85.51V0h65.03c7.15,0,23.91,0,31.16,12.87,5.24,9.29,5.12,32-.22,41.19-6.41,10.86-14.71,11.75-24.11,11.75h-3.08c-.48,0-.96,0-1.45,0H29.4v19.7H0Zm59.3-44.3h1.82c3.86,0,6.56-.47,8.07-2.84.64-1.32.64-8.42-.06-9.91-1.79-3.39-5.47-3.75-12.87-3.75h-26.87v16.5h29.9Z"/></g><path class="cls-4" d="m63.9,2.5c7.4,0,23.4-.3,30.1,11.6,4.8,8.5,4.8,30.1-.2,38.7-6.9,11.7-16,10.4-26.5,10.5H26.9v19.7H2.5V2.5h61.4Zm-4.6,41.2c3.7,0,9.2.4,12-4,1.2-2,1.1-10.7,0-12.5-2.8-5.3-8.9-5-17.6-5h-26.8v21.5h32.4Z"/></g><g><g><path class="cls-1" d="m153.7,91.24c-6.28,0-22.95,0-30.78-7.56-6.56-6.34-7.32-17.88-7.32-26.02v-16.8c-.03-5.85-.09-16.73,7.36-23.61,7.71-7.33,19.4-7.33,27.93-7.33h42.41c9.5,0,21.32,0,29.34,7.32,6.59,5.88,6.46,16.59,6.38,22.99,0,.6-.01,1.15-.01,1.65v15.79c0,.66,0,1.38.02,2.13.09,6.99.23,17.55-6.34,23.89-6.47,6.25-20.31,7.56-30.78,7.56h-38.2Zm32.3-23.49c.4,0,.84,0,1.31.01.49,0,1.02.02,1.56.02,3.91,0,7.81-.47,9.86-3.88l.09-.14c.28-.53.78-3.22.78-8v-10.37c0-4.95-.55-7.56-.81-8.05-2.14-3.49-6.17-3.96-10.2-3.96-.49,0-.96,0-1.4.01-.42,0-.82.01-1.18.01h-27.4c-.37,0-.76,0-1.18-.01-.44,0-.91-.01-1.4-.01-4.04,0-8.06.47-10.16,3.89l-.08.12s-.78,1.41-.78,8v10.37c0,4.8.49,7.48.8,8.04l.06.1c2.06,3.41,5.96,3.88,9.87,3.88.55,0,1.07,0,1.56-.02.46,0,.9-.01,1.31-.01h27.4Z"/><path class="cls-1" d="m152.9,90.68c-6.28,0-22.95,0-30.78-7.59-6.56-6.37-7.32-17.97-7.32-26.15v-16.89c-.03-5.88-.09-16.82,7.36-23.73,7.71-7.37,19.4-7.37,27.93-7.37h42.41c9.5,0,21.32,0,29.34,7.36,6.59,5.91,6.46,16.67,6.38,23.11,0,.6-.01,1.15-.01,1.66v15.87c0,.67,0,1.38.02,2.14.09,7.02.23,17.63-6.34,24.01-6.47,6.28-20.31,7.6-30.78,7.6h-38.2Zm32.3-23.61c.4,0,.84,0,1.31.01.49,0,1.02.02,1.56.02,3.91,0,7.81-.47,9.86-3.9l.09-.14c.28-.53.78-3.23.78-8.04v-10.42c0-4.97-.55-7.6-.81-8.09-2.14-3.51-6.17-3.98-10.2-3.98-.49,0-.96,0-1.4.01-.42,0-.82.01-1.18.01h-27.4c-.37,0-.76,0-1.18-.01-.44,0-.91-.01-1.4-.01-4.04,0-8.06.47-10.16,3.91l-.08.12s-.78,1.42-.78,8.04v10.42c0,4.82.49,7.52.8,8.08l.06.1c2.06,3.43,5.96,3.9,9.87,3.9.55,0,1.07,0,1.56-.02.46,0,.9-.01,1.31-.01h27.4Z"/><path class="cls-1" d="m152.1,90.12c-6.28,0-22.95,0-30.78-7.63-6.56-6.4-7.32-18.06-7.32-26.28v-16.97c-.03-5.91-.09-16.9,7.36-23.85,7.71-7.41,19.4-7.41,27.93-7.41h42.41c9.5,0,21.32,0,29.34,7.4,6.59,5.94,6.46,16.76,6.38,23.22,0,.6-.01,1.16-.01,1.67v15.95c0,.67,0,1.39.02,2.15.09,7.06.23,17.72-6.34,24.13-6.47,6.31-20.31,7.63-30.78,7.63h-38.2Zm32.3-23.73c.4,0,.84,0,1.31.02.49,0,1.02.02,1.56.02,3.91,0,7.81-.47,9.86-3.92l.09-.14c.28-.53.78-3.25.78-8.08v-10.47c0-5-.55-7.64-.81-8.13-2.14-3.52-6.17-4-10.2-4-.49,0-.96,0-1.4.01-.42,0-.82.01-1.18.01h-27.4c-.37,0-.76,0-1.18-.01-.44,0-.91-.01-1.4-.01-4.04,0-8.06.48-10.16,3.93l-.08.12s-.78,1.42-.78,8.08v10.47c0,4.85.49,7.55.8,8.12l.06.1c2.06,3.44,5.96,3.92,9.87,3.92.55,0,1.07,0,1.56-.02.46,0,.9-.02,1.31-.02h27.4Z"/><path class="cls-1" d="m151.3,89.55c-6.28,0-22.95,0-30.78-7.67-6.56-6.43-7.32-18.16-7.32-26.41v-17.06c-.03-5.94-.09-16.99,7.36-23.97,7.71-7.44,19.4-7.44,27.93-7.44h42.41c9.5,0,21.32,0,29.34,7.43,6.59,5.97,6.46,16.84,6.38,23.34,0,.6-.01,1.17-.01,1.67v16.03c0,.67,0,1.4.02,2.16.09,7.09.23,17.81-6.34,24.25-6.47,6.34-20.31,7.67-30.78,7.67h-38.2Zm32.3-23.85c.4,0,.84,0,1.31.02.49,0,1.02.02,1.56.02,3.91,0,7.81-.48,9.86-3.94l.09-.14c.28-.54.78-3.27.78-8.12v-10.53c0-5.02-.55-7.67-.81-8.17-2.14-3.54-6.17-4.02-10.2-4.02-.49,0-.96,0-1.4.01-.42,0-.82.01-1.18.01h-27.4c-.37,0-.76,0-1.18-.01-.44,0-.91-.01-1.4-.01-4.04,0-8.06.48-10.16,3.95l-.08.12s-.78,1.43-.78,8.12v10.53c0,4.87.49,7.59.8,8.16l.06.1c2.06,3.46,5.96,3.94,9.87,3.94.55,0,1.07,0,1.56-.02.46,0,.9-.02,1.31-.02h27.4Z"/><path class="cls-1" d="m150.5,88.98c-6.28,0-22.95,0-30.78-7.71-6.56-6.47-7.32-18.25-7.32-26.55v-17.14c-.03-5.97-.09-17.07,7.36-24.09,7.71-7.48,19.4-7.48,27.93-7.48h42.41c9.5,0,21.32,0,29.34,7.47,6.59,6,6.46,16.93,6.38,23.46,0,.61-.01,1.17-.01,1.68v16.11c0,.68,0,1.4.02,2.17.09,7.13.23,17.9-6.34,24.37-6.47,6.37-20.31,7.71-30.78,7.71h-38.2Zm32.3-23.97c.4,0,.84,0,1.31.02.49,0,1.02.02,1.56.02,3.91,0,7.81-.48,9.86-3.96l.09-.14c.28-.54.78-3.28.78-8.16v-10.58c0-5.05-.55-7.71-.81-8.21-2.14-3.56-6.17-4.04-10.2-4.04-.49,0-.96,0-1.4.01-.42,0-.82.01-1.18.01h-27.4c-.37,0-.76,0-1.18-.01-.44,0-.91-.01-1.4-.01-4.04,0-8.06.48-10.16,3.96l-.08.12s-.78,1.44-.78,8.16v10.58c0,4.9.49,7.63.8,8.2l.06.1c2.06,3.48,5.96,3.96,9.87,3.96.55,0,1.07,0,1.56-.02.46,0,.9-.02,1.31-.02h27.4Z"/><path class="cls-1" d="m149.7,88.41c-6.28,0-22.95,0-30.78-7.75-6.56-6.5-7.32-18.34-7.32-26.68v-17.23c-.03-6-.09-17.16,7.36-24.21,7.71-7.52,19.4-7.52,27.93-7.52h42.41c9.5,0,21.32,0,29.34,7.51,6.59,6.03,6.46,17.01,6.38,23.57,0,.61-.01,1.18-.01,1.69v16.19c0,.68,0,1.41.02,2.18.09,7.16.23,17.99-6.34,24.49-6.47,6.4-20.31,7.75-30.78,7.75h-38.2Zm32.3-24.09c.4,0,.84,0,1.31.02.49,0,1.02.02,1.56.02,3.91,0,7.81-.48,9.86-3.98l.09-.14c.28-.54.78-3.3.78-8.2v-10.63c0-5.07-.55-7.75-.81-8.25-2.14-3.58-6.17-4.06-10.2-4.06-.49,0-.96,0-1.4.01-.42,0-.82.01-1.18.01h-27.4c-.37,0-.76,0-1.18-.01-.44,0-.91-.01-1.4-.01-4.04,0-8.06.48-10.16,3.98l-.08.12s-.78,1.44-.78,8.2v10.63c0,4.92.49,7.67.8,8.24l.06.1c2.06,3.5,5.96,3.98,9.87,3.98.55,0,1.07,0,1.56-.02.46,0,.9-.02,1.31-.02h27.4Z"/><path class="cls-1" d="m148.9,87.84c-6.28,0-22.95,0-30.78-7.79-6.56-6.53-7.32-18.43-7.32-26.81v-17.32c-.03-6.03-.09-17.24,7.36-24.34,7.71-7.56,19.4-7.56,27.93-7.56h42.41c9.5,0,21.32,0,29.34,7.55,6.59,6.06,6.46,17.1,6.38,23.69,0,.61-.01,1.18-.01,1.7v16.27c0,.68,0,1.42.02,2.19.09,7.2.23,18.08-6.34,24.62-6.47,6.44-20.31,7.79-30.78,7.79h-38.2Zm32.3-24.21c.4,0,.84,0,1.31.02.49,0,1.02.02,1.56.02,3.91,0,7.81-.48,9.86-4l.09-.14c.28-.54.78-3.32.78-8.25v-10.68c0-5.1-.55-7.79-.81-8.3-2.14-3.59-6.17-4.08-10.2-4.08-.49,0-.96,0-1.4.01-.42,0-.82.01-1.18.01h-27.4c-.37,0-.76,0-1.18-.01-.44,0-.91-.01-1.4-.01-4.04,0-8.06.49-10.16,4l-.08.12s-.78,1.45-.78,8.25v10.68c0,4.94.49,7.71.8,8.29l.06.1c2.06,3.51,5.96,4,9.87,4,.55,0,1.07,0,1.56-.02.46,0,.9-.02,1.31-.02h27.4Z"/><path class="cls-1" d="m148.1,87.26c-6.28,0-22.95,0-30.78-7.83-6.56-6.56-7.32-18.52-7.32-26.95v-17.4c-.03-6.06-.09-17.33,7.36-24.46,7.71-7.59,19.4-7.59,27.93-7.59h42.41c9.5,0,21.32,0,29.34,7.58,6.59,6.09,6.46,17.18,6.38,23.81,0,.62-.01,1.19-.01,1.71v16.35c0,.69,0,1.42.02,2.21.09,7.24.23,18.17-6.34,24.74-6.47,6.47-20.31,7.83-30.78,7.83h-38.2Zm32.3-24.33c.4,0,.84,0,1.31.02.49,0,1.02.02,1.56.02,3.91,0,7.81-.49,9.86-4.02l.09-.14c.28-.55.78-3.33.78-8.29v-10.74c0-5.12-.55-7.83-.81-8.34-2.14-3.61-6.17-4.1-10.2-4.1-.49,0-.96,0-1.4.01-.42,0-.82.01-1.18.01h-27.4c-.37,0-.76,0-1.18-.01-.44,0-.91-.01-1.4-.01-4.04,0-8.06.49-10.16,4.02l-.08.13s-.78,1.46-.78,8.29v10.74c0,4.97.49,7.75.8,8.33l.06.1c2.06,3.53,5.96,4.02,9.87,4.02.55,0,1.07,0,1.56-.02.46,0,.9-.02,1.31-.02h27.4Z"/><path class="cls-1" d="m147.3,86.68c-6.28,0-22.95,0-30.78-7.87-6.56-6.6-7.32-18.62-7.32-27.08v-17.49c-.03-6.09-.09-17.42,7.36-24.58,7.71-7.63,19.4-7.63,27.93-7.63h42.41c9.5,0,21.32,0,29.34,7.62,6.59,6.12,6.46,17.27,6.38,23.93,0,.62-.01,1.19-.01,1.72v16.44c0,.69,0,1.43.02,2.22.09,7.27.23,18.26-6.34,24.87-6.47,6.5-20.31,7.87-30.78,7.87h-38.2Zm32.3-24.45c.4,0,.84,0,1.31.02.49,0,1.02.02,1.56.02,3.91,0,7.81-.49,9.86-4.04l.09-.14c.28-.55.78-3.35.78-8.33v-10.79c0-5.15-.55-7.87-.81-8.38-2.14-3.63-6.17-4.12-10.2-4.12-.49,0-.96,0-1.4.01-.42,0-.82.01-1.18.01h-27.4c-.37,0-.76,0-1.18-.01-.44,0-.91-.01-1.4-.01-4.04,0-8.06.49-10.16,4.05l-.08.13s-.78,1.47-.78,8.33v10.79c0,4.99.49,7.78.8,8.37l.06.1c2.06,3.55,5.96,4.04,9.87,4.04.55,0,1.07,0,1.56-.02.46,0,.9-.02,1.31-.02h27.4Z"/><path class="cls-1" d="m146.5,86.1c-6.28,0-22.95,0-30.78-7.91-6.56-6.63-7.32-18.71-7.32-27.22v-17.58c-.03-6.12-.09-17.5,7.36-24.7,7.71-7.67,19.4-7.67,27.93-7.67h42.41c9.5,0,21.32,0,29.34,7.66,6.59,6.15,6.46,17.36,6.38,24.05,0,.62-.01,1.2-.01,1.72v16.52c0,.69,0,1.44.02,2.23.09,7.31.23,18.36-6.34,24.99-6.47,6.53-20.31,7.91-30.78,7.91h-38.2Zm32.3-24.58c.4,0,.84,0,1.31.02.49,0,1.02.02,1.56.02,3.91,0,7.81-.49,9.86-4.06l.09-.14c.28-.55.78-3.37.78-8.37v-10.85c0-5.18-.55-7.91-.81-8.42-2.14-3.65-6.17-4.14-10.2-4.14-.49,0-.96,0-1.4.01-.42,0-.82.01-1.18.01h-27.4c-.37,0-.76,0-1.18-.01-.44,0-.91-.01-1.4-.01-4.04,0-8.06.49-10.16,4.07l-.08.13s-.78,1.47-.78,8.37v10.85c0,5.02.49,7.82.8,8.41l.06.1c2.06,3.57,5.96,4.06,9.87,4.06.55,0,1.07,0,1.56-.02.46,0,.9-.02,1.31-.02h27.4Z"/><path class="cls-1" d="m145.7,85.51c-6.28,0-22.95,0-30.78-7.95-6.56-6.66-7.32-18.8-7.32-27.36v-17.67c-.03-6.15-.09-17.59,7.36-24.83C122.67,0,134.35,0,142.88,0h42.41c9.5,0,21.32,0,29.34,7.7,6.59,6.18,6.46,17.44,6.38,24.17,0,.63-.01,1.21-.01,1.73v16.6c0,.7,0,1.45.02,2.24.09,7.35.23,18.45-6.34,25.12-6.47,6.57-20.31,7.95-30.78,7.95h-38.2Zm32.3-24.7c.4,0,.84,0,1.31.02.49,0,1.02.02,1.56.02,3.91,0,7.81-.49,9.86-4.08l.09-.14c.28-.56.78-3.38.78-8.41v-10.9c0-5.2-.55-7.95-.81-8.46-2.14-3.67-6.17-4.16-10.2-4.16-.49,0-.96,0-1.4.01-.42,0-.82.01-1.18.01h-27.4c-.37,0-.76,0-1.18-.01-.44,0-.91-.01-1.4-.01-4.04,0-8.06.5-10.16,4.09l-.08.13s-.78,1.48-.78,8.41v10.9c0,5.04.49,7.86.8,8.45l.06.1c2.06,3.58,5.96,4.08,9.87,4.08.55,0,1.07,0,1.56-.02.46,0,.9-.02,1.31-.02h27.4Z"/></g><path class="cls-4" d="m116.7,75.81c-6.5-6.6-6.6-20.2-6.6-25.6v-16.6c0-5.8-.5-17.2,6.6-24.1,7.3-7.3,18.8-7,28.4-7h39.4c9.6,0,21-.1,28.4,7,6.4,6,5.6,18.3,5.6,24.1v16.6c0,6.9.9,19-5.6,25.6-6.8,6.9-23.4,7.2-29,7.2h-38.2c-7.5,0-22.2-.3-29-7.2Zm76.21-17.8c.8-1.2,1.2-5.3,1.2-9.8v-10.9c0-4.4-.4-8.6-1.2-9.8-3.5-6-10.9-5.3-14.9-5.3h-27.4c-4,0-11.4-.7-14.9,5.3-.8,1.2-1.2,4.8-1.2,9.8v10.9c0,4.6.4,8.6,1.2,9.8,3.5,6.1,10.9,5.3,14.9,5.3h27.4c4,0,11.4.8,14.9-5.3Z"/></g><g><g><path class="cls-1" d="m310.3,91.24v-2.38c0-1.17,0-2.3.02-3.39.04-5.71.09-11.1-1.59-12.53l-.1-.09c-.72-.68-2.81-1.5-8.67-1.5h-1.96s-31.2.01-31.2.01v19.88h-29.4V9.92h74.86c7.08,0,16.78,0,22.93,7.58,5.53,6.76,5.8,24.84,3.82,31.32-1.5,5.51-4.57,8.17-8.07,9.93.32.15.63.31.94.48,8.06,4.7,7.93,15.12,7.85,22.02,0,.64-.02,1.25-.02,1.81v8.18h-29.4Zm-9.5-44.32c2.3,0,8.35,0,10.11-2.55.75-1.15.83-6.69-.13-8.44-1.25-2.28-5.57-2.55-8.71-2.55-.52,0-1.01,0-1.47.01-.4,0-.78.01-1.11.01h-32.7v13.51s34,0,34.01,0Z"/><path class="cls-1" d="m309.5,90.68v-2.39c0-1.18,0-2.32.02-3.41.04-5.74.09-11.16-1.59-12.59l-.1-.09c-.72-.69-2.81-1.51-8.67-1.51h-1.96s-31.2.01-31.2.01v19.98h-29.4V8.95h74.86c7.08,0,16.78,0,22.93,7.62,5.53,6.79,5.8,24.97,3.82,31.47-1.5,5.53-4.57,8.21-8.07,9.98.32.15.63.31.94.49,8.06,4.73,7.93,15.2,7.85,22.13,0,.64-.02,1.25-.02,1.82v8.22h-29.4Zm-9.5-44.54c2.3,0,8.35,0,10.11-2.56.75-1.16.83-6.73-.13-8.48-1.25-2.3-5.57-2.56-8.71-2.56-.52,0-1.01,0-1.47.01-.4,0-.78.01-1.11.01h-32.7v13.57s34,0,34.01,0Z"/><path class="cls-1" d="m308.7,90.12v-2.4c0-1.18,0-2.33.02-3.43.04-5.77.09-11.21-1.59-12.66l-.1-.09c-.72-.69-2.81-1.52-8.67-1.52h-1.96s-31.2.01-31.2.01v20.08h-29.4V7.97h74.86c7.08,0,16.78,0,22.93,7.66,5.53,6.83,5.8,25.09,3.82,31.63-1.5,5.56-4.57,8.26-8.07,10.03.32.15.63.32.94.49,8.06,4.75,7.93,15.27,7.85,22.24,0,.65-.02,1.26-.02,1.83v8.26h-29.4Zm-9.5-44.77c2.3,0,8.35,0,10.11-2.57.75-1.17.83-6.76-.13-8.52-1.25-2.31-5.57-2.57-8.71-2.57-.52,0-1.01,0-1.47.01-.4,0-.78.01-1.11.01h-32.7v13.64s34,0,34.01,0Z"/><path class="cls-1" d="m307.9,89.55v-2.41c0-1.19,0-2.34.02-3.44.04-5.8.09-11.27-1.59-12.72l-.1-.09c-.72-.69-2.81-1.52-8.67-1.52h-1.96s-31.2.01-31.2.01v20.18h-29.4V6.99h74.86c7.08,0,16.78,0,22.93,7.7,5.53,6.86,5.8,25.22,3.82,31.79-1.5,5.59-4.57,8.3-8.07,10.08.32.15.63.32.94.49,8.06,4.77,7.93,15.35,7.85,22.35,0,.65-.02,1.27-.02,1.84v8.3h-29.4Zm-9.5-44.99c2.3,0,8.35,0,10.11-2.59.75-1.17.83-6.79-.13-8.57-1.25-2.32-5.57-2.59-8.71-2.59-.52,0-1.01,0-1.47.01-.4,0-.78.01-1.11.01h-32.7v13.71s34,0,34.01,0Z"/><path class="cls-1" d="m307.1,88.98v-2.43c0-1.2,0-2.35.02-3.46.04-5.83.09-11.33-1.59-12.78l-.1-.09c-.72-.7-2.81-1.53-8.67-1.53h-1.96s-31.2.01-31.2.01v20.28h-29.4V6.01h74.86c7.08,0,16.78,0,22.93,7.74,5.53,6.9,5.8,25.35,3.82,31.95-1.5,5.62-4.57,8.34-8.07,10.13.32.15.63.32.94.49,8.06,4.8,7.93,15.43,7.85,22.46,0,.65-.02,1.27-.02,1.85v8.35h-29.4Zm-9.5-45.22c2.3,0,8.35,0,10.11-2.6.75-1.18.83-6.83-.13-8.61-1.25-2.33-5.57-2.6-8.71-2.6-.52,0-1.01,0-1.47.01-.4,0-.78.01-1.11.01h-32.7v13.78s34,0,34.01,0Z"/><path class="cls-1" d="m306.3,88.41v-2.44c0-1.2,0-2.36.02-3.48.04-5.85.09-11.38-1.59-12.85l-.1-.09c-.72-.7-2.81-1.54-8.67-1.54h-1.96s-31.2.01-31.2.01v20.38h-29.4V5.02h74.86c7.08,0,16.78,0,22.93,7.78,5.53,6.93,5.8,25.47,3.82,32.11-1.5,5.65-4.57,8.38-8.07,10.18.32.16.63.32.94.5,8.06,4.82,7.93,15.51,7.85,22.58,0,.66-.02,1.28-.02,1.86v8.39h-29.4Zm-9.5-45.44c2.3,0,8.35,0,10.11-2.61.75-1.18.83-6.86-.13-8.65-1.25-2.34-5.57-2.61-8.71-2.61-.52,0-1.01,0-1.47.01-.4,0-.78.01-1.11.01h-32.7v13.85s34,0,34.01,0Z"/><path class="cls-1" d="m305.5,87.84v-2.45c0-1.21,0-2.37.02-3.49.04-5.88.09-11.44-1.59-12.91l-.1-.09c-.72-.71-2.81-1.55-8.67-1.55h-1.96s-31.2.01-31.2.01v20.49h-29.4V4.03h74.86c7.08,0,16.78,0,22.93,7.82,5.53,6.97,5.8,25.6,3.82,32.27-1.5,5.67-4.57,8.42-8.07,10.23.32.16.63.32.94.5,8.06,4.85,7.93,15.58,7.85,22.69,0,.66-.02,1.29-.02,1.87v8.43h-29.4Zm-9.5-45.67c2.3,0,8.35,0,10.11-2.63.75-1.19.83-6.9-.13-8.7-1.25-2.35-5.57-2.63-8.71-2.63-.52,0-1.01,0-1.47.01-.4,0-.78.01-1.11.01h-32.7v13.92s34,0,34.01,0Z"/><path class="cls-1" d="m304.7,87.26v-2.46c0-1.21,0-2.39.02-3.51.04-5.91.09-11.5-1.59-12.98l-.1-.09c-.72-.71-2.81-1.55-8.67-1.55h-1.96s-31.2.01-31.2.01v20.59h-29.4V3.03h74.86c7.08,0,16.78,0,22.93,7.86,5.53,7,5.8,25.73,3.82,32.43-1.5,5.7-4.57,8.46-8.07,10.28.32.16.63.32.94.5,8.06,4.87,7.93,15.66,7.85,22.8,0,.66-.02,1.29-.02,1.88v8.47h-29.4Zm-9.5-45.9c2.3,0,8.35,0,10.11-2.64.75-1.19.83-6.93-.13-8.74-1.25-2.37-5.57-2.64-8.71-2.64-.52,0-1.01,0-1.47.01-.4,0-.78.01-1.11.01h-32.7v13.99s34,0,34.01,0Z"/><path class="cls-1" d="m303.9,86.68v-2.48c0-1.22,0-2.4.02-3.53.04-5.94.09-11.56-1.59-13.04l-.1-.09c-.72-.71-2.81-1.56-8.67-1.56h-1.96s-31.2.01-31.2.01v20.69h-29.4V2.03h74.86c7.08,0,16.78,0,22.93,7.9,5.53,7.04,5.8,25.86,3.82,32.6-1.5,5.73-4.57,8.51-8.07,10.34.32.16.63.32.94.5,8.06,4.9,7.93,15.74,7.85,22.92,0,.67-.02,1.3-.02,1.89v8.51h-29.4Zm-9.5-46.13c2.3,0,8.35,0,10.11-2.65.75-1.2.83-6.97-.13-8.78-1.25-2.38-5.57-2.65-8.71-2.65-.52,0-1.01,0-1.47.01-.4,0-.78.01-1.11.01h-32.7v14.06s34,0,34.01,0Z"/><path class="cls-1" d="m303.1,86.1v-2.49c0-1.23,0-2.41.02-3.55.04-5.97.09-11.62-1.59-13.11l-.1-.09c-.72-.72-2.81-1.57-8.67-1.57h-1.96s-31.2.01-31.2.01v20.8h-29.4V1.02h74.86c7.08,0,16.78,0,22.93,7.93,5.53,7.07,5.8,25.99,3.82,32.76-1.5,5.76-4.57,8.55-8.07,10.39.32.16.63.33.94.51,8.06,4.92,7.93,15.82,7.85,23.03,0,.67-.02,1.3-.02,1.9v8.56h-29.4Zm-9.5-46.36c2.3,0,8.35,0,10.11-2.67.75-1.21.83-7-.13-8.83-1.25-2.39-5.57-2.67-8.71-2.67-.52,0-1.01,0-1.47.01-.4,0-.78.01-1.11.01h-32.7v14.13s34,0,34.01,0Z"/><path class="cls-1" d="m302.3,85.51v-2.5c0-1.23,0-2.42.02-3.57.04-6,.09-11.67-1.59-13.17l-.1-.09c-.72-.72-2.81-1.58-8.67-1.58h-1.96s-31.2.01-31.2.01v20.9h-29.4V0h74.86c7.08,0,16.78,0,22.93,7.97,5.53,7.11,5.8,26.12,3.82,32.92-1.5,5.79-4.57,8.59-8.07,10.44.32.16.63.33.94.51,8.06,4.94,7.93,15.9,7.85,23.15,0,.67-.02,1.31-.02,1.91v8.6h-29.4Zm-9.5-46.6c2.3,0,8.35,0,10.11-2.68.75-1.21.83-7.04-.13-8.87-1.25-2.4-5.57-2.68-8.71-2.68-.52,0-1.01,0-1.47.01-.4,0-.78.01-1.11.01h-32.7v14.2s34,0,34.01,0Z"/></g><path class="cls-4" d="m325.2,9.5c4.9,6.3,5.2,24.5,3.4,30.7-2,7.7-6.8,9.1-12.5,11.3,2.9.9,4.8,1.5,6.5,2.5,7.5,4.6,6.6,16.3,6.6,22.9v6.1h-24.4c0-9.2.5-16-2.4-18.6-2.6-2.6-9.6-2.3-12.4-2.3h-33.7v20.9h-24.4V2.5h69.8c8.7,0,17.8-.4,23.5,7Zm-33.9,31.9c3.4,0,11,.3,13.7-3.8,1.3-2.1,1.3-8.9,0-11.4-2.4-4.6-10.1-4-13.5-4h-35.2v19.2h35Z"/></g><g><g><polygon class="cls-1" points="348.4 91.24 348.4 9.92 436 9.92 436 33.41 377.8 33.41 377.8 42.54 433.3 42.54 433.3 64.89 377.8 64.89 377.8 91.24 348.4 91.24"/><polygon class="cls-1" points="347.6 90.68 347.6 8.95 435.2 8.95 435.2 32.56 377 32.56 377 41.74 432.5 41.74 432.5 64.2 377 64.2 377 90.68 347.6 90.68"/><polygon class="cls-1" points="346.8 90.12 346.8 7.97 434.4 7.97 434.4 31.7 376.2 31.7 376.2 40.93 431.7 40.93 431.7 63.5 376.2 63.5 376.2 90.12 346.8 90.12"/><polygon class="cls-1" points="346 89.55 346 6.99 433.6 6.99 433.6 30.84 375.4 30.84 375.4 40.11 430.9 40.11 430.9 62.8 375.4 62.8 375.4 89.55 346 89.55"/><polygon class="cls-1" points="345.2 88.98 345.2 6.01 432.8 6.01 432.8 29.98 374.6 29.98 374.6 39.3 430.1 39.3 430.1 62.1 374.6 62.1 374.6 88.98 345.2 88.98"/><polygon class="cls-1" points="344.4 88.41 344.4 5.02 432 5.02 432 29.11 373.8 29.11 373.8 38.48 429.3 38.48 429.3 61.39 373.8 61.39 373.8 88.41 344.4 88.41"/><polygon class="cls-1" points="343.6 87.84 343.6 4.03 431.2 4.03 431.2 28.24 373 28.24 373 37.65 428.5 37.65 428.5 60.68 373 60.68 373 87.84 343.6 87.84"/><polygon class="cls-1" points="342.8 87.26 342.8 3.03 430.4 3.03 430.4 27.36 372.2 27.36 372.2 36.82 427.7 36.82 427.7 59.97 372.2 59.97 372.2 87.26 342.8 87.26"/><polygon class="cls-1" points="342 86.68 342 2.03 429.6 2.03 429.6 26.48 371.4 26.48 371.4 35.99 426.9 35.99 426.9 59.25 371.4 59.25 371.4 86.68 342 86.68"/><polygon class="cls-1" points="341.2 86.1 341.2 1.02 428.8 1.02 428.8 25.6 370.6 25.6 370.6 35.15 426.1 35.15 426.1 58.53 370.6 58.53 370.6 86.1 341.2 86.1"/><polygon class="cls-1" points="340.4 85.51 340.4 0 428 0 428 24.71 369.8 24.71 369.8 34.31 425.3 34.31 425.3 57.81 369.8 57.81 369.8 85.51 340.4 85.51"/></g><path class="cls-4" d="m425.5,2.5v19.7h-58.2v14.6h55.5v18.5h-55.5v27.7h-24.4V2.5h82.61Z"/></g><g><g><polygon class="cls-1" points="560.2 91.24 560.2 9.92 589.6 9.92 589.6 67.75 644.6 67.75 644.6 91.24 560.2 91.24"/><polygon class="cls-1" points="559.4 90.68 559.4 8.95 588.8 8.95 588.8 67.07 643.8 67.07 643.8 90.68 559.4 90.68"/><polygon class="cls-1" points="558.6 90.12 558.6 7.97 588 7.97 588 66.39 643 66.39 643 90.12 558.6 90.12"/><polygon class="cls-1" points="557.8 89.55 557.8 6.99 587.2 6.99 587.2 65.7 642.2 65.7 642.2 89.55 557.8 89.55"/><polygon class="cls-1" points="557 88.98 557 6.01 586.4 6.01 586.4 65.01 641.4 65.01 641.4 88.98 557 88.98"/><polygon class="cls-1" points="556.2 88.41 556.2 5.02 585.6 5.02 585.6 64.32 640.6 64.32 640.6 88.41 556.2 88.41"/><polygon class="cls-1" points="555.4 87.84 555.4 4.03 584.8 4.03 584.8 63.63 639.8 63.63 639.8 87.84 555.4 87.84"/><polygon class="cls-1" points="554.6 87.26 554.6 3.03 584 3.03 584 62.93 639 62.93 639 87.26 554.6 87.26"/><polygon class="cls-1" points="553.8 86.68 553.8 2.03 583.2 2.03 583.2 62.22 638.2 62.22 638.2 86.68 553.8 86.68"/><polygon class="cls-1" points="553 86.1 553 1.02 582.4 1.02 582.4 61.52 637.4 61.52 637.4 86.1 553 86.1"/><polygon class="cls-1" points="552.2 85.51 552.2 0 581.6 0 581.6 60.81 636.6 60.81 636.6 85.51 552.2 85.51"/></g><path class="cls-4" d="m579.1,2.5v60.8h55v19.7h-79.41V2.5h24.4Z"/></g><g><g><rect class="cls-1" x="649.5" y="9.92" width="29.4" height="81.32"/><rect class="cls-1" x="648.7" y="8.95" width="29.4" height="81.73"/><rect class="cls-1" x="647.9" y="7.97" width="29.4" height="82.14"/><rect class="cls-1" x="647.1" y="6.99" width="29.4" height="82.56"/><rect class="cls-1" x="646.3" y="6.01" width="29.4" height="82.97"/><rect class="cls-1" x="645.5" y="5.02" width="29.4" height="83.39"/><rect class="cls-1" x="644.7" y="4.03" width="29.4" height="83.81"/><rect class="cls-1" x="643.9" y="3.03" width="29.4" height="84.23"/><rect class="cls-1" x="643.1" y="2.03" width="29.4" height="84.65"/><rect class="cls-1" x="642.3" y="1.02" width="29.4" height="85.08"/><rect class="cls-1" x="641.5" y="0" width="29.4" height="85.5"/></g><path class="cls-4" d="m668.4,2.5v80.5h-24.4V2.5h24.4Z"/></g><g><g><path class="cls-1" d="m724.7,91.24c-6.28,0-22.95,0-30.78-7.56-6.56-6.34-7.32-17.88-7.32-26.02v-16.81c-.03-5.85-.09-16.73,7.36-23.61,7.71-7.33,19.4-7.33,27.93-7.33h42.41c9.5,0,21.32,0,29.34,7.32,6.59,5.88,6.46,16.59,6.38,22.99,0,.6-.01,1.15-.01,1.65v15.79c0,.66,0,1.38.02,2.13.09,6.99.23,17.55-6.34,23.89-6.47,6.25-20.31,7.56-30.78,7.56h-38.2Zm32.3-23.49c.4,0,.84,0,1.31.01.49,0,1.02.02,1.56.02,3.91,0,7.81-.47,9.86-3.88l.09-.14c.28-.53.78-3.22.78-8v-10.37c0-4.95-.55-7.56-.81-8.05-2.14-3.49-6.17-3.96-10.2-3.96-.49,0-.96,0-1.4.01-.42,0-.82.01-1.18.01h-27.4c-.37,0-.76,0-1.18-.01-.44,0-.91-.01-1.4-.01-4.04,0-8.06.47-10.16,3.89l-.08.12s-.78,1.41-.78,8v10.37c0,4.8.49,7.48.8,8.04l.06.1c2.06,3.41,5.96,3.88,9.86,3.88.55,0,1.07,0,1.56-.02.46,0,.9-.01,1.31-.01h27.4Z"/><path class="cls-1" d="m723.9,90.68c-6.28,0-22.95,0-30.78-7.59-6.56-6.37-7.32-17.97-7.32-26.15v-16.89c-.03-5.88-.09-16.81,7.36-23.73,7.71-7.37,19.4-7.37,27.93-7.37h42.41c9.5,0,21.32,0,29.34,7.36,6.59,5.91,6.46,16.67,6.38,23.11,0,.6-.01,1.15-.01,1.66v15.87c0,.67,0,1.38.02,2.14.09,7.02.23,17.63-6.34,24.01-6.47,6.28-20.31,7.6-30.78,7.6h-38.2Zm32.3-23.61c.4,0,.84,0,1.31.01.49,0,1.02.02,1.56.02,3.91,0,7.81-.47,9.86-3.9l.09-.14c.28-.53.78-3.23.78-8.04v-10.42c0-4.97-.55-7.6-.81-8.09-2.14-3.51-6.17-3.98-10.2-3.98-.49,0-.96,0-1.4.01-.42,0-.82.01-1.18.01h-27.4c-.37,0-.76,0-1.18-.01-.44,0-.91-.01-1.4-.01-4.04,0-8.06.47-10.16,3.91l-.08.12s-.78,1.42-.78,8.04v10.42c0,4.82.49,7.52.8,8.08l.06.1c2.06,3.43,5.96,3.9,9.86,3.9.55,0,1.07,0,1.56-.02.46,0,.9-.01,1.31-.01h27.4Z"/><path class="cls-1" d="m723.1,90.12c-6.28,0-22.95,0-30.78-7.63-6.56-6.4-7.32-18.06-7.32-26.28v-16.98c-.03-5.91-.09-16.9,7.36-23.85,7.71-7.41,19.4-7.41,27.93-7.41h42.41c9.5,0,21.32,0,29.34,7.4,6.59,5.94,6.46,16.76,6.38,23.22,0,.6-.01,1.16-.01,1.67v15.95c0,.67,0,1.39.02,2.15.09,7.06.23,17.72-6.34,24.13-6.47,6.31-20.31,7.63-30.78,7.63h-38.2Zm32.3-23.73c.4,0,.84,0,1.31.02.49,0,1.02.02,1.56.02,3.91,0,7.81-.47,9.86-3.92l.09-.14c.28-.53.78-3.25.78-8.08v-10.47c0-5-.55-7.64-.81-8.13-2.14-3.52-6.17-4-10.2-4-.49,0-.96,0-1.4.01-.42,0-.82.01-1.18.01h-27.4c-.37,0-.76,0-1.18-.01-.44,0-.91-.01-1.4-.01-4.04,0-8.06.48-10.16,3.93l-.08.12s-.78,1.42-.78,8.08v10.47c0,4.85.49,7.55.8,8.12l.06.1c2.06,3.44,5.96,3.92,9.86,3.92.55,0,1.07,0,1.56-.02.46,0,.9-.02,1.31-.02h27.4Z"/><path class="cls-1" d="m722.3,89.55c-6.28,0-22.95,0-30.78-7.67-6.56-6.43-7.32-18.16-7.32-26.41v-17.06c-.03-5.94-.09-16.98,7.36-23.97,7.71-7.44,19.4-7.44,27.93-7.44h42.41c9.5,0,21.32,0,29.34,7.43,6.59,5.97,6.46,16.84,6.38,23.34,0,.6-.01,1.17-.01,1.67v16.03c0,.67,0,1.4.02,2.16.09,7.09.23,17.81-6.34,24.25-6.47,6.34-20.31,7.67-30.78,7.67h-38.2Zm32.3-23.85c.4,0,.84,0,1.31.02.49,0,1.02.02,1.56.02,3.91,0,7.81-.48,9.86-3.94l.09-.14c.28-.54.78-3.27.78-8.12v-10.53c0-5.02-.55-7.67-.81-8.17-2.14-3.54-6.17-4.02-10.2-4.02-.49,0-.96,0-1.4.01-.42,0-.82.01-1.18.01h-27.4c-.37,0-.76,0-1.18-.01-.44,0-.91-.01-1.4-.01-4.04,0-8.06.48-10.16,3.95l-.08.12s-.78,1.43-.78,8.12v10.53c0,4.87.49,7.59.8,8.16l.06.1c2.06,3.46,5.96,3.94,9.86,3.94.55,0,1.07,0,1.56-.02.46,0,.9-.02,1.31-.02h27.4Z"/><path class="cls-1" d="m721.5,88.98c-6.28,0-22.95,0-30.78-7.71-6.56-6.46-7.32-18.25-7.32-26.55v-17.15c-.03-5.97-.09-17.07,7.36-24.09,7.71-7.48,19.4-7.48,27.93-7.48h42.41c9.5,0,21.32,0,29.34,7.47,6.59,6,6.46,16.93,6.38,23.46,0,.61-.01,1.17-.01,1.68v16.11c0,.68,0,1.4.02,2.17.09,7.13.23,17.9-6.34,24.37-6.47,6.37-20.31,7.71-30.78,7.71h-38.2Zm32.3-23.97c.4,0,.84,0,1.31.02.49,0,1.02.02,1.56.02,3.91,0,7.81-.48,9.86-3.96l.09-.14c.28-.54.78-3.28.78-8.16v-10.58c0-5.05-.55-7.71-.81-8.21-2.14-3.56-6.17-4.04-10.2-4.04-.49,0-.96,0-1.4.01-.42,0-.82.01-1.18.01h-27.4c-.37,0-.76,0-1.18-.01-.44,0-.91-.01-1.4-.01-4.04,0-8.06.48-10.16,3.96l-.08.13s-.78,1.44-.78,8.16v10.58c0,4.9.49,7.63.8,8.2l.06.1c2.06,3.48,5.96,3.96,9.86,3.96.55,0,1.07,0,1.56-.02.46,0,.9-.02,1.31-.02h27.4Z"/><path class="cls-1" d="m720.7,88.41c-6.28,0-22.95,0-30.78-7.75-6.56-6.5-7.32-18.34-7.32-26.68v-17.23c-.03-6-.09-17.16,7.36-24.21,7.71-7.52,19.4-7.52,27.93-7.52h42.41c9.5,0,21.32,0,29.34,7.51,6.59,6.03,6.46,17.01,6.38,23.57,0,.61-.01,1.18-.01,1.69v16.19c0,.68,0,1.41.02,2.18.09,7.16.23,17.99-6.34,24.49-6.47,6.4-20.31,7.75-30.78,7.75h-38.2Zm32.3-24.09c.4,0,.84,0,1.31.02.49,0,1.02.02,1.56.02,3.91,0,7.81-.48,9.86-3.98l.09-.14c.28-.54.78-3.3.78-8.2v-10.63c0-5.07-.55-7.75-.81-8.25-2.14-3.58-6.17-4.06-10.2-4.06-.49,0-.96,0-1.4.01-.42,0-.82.01-1.18.01h-27.4c-.37,0-.76,0-1.18-.01-.44,0-.91-.01-1.4-.01-4.04,0-8.06.48-10.16,3.98l-.08.13s-.78,1.44-.78,8.2v10.63c0,4.92.49,7.67.8,8.24l.06.1c2.06,3.5,5.96,3.98,9.86,3.98.55,0,1.07,0,1.56-.02.46,0,.9-.02,1.31-.02h27.4Z"/><path class="cls-1" d="m719.9,87.84c-6.28,0-22.95,0-30.78-7.79-6.56-6.53-7.32-18.43-7.32-26.81v-17.32c-.03-6.03-.09-17.24,7.36-24.33,7.71-7.56,19.4-7.56,27.93-7.56h42.41c9.5,0,21.32,0,29.34,7.55,6.59,6.06,6.46,17.1,6.38,23.69,0,.61-.01,1.18-.01,1.7v16.27c0,.68,0,1.42.02,2.19.09,7.2.23,18.08-6.34,24.62-6.47,6.44-20.31,7.79-30.78,7.79h-38.2Zm32.3-24.21c.4,0,.84,0,1.31.02.49,0,1.02.02,1.56.02,3.91,0,7.81-.48,9.86-4l.09-.14c.28-.54.78-3.32.78-8.25v-10.68c0-5.1-.55-7.79-.81-8.3-2.14-3.59-6.17-4.08-10.2-4.08-.49,0-.96,0-1.4.01-.42,0-.82.01-1.18.01h-27.4c-.37,0-.76,0-1.18-.01-.44,0-.91-.01-1.4-.01-4.04,0-8.06.49-10.16,4l-.08.13s-.78,1.45-.78,8.24v10.68c0,4.94.49,7.71.8,8.29l.06.1c2.06,3.51,5.96,4,9.86,4,.55,0,1.07,0,1.56-.02.46,0,.9-.02,1.31-.02h27.4Z"/><path class="cls-1" d="m719.1,87.26c-6.28,0-22.95,0-30.78-7.83-6.56-6.56-7.32-18.52-7.32-26.95v-17.41c-.03-6.06-.09-17.33,7.36-24.46,7.71-7.59,19.4-7.59,27.93-7.59h42.41c9.5,0,21.32,0,29.34,7.58,6.59,6.09,6.46,17.18,6.38,23.81,0,.62-.01,1.19-.01,1.71v16.35c0,.69,0,1.42.02,2.21.09,7.24.23,18.17-6.34,24.74-6.47,6.47-20.31,7.83-30.78,7.83h-38.2Zm32.3-24.33c.4,0,.84,0,1.31.02.49,0,1.02.02,1.56.02,3.91,0,7.81-.49,9.86-4.02l.09-.14c.28-.55.78-3.33.78-8.29v-10.74c0-5.12-.55-7.83-.81-8.34-2.14-3.61-6.17-4.1-10.2-4.1-.49,0-.96,0-1.4.01-.42,0-.82.01-1.18.01h-27.4c-.37,0-.76,0-1.18-.01-.44,0-.91-.01-1.4-.01-4.04,0-8.06.49-10.16,4.02l-.08.13s-.78,1.46-.78,8.29v10.74c0,4.97.49,7.74.8,8.33l.06.1c2.06,3.53,5.96,4.02,9.86,4.02.55,0,1.07,0,1.56-.02.46,0,.9-.02,1.31-.02h27.4Z"/><path class="cls-1" d="m718.3,86.68c-6.28,0-22.95,0-30.78-7.87-6.56-6.6-7.32-18.62-7.32-27.08v-17.49c-.03-6.09-.09-17.42,7.36-24.58,7.71-7.63,19.4-7.63,27.93-7.63h42.41c9.5,0,21.32,0,29.34,7.62,6.59,6.12,6.46,17.27,6.38,23.93,0,.62-.01,1.19-.01,1.72v16.44c0,.69,0,1.43.02,2.22.09,7.27.23,18.26-6.34,24.87-6.47,6.5-20.31,7.87-30.78,7.87h-38.2Zm32.3-24.45c.4,0,.84,0,1.31.02.49,0,1.02.02,1.56.02,3.91,0,7.81-.49,9.86-4.04l.09-.14c.28-.55.78-3.35.78-8.33v-10.79c0-5.15-.55-7.87-.81-8.38-2.14-3.63-6.17-4.12-10.2-4.12-.49,0-.96,0-1.4.01-.42,0-.82.01-1.18.01h-27.4c-.37,0-.76,0-1.18-.01-.44,0-.91-.01-1.4-.01-4.04,0-8.06.49-10.16,4.05l-.08.13s-.78,1.47-.78,8.33v10.79c0,4.99.49,7.78.8,8.37l.06.1c2.06,3.55,5.96,4.04,9.86,4.04.55,0,1.07,0,1.56-.02.46,0,.9-.02,1.31-.02h27.4Z"/><path class="cls-1" d="m717.5,86.1c-6.28,0-22.95,0-30.78-7.91-6.56-6.63-7.32-18.71-7.32-27.22v-17.58c-.03-6.12-.09-17.5,7.36-24.7,7.71-7.67,19.4-7.67,27.93-7.67h42.41c9.5,0,21.32,0,29.34,7.66,6.59,6.15,6.46,17.36,6.38,24.05,0,.62-.01,1.2-.01,1.72v16.52c0,.69,0,1.44.02,2.23.09,7.31.23,18.36-6.34,24.99-6.47,6.53-20.31,7.91-30.78,7.91h-38.2Zm32.3-24.58c.4,0,.84,0,1.31.02.49,0,1.02.02,1.56.02,3.91,0,7.81-.49,9.86-4.06l.09-.14c.28-.55.78-3.37.78-8.37v-10.85c0-5.18-.55-7.91-.81-8.42-2.14-3.65-6.17-4.14-10.2-4.14-.49,0-.96,0-1.4.01-.42,0-.82.01-1.18.01h-27.4c-.37,0-.76,0-1.18-.01-.44,0-.91-.01-1.4-.01-4.04,0-8.06.49-10.16,4.07l-.08.13s-.78,1.47-.78,8.37v10.85c0,5.02.49,7.82.8,8.41l.06.1c2.06,3.57,5.96,4.06,9.86,4.06.55,0,1.07,0,1.56-.02.46,0,.9-.02,1.31-.02h27.4Z"/><path class="cls-1" d="m716.7,85.51c-6.28,0-22.95,0-30.78-7.95-6.56-6.66-7.32-18.8-7.32-27.36v-17.67c-.03-6.15-.09-17.59,7.36-24.83C693.66,0,705.35,0,713.88,0h42.41c9.5,0,21.32,0,29.34,7.7,6.59,6.18,6.46,17.44,6.38,24.17,0,.63-.01,1.21-.01,1.73v16.6c0,.7,0,1.45.02,2.24.09,7.35.23,18.45-6.34,25.12-6.47,6.57-20.31,7.95-30.78,7.95h-38.2Zm32.3-24.7c.4,0,.84,0,1.31.02.49,0,1.02.02,1.56.02,3.91,0,7.81-.49,9.86-4.08l.09-.14c.28-.56.78-3.38.78-8.41v-10.9c0-5.2-.55-7.95-.81-8.46-2.14-3.67-6.17-4.16-10.2-4.16-.49,0-.96,0-1.4.01-.42,0-.82.01-1.18.01h-27.4c-.37,0-.76,0-1.18-.01-.44,0-.91-.01-1.4-.01-4.04,0-8.06.5-10.16,4.09l-.08.13s-.78,1.48-.78,8.41v10.9c0,5.04.49,7.86.8,8.45l.06.1c2.06,3.58,5.96,4.08,9.86,4.08.55,0,1.07,0,1.56-.02.46,0,.9-.02,1.31-.02h27.4Z"/></g><path class="cls-4" d="m687.69,75.81c-6.5-6.6-6.6-20.2-6.6-25.6v-16.6c0-5.8-.5-17.2,6.6-24.1,7.3-7.3,18.8-7,28.4-7h39.4c9.6,0,21-.1,28.4,7,6.4,6,5.6,18.3,5.6,24.1v16.6c0,6.9.9,19-5.6,25.6-6.8,6.9-23.4,7.2-29,7.2h-38.2c-7.5,0-22.2-.3-29-7.2Zm76.21-17.8c.8-1.2,1.2-5.3,1.2-9.8v-10.9c0-4.4-.4-8.6-1.2-9.8-3.5-6-10.9-5.3-14.9-5.3h-27.4c-4,0-11.4-.7-14.9,5.3-.8,1.2-1.2,4.8-1.2,9.8v10.9c0,4.6.4,8.6,1.2,9.8,3.5,6.1,10.9,5.3,14.9,5.3h27.4c4,0,11.4.8,14.9-5.3Z"/></g><g><g><polygon class="cls-1" points="8.2 211.24 8.2 129.92 37.6 129.92 37.6 187.75 92.6 187.75 92.6 211.24 8.2 211.24"/><polygon class="cls-1" points="7.4 210.68 7.4 128.95 36.8 128.95 36.8 187.07 91.8 187.07 91.8 210.68 7.4 210.68"/><polygon class="cls-1" points="6.6 210.12 6.6 127.97 36 127.97 36 186.39 91 186.39 91 210.12 6.6 210.12"/><polygon class="cls-1" points="5.8 209.55 5.8 126.99 35.2 126.99 35.2 185.7 90.2 185.7 90.2 209.55 5.8 209.55"/><polygon class="cls-1" points="5 208.98 5 126.01 34.4 126.01 34.4 185.01 89.4 185.01 89.4 208.98 5 208.98"/><polygon class="cls-1" points="4.2 208.41 4.2 125.02 33.6 125.02 33.6 184.32 88.6 184.32 88.6 208.41 4.2 208.41"/><polygon class="cls-1" points="3.4 207.84 3.4 124.03 32.8 124.03 32.8 183.63 87.8 183.63 87.8 207.84 3.4 207.84"/><polygon class="cls-1" points="2.6 207.26 2.6 123.03 32 123.03 32 182.93 87 182.93 87 207.26 2.6 207.26"/><polygon class="cls-1" points="1.8 206.68 1.8 122.03 31.2 122.03 31.2 182.22 86.2 182.22 86.2 206.68 1.8 206.68"/><polygon class="cls-1" points="1 206.1 1 121.02 30.4 121.02 30.4 181.52 85.4 181.52 85.4 206.1 1 206.1"/><polygon class="cls-1" points=".2 205.51 .2 120 29.6 120 29.6 180.81 84.6 180.81 84.6 205.51 .2 205.51"/></g><path class="cls-2" d="m27.1,122.5v60.8h55v19.7H2.7v-80.5h24.4Z"/></g><g><g><path class="cls-1" d="m126.94,211.26c-7.42,0-14.17-.59-21.63-7.86-7.71-7.62-7.59-19.99-7.52-26.64,0-.56.01-1.08.01-1.56v-45.28h29.4v39.95c0,.56,0,1.16-.02,1.8-.05,4.18-.14,11.17,2.51,13.75,2.25,2.09,6.03,2.36,9.07,2.36.57,0,1.12,0,1.62-.02.47,0,.92-.01,1.32-.01h19.8c.25,0,.55,0,.89.01.41,0,.89.02,1.42.02,4.09,0,6.84-.74,8.4-2.26,2.04-2.06,1.98-6.99,1.92-12.2-.01-.95-.02-1.91-.02-2.88v-40.52h29.4v47.75c0,.86,0,1.72.02,2.57.08,7.97.17,16.21-7.03,23.24-8.06,7.76-18.55,7.76-26.98,7.76h-2.92s-36,0-36,0c-.63,0-3.07.01-3.66.01Z"/><path class="cls-1" d="m126.14,210.69c-7.42,0-14.17-.59-21.63-7.9-7.71-7.66-7.59-20.1-7.52-26.78,0-.56.01-1.09.01-1.56v-45.5h29.4v40.15c0,.56,0,1.17-.02,1.81-.05,4.2-.14,11.22,2.51,13.82,2.25,2.1,6.03,2.37,9.07,2.37.57,0,1.12,0,1.62-.02.47,0,.92-.01,1.32-.01h19.8c.25,0,.55,0,.89.01.41,0,.89.02,1.42.02,4.09,0,6.84-.74,8.4-2.27,2.04-2.07,1.98-7.02,1.92-12.26-.01-.95-.02-1.92-.02-2.9v-40.72h29.4v47.99c0,.86,0,1.73.02,2.59.08,8.01.17,16.29-7.03,23.36-8.06,7.8-18.55,7.8-26.98,7.8h-2.92s-36,0-36,0c-.63,0-3.07.01-3.66.01Z"/><path class="cls-1" d="m125.34,210.13c-7.42,0-14.17-.6-21.63-7.94-7.71-7.7-7.59-20.2-7.52-26.91,0-.56.01-1.09.01-1.57v-45.73h29.4v40.35c0,.56,0,1.17-.02,1.82-.05,4.22-.14,11.28,2.51,13.89,2.25,2.11,6.03,2.38,9.07,2.38.57,0,1.12,0,1.62-.02.47,0,.92-.02,1.32-.02h19.8c.25,0,.55,0,.89.01.41,0,.89.02,1.42.02,4.09,0,6.84-.75,8.4-2.29,2.04-2.08,1.98-7.06,1.92-12.32-.01-.96-.02-1.93-.02-2.91v-40.93h29.4v48.23c0,.87,0,1.74.02,2.6.08,8.05.17,16.37-7.03,23.48-8.06,7.84-18.55,7.84-26.98,7.84h-2.92s-36,0-36,0c-.63,0-3.07.01-3.66.01Z"/><path class="cls-1" d="m124.54,209.57c-7.42,0-14.17-.6-21.63-7.98-7.71-7.74-7.59-20.3-7.52-27.05,0-.57.01-1.1.01-1.58v-45.96h29.4v40.55c0,.56,0,1.18-.02,1.83-.05,4.24-.14,11.34,2.51,13.96,2.25,2.12,6.03,2.39,9.07,2.39.57,0,1.12,0,1.62-.02.47,0,.92-.02,1.32-.02h19.8c.25,0,.55,0,.89.01.41,0,.89.02,1.42.02,4.09,0,6.84-.75,8.4-2.3,2.04-2.09,1.98-7.09,1.92-12.38-.01-.96-.02-1.94-.02-2.93v-41.13h29.4v48.47c0,.87,0,1.75.02,2.61.08,8.09.17,16.45-7.03,23.6-8.06,7.88-18.55,7.88-26.98,7.88h-2.92s-36,0-36,0c-.63,0-3.07.01-3.66.01Z"/><path class="cls-1" d="m123.74,209c-7.42,0-14.17-.6-21.63-8.02-7.71-7.78-7.59-20.4-7.52-27.18,0-.57.01-1.1.01-1.59v-46.19h29.4v40.76c0,.57,0,1.19-.02,1.84-.05,4.26-.14,11.39,2.51,14.03,2.25,2.13,6.03,2.41,9.07,2.41.57,0,1.12,0,1.62-.02.47,0,.92-.02,1.32-.02h19.8c.25,0,.55,0,.89.01.41,0,.89.02,1.42.02,4.09,0,6.84-.76,8.4-2.31,2.04-2.1,1.98-7.13,1.92-12.45-.01-.97-.02-1.95-.02-2.94v-41.34h29.4v48.72c0,.88,0,1.75.02,2.63.08,8.13.17,16.54-7.03,23.71-8.06,7.92-18.55,7.92-26.98,7.92h-2.92s-36,0-36,0c-.63,0-3.07.01-3.66.01Z"/><path class="cls-1" d="m122.94,208.43c-7.42,0-14.17-.61-21.63-8.06-7.71-7.82-7.59-20.5-7.52-27.32,0-.57.01-1.11.01-1.6v-46.42h29.4v40.96c0,.57,0,1.19-.02,1.85-.05,4.28-.14,11.45,2.51,14.1,2.25,2.14,6.03,2.42,9.07,2.42.57,0,1.12,0,1.62-.02.47,0,.92-.02,1.32-.02h19.8c.25,0,.55,0,.89.01.41,0,.89.02,1.42.02,4.09,0,6.84-.76,8.4-2.32,2.04-2.11,1.98-7.16,1.92-12.51-.01-.97-.02-1.96-.02-2.96v-41.55h29.4v48.96c0,.88,0,1.76.02,2.64.08,8.17.17,16.62-7.03,23.83-8.06,7.96-18.55,7.96-26.98,7.96h-2.92s-36,0-36,0c-.63,0-3.07.01-3.66.01Z"/><path class="cls-1" d="m122.14,207.85c-7.42,0-14.17-.61-21.63-8.1-7.71-7.85-7.59-20.61-7.52-27.46,0-.58.01-1.11.01-1.6v-46.66h29.4v41.17c0,.57,0,1.2-.02,1.86-.05,4.3-.14,11.51,2.51,14.17,2.25,2.15,6.03,2.43,9.07,2.43.57,0,1.12,0,1.62-.02.47,0,.92-.02,1.32-.02h19.8c.25,0,.55,0,.89.01.41,0,.89.02,1.42.02,4.09,0,6.84-.76,8.4-2.33,2.04-2.12,1.98-7.2,1.92-12.57-.01-.98-.02-1.97-.02-2.97v-41.76h29.4v49.21c0,.89,0,1.77.02,2.65.08,8.21.17,16.7-7.03,23.95-8.06,8-18.55,8-26.98,8h-2.92s-36,0-36,0c-.63,0-3.07.01-3.66.01Z"/><path class="cls-1" d="m121.34,207.27c-7.42,0-14.17-.61-21.63-8.15-7.71-7.89-7.59-20.71-7.52-27.59,0-.58.01-1.12.01-1.61v-46.89h29.4v41.38c0,.58,0,1.2-.02,1.87-.05,4.33-.14,11.57,2.51,14.24,2.25,2.16,6.03,2.44,9.07,2.44.57,0,1.12,0,1.62-.02.47,0,.92-.02,1.32-.02h19.8c.25,0,.55,0,.89.01.41,0,.89.02,1.42.02,4.09,0,6.84-.77,8.4-2.34,2.04-2.13,1.98-7.24,1.92-12.64-.01-.98-.02-1.98-.02-2.99v-41.97h29.4v49.45c0,.89,0,1.78.02,2.67.08,8.25.17,16.79-7.03,24.07-8.06,8.04-18.55,8.04-26.98,8.04h-2.92s-36,0-36,0c-.63,0-3.07.01-3.66.01Z"/><path class="cls-1" d="m120.54,206.69c-7.42,0-14.17-.62-21.63-8.19-7.71-7.93-7.59-20.81-7.52-27.73,0-.58.01-1.12.01-1.62v-47.13h29.4v41.58c0,.58,0,1.21-.02,1.88-.05,4.35-.14,11.62,2.51,14.32,2.25,2.17,6.03,2.45,9.07,2.45.57,0,1.12,0,1.62-.02.47,0,.92-.02,1.32-.02h19.8c.25,0,.55,0,.89.01.41,0,.89.02,1.42.02,4.09,0,6.84-.77,8.4-2.36,2.04-2.14,1.98-7.27,1.92-12.7-.01-.99-.02-1.99-.02-3v-42.18h29.4v49.7c0,.9,0,1.79.02,2.68.08,8.3.17,16.87-7.03,24.19-8.06,8.08-18.55,8.08-26.98,8.08h-2.92s-36,0-36,0c-.63,0-3.07.01-3.66.01Z"/><path class="cls-1" d="m119.74,206.11c-7.42,0-14.17-.62-21.63-8.23-7.71-7.97-7.59-20.92-7.52-27.87,0-.58.01-1.13.01-1.63v-47.36h29.4v41.79c0,.58,0,1.22-.02,1.89-.05,4.37-.14,11.68,2.51,14.39,2.25,2.18,6.03,2.47,9.07,2.47.57,0,1.12,0,1.62-.02.47,0,.92-.02,1.32-.02h19.8c.25,0,.55,0,.89.01.41,0,.89.02,1.42.02,4.09,0,6.84-.77,8.4-2.37,2.04-2.15,1.98-7.31,1.92-12.76-.01-.99-.02-2-.02-3.02v-42.39h29.4v49.95c0,.9,0,1.8.02,2.69.08,8.34.17,16.96-7.03,24.32-8.06,8.12-18.55,8.12-26.98,8.12h-2.92s-36,0-36,0c-.63,0-3.07.01-3.66.01Z"/><path class="cls-1" d="m118.94,205.52c-7.42,0-14.17-.62-21.63-8.27-7.71-8.01-7.59-21.02-7.52-28.01,0-.59.01-1.14.01-1.64v-47.6h29.4v42c0,.58,0,1.22-.02,1.9-.05,4.39-.14,11.74,2.51,14.46,2.25,2.19,6.03,2.48,9.07,2.48.57,0,1.12,0,1.62-.02.47,0,.92-.02,1.32-.02h19.8c.25,0,.55,0,.89.01.41,0,.89.02,1.42.02,4.09,0,6.84-.78,8.4-2.38,2.04-2.17,1.98-7.34,1.92-12.83-.01-1-.02-2.01-.02-3.03v-42.6h29.4v50.2c0,.9,0,1.81.02,2.71.08,8.38.17,17.04-7.03,24.44-8.06,8.16-18.55,8.16-26.98,8.16h-2.92s-36,0-36,0c-.63,0-3.07.01-3.66.01Z"/></g><path class="cls-2" d="m116.7,122.5v39.5c0,5.1-.6,14.2,3.2,18.1,3.9,3.8,10.3,3.2,13.8,3.2h19.8c2.2,0,8.9.6,12.5-3.1,3.2-3.4,2.6-10.3,2.6-17.6v-40.1h24.4v47.7c0,9.1.9,18-6.3,25.4-7.7,7.8-17.6,7.4-28.1,7.4h-36c-8.6,0-15.5.7-23.5-7.5-7.6-7.9-6.8-21.6-6.8-27.9v-45.1h24.4Z"/></g><g><g><rect class="cls-1" x="328.5" y="129.92" width="29.4" height="81.32"/><rect class="cls-1" x="327.7" y="128.95" width="29.4" height="81.73"/><rect class="cls-1" x="326.9" y="127.97" width="29.4" height="82.14"/><rect class="cls-1" x="326.1" y="126.99" width="29.4" height="82.56"/><rect class="cls-1" x="325.3" y="126.01" width="29.4" height="82.97"/><rect class="cls-1" x="324.5" y="125.02" width="29.4" height="83.39"/><rect class="cls-1" x="323.7" y="124.03" width="29.4" height="83.81"/><rect class="cls-1" x="322.9" y="123.03" width="29.4" height="84.23"/><rect class="cls-1" x="322.1" y="122.03" width="29.4" height="84.65"/><rect class="cls-1" x="321.3" y="121.02" width="29.4" height="85.08"/><rect class="cls-1" x="320.5" y="120" width="29.4" height="85.5"/></g><path class="cls-2" d="m347.4,122.5v80.5h-24.4v-80.5h24.4Z"/></g><g><g><path class="cls-1" d="m453.33,211.24l-8-13.79h-46.39l-7.3,13.79h-32.71l45.57-81.32h34.89l46.31,81.32h-32.37Zm-19.87-34.62l-11.52-20.8-11.16,20.8h22.68Z"/><path class="cls-1" d="m452.53,210.68l-8-13.86h-46.39l-7.3,13.86h-32.71l45.57-81.73h34.89l46.31,81.73h-32.37Zm-19.87-34.8l-11.52-20.91-11.16,20.91h22.68Z"/><path class="cls-1" d="m451.73,210.12l-8-13.93h-46.39l-7.3,13.93h-32.71l45.57-82.14h34.89l46.31,82.14h-32.37Zm-19.87-34.97l-11.52-21.01-11.16,21.01h22.68Z"/><path class="cls-1" d="m450.93,209.55l-8-14h-46.39l-7.3,14h-32.71l45.57-82.56h34.89l46.31,82.56h-32.37Zm-19.87-35.15l-11.52-21.12-11.16,21.12h22.68Z"/><path class="cls-1" d="m450.13,208.98l-8-14.07h-46.39l-7.3,14.07h-32.71l45.57-82.97h34.89l46.31,82.97h-32.37Zm-19.87-35.32l-11.52-21.22-11.16,21.22h22.68Z"/><path class="cls-1" d="m449.33,208.41l-8-14.14h-46.39l-7.3,14.14h-32.71l45.57-83.39h34.89l46.31,83.39h-32.37Zm-19.87-35.5l-11.52-21.33-11.16,21.33h22.68Z"/><path class="cls-1" d="m448.53,207.84l-8-14.21h-46.39l-7.3,14.21h-32.71l45.57-83.81h34.89l46.31,83.81h-32.37Zm-19.87-35.68l-11.52-21.44-11.16,21.44h22.68Z"/><path class="cls-1" d="m447.73,207.26l-8-14.28h-46.39l-7.3,14.28h-32.71l45.57-84.23h34.89l46.31,84.23h-32.37Zm-19.87-35.86l-11.52-21.54-11.16,21.54h22.68Z"/><path class="cls-1" d="m446.93,206.68l-8-14.36h-46.39l-7.3,14.36h-32.71l45.57-84.65h34.89l46.31,84.65h-32.37Zm-19.87-36.04l-11.52-21.65-11.16,21.65h22.68Z"/><path class="cls-1" d="m446.13,206.1l-8-14.43h-46.39l-7.3,14.43h-32.71l45.57-85.08h34.89l46.31,85.08h-32.37Zm-19.87-36.22l-11.52-21.76-11.16,21.76h22.68Z"/><path class="cls-1" d="m445.33,205.51l-8-14.5h-46.39l-7.3,14.5h-32.71l45.57-85.5h34.89l46.31,85.5h-32.37Zm-19.87-36.4l-11.52-21.87-11.16,21.87h22.68Z"/></g><path class="cls-2" d="m429.9,122.5l43.6,80.5h-26.7l-8-14.5h-49.4l-7.3,14.5h-27l42.9-80.5h31.9Zm-.3,49.1l-15.7-29.8-15.2,29.8h30.9Z"/></g><g><g><polygon class="cls-1" points="558.7 211.24 516.2 161.01 516.2 211.24 486.79 211.24 486.79 129.92 528.3 129.92 570.9 180.84 570.9 129.92 600.3 129.92 600.3 211.24 558.7 211.24"/><polygon class="cls-1" points="557.9 210.68 515.4 160.2 515.4 210.68 485.99 210.68 485.99 128.95 527.5 128.95 570.1 180.13 570.1 128.95 599.5 128.95 599.5 210.68 557.9 210.68"/><polygon class="cls-1" points="557.1 210.12 514.6 159.38 514.6 210.12 485.19 210.12 485.19 127.97 526.7 127.97 569.3 179.41 569.3 127.97 598.7 127.97 598.7 210.12 557.1 210.12"/><polygon class="cls-1" points="556.3 209.55 513.8 158.56 513.8 209.55 484.39 209.55 484.39 126.99 525.9 126.99 568.5 178.69 568.5 126.99 597.9 126.99 597.9 209.55 556.3 209.55"/><polygon class="cls-1" points="555.5 208.98 513 157.74 513 208.98 483.59 208.98 483.59 126.01 525.1 126.01 567.7 177.97 567.7 126.01 597.1 126.01 597.1 208.98 555.5 208.98"/><polygon class="cls-1" points="554.7 208.41 512.2 156.91 512.2 208.41 482.79 208.41 482.79 125.02 524.3 125.02 566.9 177.24 566.9 125.02 596.3 125.02 596.3 208.41 554.7 208.41"/><polygon class="cls-1" points="553.9 207.84 511.4 156.07 511.4 207.84 481.99 207.84 481.99 124.03 523.5 124.03 566.1 176.51 566.1 124.03 595.5 124.03 595.5 207.84 553.9 207.84"/><polygon class="cls-1" points="553.1 207.26 510.6 155.24 510.6 207.26 481.19 207.26 481.19 123.03 522.7 123.03 565.3 175.78 565.3 123.03 594.7 123.03 594.7 207.26 553.1 207.26"/><polygon class="cls-1" points="552.3 206.68 509.8 154.4 509.8 206.68 480.39 206.68 480.39 122.03 521.9 122.03 564.5 175.04 564.5 122.03 593.9 122.03 593.9 206.68 552.3 206.68"/><polygon class="cls-1" points="551.5 206.1 509 153.55 509 206.1 479.59 206.1 479.59 121.02 521.1 121.02 563.7 174.29 563.7 121.02 593.1 121.02 593.1 206.1 551.5 206.1"/><polygon class="cls-1" points="550.7 205.51 508.2 152.7 508.2 205.51 478.79 205.51 478.79 120 520.3 120 562.9 173.55 562.9 120 592.3 120 592.3 205.51 550.7 205.51"/></g><path class="cls-2" d="m519.1,122.5l46.3,58.2v-58.2h24.4v80.5h-37.9l-46.2-57.4v57.4h-24.4v-80.5h37.8Z"/></g><g><g><path class="cls-1" d="m646.29,211.24c-6.28,0-22.95,0-30.78-7.56-6.56-6.34-7.32-17.88-7.32-26.02v-16.8c-.03-5.85-.09-16.73,7.36-23.61,7.71-7.33,19.4-7.33,27.93-7.33h42.41c9.5,0,21.32,0,29.34,7.32,6.59,5.88,6.46,16.59,6.38,22.99,0,.6-.01,1.15-.01,1.65v15.79c0,.66,0,1.38.02,2.13.09,6.99.23,17.55-6.34,23.89-6.47,6.25-20.31,7.56-30.78,7.56h-38.2Zm32.3-23.49c.4,0,.84,0,1.31.01.49,0,1.02.02,1.56.02,3.91,0,7.81-.47,9.86-3.88l.09-.14c.28-.53.78-3.22.78-8v-10.37c0-4.95-.55-7.56-.81-8.05-2.14-3.49-6.17-3.96-10.2-3.96-.49,0-.96,0-1.4.01-.42,0-.82.01-1.18.01h-27.4c-.37,0-.76,0-1.18-.01-.44,0-.91-.01-1.4-.01-4.04,0-8.06.47-10.16,3.89l-.08.12s-.78,1.41-.78,8v10.37c0,4.8.49,7.48.8,8.04l.06.1c2.06,3.41,5.96,3.88,9.87,3.88.55,0,1.07,0,1.56-.02.46,0,.9-.01,1.31-.01h27.4Z"/><path class="cls-1" d="m645.49,210.68c-6.28,0-22.95,0-30.78-7.59-6.56-6.37-7.32-17.97-7.32-26.15v-16.89c-.03-5.88-.09-16.82,7.36-23.73,7.71-7.37,19.4-7.37,27.93-7.37h42.41c9.5,0,21.32,0,29.34,7.36,6.59,5.91,6.46,16.67,6.38,23.11,0,.6-.01,1.15-.01,1.66v15.87c0,.67,0,1.38.02,2.14.09,7.02.23,17.63-6.34,24.01-6.47,6.28-20.31,7.6-30.78,7.6h-38.2Zm32.3-23.61c.4,0,.84,0,1.31.01.49,0,1.02.02,1.56.02,3.91,0,7.81-.47,9.86-3.9l.09-.14c.28-.53.78-3.23.78-8.04v-10.42c0-4.97-.55-7.6-.81-8.09-2.14-3.51-6.17-3.98-10.2-3.98-.49,0-.96,0-1.4.01-.42,0-.82.01-1.18.01h-27.4c-.37,0-.76,0-1.18-.01-.44,0-.91-.01-1.4-.01-4.04,0-8.06.47-10.16,3.91l-.08.12s-.78,1.42-.78,8.04v10.42c0,4.82.49,7.52.8,8.08l.06.1c2.06,3.43,5.96,3.9,9.87,3.9.55,0,1.07,0,1.56-.02.46,0,.9-.01,1.31-.01h27.4Z"/><path class="cls-1" d="m644.69,210.12c-6.28,0-22.95,0-30.78-7.63-6.56-6.4-7.32-18.06-7.32-26.28v-16.97c-.03-5.91-.09-16.9,7.36-23.85,7.71-7.41,19.4-7.41,27.93-7.41h42.41c9.5,0,21.32,0,29.34,7.4,6.59,5.94,6.46,16.76,6.38,23.22,0,.6-.01,1.16-.01,1.67v15.95c0,.67,0,1.39.02,2.15.09,7.06.23,17.72-6.34,24.13-6.47,6.31-20.31,7.63-30.78,7.63h-38.2Zm32.3-23.73c.4,0,.84,0,1.31.02.49,0,1.02.02,1.56.02,3.91,0,7.81-.47,9.86-3.92l.09-.14c.28-.53.78-3.25.78-8.08v-10.47c0-5-.55-7.64-.81-8.13-2.14-3.52-6.17-4-10.2-4-.49,0-.96,0-1.4.01-.42,0-.82.01-1.18.01h-27.4c-.37,0-.76,0-1.18-.01-.44,0-.91-.01-1.4-.01-4.04,0-8.06.48-10.16,3.93l-.08.12s-.78,1.42-.78,8.08v10.47c0,4.85.49,7.55.8,8.12l.06.1c2.06,3.44,5.96,3.92,9.87,3.92.55,0,1.07,0,1.56-.02.46,0,.9-.02,1.31-.02h27.4Z"/><path class="cls-1" d="m643.89,209.55c-6.28,0-22.95,0-30.78-7.67-6.56-6.43-7.32-18.16-7.32-26.41v-17.06c-.03-5.94-.09-16.99,7.36-23.97,7.71-7.44,19.4-7.44,27.93-7.44h42.41c9.5,0,21.32,0,29.34,7.43,6.59,5.97,6.46,16.84,6.38,23.34,0,.6-.01,1.17-.01,1.67v16.03c0,.67,0,1.4.02,2.16.09,7.09.23,17.81-6.34,24.25-6.47,6.34-20.31,7.67-30.78,7.67h-38.2Zm32.3-23.85c.4,0,.84,0,1.31.02.49,0,1.02.02,1.56.02,3.91,0,7.81-.48,9.86-3.94l.09-.14c.28-.54.78-3.27.78-8.12v-10.53c0-5.02-.55-7.67-.81-8.17-2.14-3.54-6.17-4.02-10.2-4.02-.49,0-.96,0-1.4.01-.42,0-.82.01-1.18.01h-27.4c-.37,0-.76,0-1.18-.01-.44,0-.91-.01-1.4-.01-4.04,0-8.06.48-10.16,3.95l-.08.12s-.78,1.43-.78,8.12v10.53c0,4.87.49,7.59.8,8.16l.06.1c2.06,3.46,5.96,3.94,9.87,3.94.55,0,1.07,0,1.56-.02.46,0,.9-.02,1.31-.02h27.4Z"/><path class="cls-1" d="m643.09,208.98c-6.28,0-22.95,0-30.78-7.71-6.56-6.47-7.32-18.25-7.32-26.55v-17.14c-.03-5.97-.09-17.07,7.36-24.09,7.71-7.48,19.4-7.48,27.93-7.48h42.41c9.5,0,21.32,0,29.34,7.47,6.59,6,6.46,16.93,6.38,23.46,0,.61-.01,1.17-.01,1.68v16.11c0,.68,0,1.4.02,2.17.09,7.13.23,17.9-6.34,24.37-6.47,6.37-20.31,7.71-30.78,7.71h-38.2Zm32.3-23.97c.4,0,.84,0,1.31.02.49,0,1.02.02,1.56.02,3.91,0,7.81-.48,9.86-3.96l.09-.14c.28-.54.78-3.28.78-8.16v-10.58c0-5.05-.55-7.71-.81-8.21-2.14-3.56-6.17-4.04-10.2-4.04-.49,0-.96,0-1.4.01-.42,0-.82.01-1.18.01h-27.4c-.37,0-.76,0-1.18-.01-.44,0-.91-.01-1.4-.01-4.04,0-8.06.48-10.16,3.96l-.08.12s-.78,1.44-.78,8.16v10.58c0,4.9.49,7.63.8,8.2l.06.1c2.06,3.48,5.96,3.96,9.87,3.96.55,0,1.07,0,1.56-.02.46,0,.9-.02,1.31-.02h27.4Z"/><path class="cls-1" d="m642.29,208.41c-6.28,0-22.95,0-30.78-7.75-6.56-6.5-7.32-18.34-7.32-26.68v-17.23c-.03-6-.09-17.16,7.36-24.21,7.71-7.52,19.4-7.52,27.93-7.52h42.41c9.5,0,21.32,0,29.34,7.51,6.59,6.03,6.46,17.01,6.38,23.57,0,.61-.01,1.18-.01,1.69v16.19c0,.68,0,1.41.02,2.18.09,7.16.23,17.99-6.34,24.49-6.47,6.4-20.31,7.75-30.78,7.75h-38.2Zm32.3-24.09c.4,0,.84,0,1.31.02.49,0,1.02.02,1.56.02,3.91,0,7.81-.48,9.86-3.98l.09-.14c.28-.54.78-3.3.78-8.2v-10.63c0-5.07-.55-7.75-.81-8.25-2.14-3.58-6.17-4.06-10.2-4.06-.49,0-.96,0-1.4.01-.42,0-.82.01-1.18.01h-27.4c-.37,0-.76,0-1.18-.01-.44,0-.91-.01-1.4-.01-4.04,0-8.06.48-10.16,3.98l-.08.12s-.78,1.44-.78,8.2v10.63c0,4.92.49,7.67.8,8.24l.06.1c2.06,3.5,5.96,3.98,9.87,3.98.55,0,1.07,0,1.56-.02.46,0,.9-.02,1.31-.02h27.4Z"/><path class="cls-1" d="m641.49,207.84c-6.28,0-22.95,0-30.78-7.79-6.56-6.53-7.32-18.43-7.32-26.81v-17.32c-.03-6.03-.09-17.24,7.36-24.34,7.71-7.56,19.4-7.56,27.93-7.56h42.41c9.5,0,21.32,0,29.34,7.55,6.59,6.06,6.46,17.1,6.38,23.69,0,.61-.01,1.18-.01,1.7v16.27c0,.68,0,1.42.02,2.19.09,7.2.23,18.08-6.34,24.62-6.47,6.44-20.31,7.79-30.78,7.79h-38.2Zm32.3-24.21c.4,0,.84,0,1.31.02.49,0,1.02.02,1.56.02,3.91,0,7.81-.48,9.86-4l.09-.14c.28-.54.78-3.32.78-8.25v-10.68c0-5.1-.55-7.79-.81-8.3-2.14-3.59-6.17-4.08-10.2-4.08-.49,0-.96,0-1.4.01-.42,0-.82.01-1.18.01h-27.4c-.37,0-.76,0-1.18-.01-.44,0-.91-.01-1.4-.01-4.04,0-8.06.49-10.16,4l-.08.12s-.78,1.45-.78,8.25v10.68c0,4.94.49,7.71.8,8.29l.06.1c2.06,3.51,5.96,4,9.87,4,.55,0,1.07,0,1.56-.02.46,0,.9-.02,1.31-.02h27.4Z"/><path class="cls-1" d="m640.69,207.26c-6.28,0-22.95,0-30.78-7.83-6.56-6.56-7.32-18.52-7.32-26.95v-17.4c-.03-6.06-.09-17.33,7.36-24.46,7.71-7.59,19.4-7.59,27.93-7.59h42.41c9.5,0,21.32,0,29.34,7.58,6.59,6.09,6.46,17.18,6.38,23.81,0,.62-.01,1.19-.01,1.71v16.35c0,.69,0,1.42.02,2.21.09,7.24.23,18.17-6.34,24.74-6.47,6.47-20.31,7.83-30.78,7.83h-38.2Zm32.3-24.33c.4,0,.84,0,1.31.02.49,0,1.02.02,1.56.02,3.91,0,7.81-.49,9.86-4.02l.09-.14c.28-.55.78-3.33.78-8.29v-10.74c0-5.12-.55-7.83-.81-8.34-2.14-3.61-6.17-4.1-10.2-4.1-.49,0-.96,0-1.4.01-.42,0-.82.01-1.18.01h-27.4c-.37,0-.76,0-1.18-.01-.44,0-.91-.01-1.4-.01-4.04,0-8.06.49-10.16,4.02l-.08.13s-.78,1.46-.78,8.29v10.74c0,4.97.49,7.75.8,8.33l.06.1c2.06,3.53,5.96,4.02,9.87,4.02.55,0,1.07,0,1.56-.02.46,0,.9-.02,1.31-.02h27.4Z"/><path class="cls-1" d="m639.89,206.68c-6.28,0-22.95,0-30.78-7.87-6.56-6.6-7.32-18.62-7.32-27.08v-17.49c-.03-6.09-.09-17.42,7.36-24.58,7.71-7.63,19.4-7.63,27.93-7.63h42.41c9.5,0,21.32,0,29.34,7.62,6.59,6.12,6.46,17.27,6.38,23.93,0,.62-.01,1.19-.01,1.72v16.44c0,.69,0,1.43.02,2.22.09,7.27.23,18.26-6.34,24.87-6.47,6.5-20.31,7.87-30.78,7.87h-38.2Zm32.3-24.45c.4,0,.84,0,1.31.02.49,0,1.02.02,1.56.02,3.91,0,7.81-.49,9.86-4.04l.09-.14c.28-.55.78-3.35.78-8.33v-10.79c0-5.15-.55-7.87-.81-8.38-2.14-3.63-6.17-4.12-10.2-4.12-.49,0-.96,0-1.4.01-.42,0-.82.01-1.18.01h-27.4c-.37,0-.76,0-1.18-.01-.44,0-.91-.01-1.4-.01-4.04,0-8.06.49-10.16,4.05l-.08.13s-.78,1.47-.78,8.33v10.79c0,4.99.49,7.78.8,8.37l.06.1c2.06,3.55,5.96,4.04,9.87,4.04.55,0,1.07,0,1.56-.02.46,0,.9-.02,1.31-.02h27.4Z"/><path class="cls-1" d="m639.09,206.1c-6.28,0-22.95,0-30.78-7.91-6.56-6.63-7.32-18.71-7.32-27.22v-17.58c-.03-6.12-.09-17.5,7.36-24.7,7.71-7.67,19.4-7.67,27.93-7.67h42.41c9.5,0,21.32,0,29.34,7.66,6.59,6.15,6.46,17.36,6.38,24.05,0,.62-.01,1.2-.01,1.72v16.52c0,.69,0,1.44.02,2.23.09,7.31.23,18.36-6.34,24.99-6.47,6.53-20.31,7.91-30.78,7.91h-38.2Zm32.3-24.58c.4,0,.84,0,1.31.02.49,0,1.02.02,1.56.02,3.91,0,7.81-.49,9.86-4.06l.09-.14c.28-.55.78-3.37.78-8.37v-10.85c0-5.18-.55-7.91-.81-8.42-2.14-3.65-6.17-4.14-10.2-4.14-.49,0-.96,0-1.4.01-.42,0-.82.01-1.18.01h-27.4c-.37,0-.76,0-1.18-.01-.44,0-.91-.01-1.4-.01-4.04,0-8.06.49-10.16,4.07l-.08.13s-.78,1.47-.78,8.37v10.85c0,5.02.49,7.82.8,8.41l.06.1c2.06,3.57,5.96,4.06,9.87,4.06.55,0,1.07,0,1.56-.02.46,0,.9-.02,1.31-.02h27.4Z"/><path class="cls-1" d="m638.29,205.51c-6.28,0-22.95,0-30.78-7.95-6.56-6.66-7.32-18.8-7.32-27.36v-17.67c-.03-6.15-.09-17.59,7.36-24.83,7.71-7.71,19.4-7.71,27.93-7.71h42.41c9.5,0,21.32,0,29.34,7.7,6.59,6.18,6.46,17.44,6.38,24.17,0,.63-.01,1.21-.01,1.73v16.6c0,.7,0,1.45.02,2.24.09,7.35.23,18.45-6.34,25.12-6.47,6.57-20.31,7.95-30.78,7.95h-38.2Zm32.3-24.7c.4,0,.84,0,1.31.02.49,0,1.02.02,1.56.02,3.91,0,7.81-.49,9.86-4.08l.09-.14c.28-.56.78-3.38.78-8.41v-10.9c0-5.2-.55-7.95-.81-8.46-2.14-3.67-6.17-4.16-10.2-4.16-.49,0-.96,0-1.4.01-.42,0-.82.01-1.18.01h-27.4c-.37,0-.76,0-1.18-.01-.44,0-.91-.01-1.4-.01-4.04,0-8.06.5-10.16,4.09l-.08.13s-.78,1.48-.78,8.41v10.9c0,5.04.49,7.86.8,8.45l.06.1c2.06,3.58,5.96,4.08,9.87,4.08.55,0,1.07,0,1.56-.02.46,0,.9-.02,1.31-.02h27.4Z"/></g><path class="cls-2" d="m609.29,195.81c-6.5-6.6-6.6-20.2-6.6-25.6v-16.6c0-5.8-.5-17.2,6.6-24.1,7.3-7.3,18.8-7,28.4-7h39.4c9.6,0,21-.1,28.4,7,6.4,6,5.6,18.3,5.6,24.1v16.6c0,6.9.9,19-5.6,25.6-6.8,6.9-23.4,7.2-29,7.2h-38.2c-7.5,0-22.2-.3-29-7.2Zm76.21-17.8c.8-1.2,1.2-5.3,1.2-9.8v-10.9c0-4.4-.4-8.6-1.2-9.8-3.5-6-10.9-5.3-14.9-5.3h-27.4c-4,0-11.4-.7-14.9,5.3-.8,1.2-1.2,4.8-1.2,9.8v10.9c0,4.6.4,8.6,1.2,9.8,3.5,6.1,10.9,5.3,14.9,5.3h27.4c4,0,11.4.8,14.9-5.3Z"/></g><g><g><path class="cls-1" d="m8.2,331.24v-81.32h72.3c5.3,0,21.43,0,28.08,9.42,4.13,5.63,4.51,18.19,2.54,22.77-1.38,3.47-3.4,5.61-5.99,7.25,3.42,1.29,6.48,3.5,8.49,8.16,2.25,5.55,2.27,18.74-2.26,24.98-4.22,5.79-13.12,8.73-26.46,8.73H8.2Zm69.5-23.49c.36,0,.74,0,1.14.01.39,0,.8.01,1.22.01,2.9,0,4.37-.42,5.04-1.43.32-.81.32-3.51-.01-4.26-1.17-2.07-5.91-2.07-7.47-2.07-.53,0-1.03,0-1.49.02-.41,0-.79.01-1.12.01h-37.4v7.7h40.1Zm-4.7-26.82h2.14c2.88.01,5.97-.21,7.05-1.84.9-1.41.58-3.09.21-3.63l-.07-.12c-1.16-1.96-5.73-1.96-7.23-1.96-.54,0-1.06,0-1.53.02-.42,0-.82.01-1.16.01h-34.8v7.51h35.4Z"/><path class="cls-1" d="m7.4,330.68v-81.73h72.3c5.3,0,21.43,0,28.08,9.47,4.13,5.66,4.51,18.28,2.54,22.89-1.38,3.49-3.4,5.63-5.99,7.29,3.42,1.29,6.48,3.51,8.49,8.2,2.25,5.58,2.27,18.83-2.26,25.11-4.22,5.82-13.12,8.78-26.46,8.78H7.4Zm69.5-23.61c.36,0,.74,0,1.14.01.39,0,.8.01,1.22.01,2.9,0,4.37-.42,5.04-1.44.32-.81.32-3.53-.01-4.28-1.17-2.08-5.91-2.08-7.47-2.08-.53,0-1.03,0-1.49.02-.41,0-.79.01-1.12.01h-37.4v7.74h40.1Zm-4.7-26.96h2.14c2.88.01,5.97-.21,7.05-1.84.9-1.41.58-3.11.21-3.65l-.07-.12c-1.16-1.97-5.73-1.97-7.23-1.97-.54,0-1.06,0-1.53.02-.42,0-.82.01-1.16.01h-34.8v7.55h35.4Z"/><path class="cls-1" d="m6.6,330.12v-82.14h72.3c5.3,0,21.43,0,28.08,9.52,4.13,5.69,4.51,18.37,2.54,23-1.38,3.51-3.4,5.66-5.99,7.33,3.42,1.3,6.48,3.53,8.49,8.24,2.25,5.61,2.27,18.93-2.26,25.24-4.22,5.85-13.12,8.82-26.46,8.82H6.6Zm69.5-23.73c.36,0,.74,0,1.14.01.39,0,.8.01,1.22.01,2.9,0,4.37-.42,5.04-1.45.32-.81.32-3.54-.01-4.3-1.17-2.09-5.91-2.09-7.47-2.09-.53,0-1.03,0-1.49.02-.41,0-.79.01-1.12.01h-37.4v7.78h40.1Zm-4.7-27.09h2.14c2.88.01,5.97-.21,7.05-1.85.9-1.42.58-3.12.21-3.67l-.07-.12c-1.16-1.98-5.73-1.98-7.23-1.98-.54,0-1.06,0-1.53.02-.42,0-.82.01-1.16.01h-34.8v7.59h35.4Z"/><path class="cls-1" d="m5.8,329.55v-82.56h72.3c5.3,0,21.43,0,28.08,9.57,4.13,5.72,4.51,18.46,2.54,23.12-1.38,3.53-3.4,5.69-5.99,7.36,3.42,1.31,6.48,3.55,8.49,8.28,2.25,5.64,2.27,19.02-2.26,25.36-4.22,5.88-13.12,8.86-26.46,8.86H5.8Zm69.5-23.85c.36,0,.74,0,1.14.01.39,0,.8.01,1.22.01,2.9,0,4.37-.42,5.04-1.45.32-.82.32-3.56-.01-4.33-1.17-2.1-5.91-2.1-7.47-2.1-.53,0-1.03,0-1.49.02-.41,0-.79.01-1.12.01h-37.4v7.82h40.1Zm-4.7-27.23h2.14c2.88.01,5.97-.21,7.05-1.86.9-1.43.58-3.14.21-3.69l-.07-.12c-1.16-1.99-5.73-1.99-7.23-1.99-.54,0-1.06,0-1.53.02-.42,0-.82.01-1.16.01h-34.8v7.63h35.4Z"/><path class="cls-1" d="m5,328.98v-82.97h72.3c5.3,0,21.43,0,28.08,9.61,4.13,5.75,4.51,18.56,2.54,23.23-1.38,3.54-3.4,5.72-5.99,7.4,3.42,1.31,6.48,3.57,8.49,8.33,2.25,5.66,2.27,19.12-2.26,25.49-4.22,5.91-13.12,8.91-26.46,8.91H5Zm69.5-23.97c.36,0,.74,0,1.14.01.39,0,.8.01,1.22.01,2.9,0,4.37-.42,5.04-1.46.32-.82.32-3.58-.01-4.35-1.17-2.11-5.91-2.11-7.47-2.11-.53,0-1.03,0-1.49.02-.41,0-.79.01-1.12.01h-37.4v7.86h40.1Zm-4.7-27.37h2.14c2.88.01,5.97-.21,7.05-1.87.9-1.44.58-3.15.21-3.71l-.07-.12c-1.16-2-5.73-2-7.23-2-.54,0-1.06,0-1.53.02-.42,0-.82.01-1.16.01h-34.8v7.67h35.4Z"/><path class="cls-1" d="m4.2,328.41v-83.39h72.3c5.3,0,21.43,0,28.08,9.66,4.13,5.78,4.51,18.65,2.54,23.35-1.38,3.56-3.4,5.75-5.99,7.44,3.42,1.32,6.48,3.58,8.49,8.37,2.25,5.69,2.27,19.22-2.26,25.62-4.22,5.94-13.12,8.95-26.46,8.95H4.2Zm69.5-24.09c.36,0,.74,0,1.14.01.39,0,.8.01,1.22.01,2.9,0,4.37-.43,5.04-1.47.32-.83.32-3.6-.01-4.37-1.17-2.12-5.91-2.12-7.47-2.12-.53,0-1.03,0-1.49.02-.41,0-.79.01-1.12.01h-37.4v7.9h40.1Zm-4.7-27.5h2.14c2.88.01,5.97-.21,7.05-1.88.9-1.44.58-3.17.21-3.73l-.07-.12c-1.16-2.01-5.73-2.01-7.23-2.01-.54,0-1.06,0-1.53.02-.42,0-.82.01-1.16.01h-34.8v7.7h35.4Z"/><path class="cls-1" d="m3.4,327.84v-83.81h72.3c5.3,0,21.43,0,28.08,9.71,4.13,5.8,4.51,18.74,2.54,23.47-1.38,3.58-3.4,5.78-5.99,7.47,3.42,1.33,6.48,3.6,8.49,8.41,2.25,5.72,2.27,19.31-2.26,25.75-4.22,5.97-13.12,9-26.46,9H3.4Zm69.5-24.21c.36,0,.74,0,1.14.01.39,0,.8.01,1.22.01,2.9,0,4.37-.43,5.04-1.48.32-.83.32-3.62-.01-4.39-1.17-2.13-5.91-2.13-7.47-2.13-.53,0-1.03,0-1.49.02-.41,0-.79.01-1.12.01h-37.4v7.94h40.1Zm-4.7-27.64h2.14c2.88.01,5.97-.21,7.05-1.89.9-1.45.58-3.19.21-3.74l-.07-.12c-1.16-2.02-5.73-2.02-7.23-2.02-.54,0-1.06,0-1.53.02-.42,0-.82.01-1.16.01h-34.8v7.74h35.4Z"/><path class="cls-1" d="m2.6,327.26v-84.23h72.3c5.3,0,21.43,0,28.08,9.76,4.13,5.83,4.51,18.84,2.54,23.59-1.38,3.6-3.4,5.81-5.99,7.51,3.42,1.33,6.48,3.62,8.49,8.45,2.25,5.75,2.27,19.41-2.26,25.88-4.22,6-13.12,9.04-26.46,9.04H2.6Zm69.5-24.33c.36,0,.74,0,1.14.01.39,0,.8.01,1.22.01,2.9,0,4.37-.43,5.04-1.48.32-.84.32-3.63-.01-4.41-1.17-2.14-5.91-2.14-7.47-2.14-.53,0-1.03,0-1.49.02-.41,0-.79.01-1.12.01h-37.4v7.98h40.1Zm-4.7-27.78h2.14c2.88.01,5.97-.21,7.05-1.9.9-1.46.58-3.2.21-3.76l-.07-.12c-1.16-2.03-5.73-2.03-7.23-2.03-.54,0-1.06,0-1.53.02-.42,0-.82.01-1.16.01h-34.8v7.78h35.4Z"/><path class="cls-1" d="m1.8,326.68v-84.65h72.3c5.3,0,21.43,0,28.08,9.81,4.13,5.86,4.51,18.93,2.54,23.7-1.38,3.62-3.4,5.83-5.99,7.55,3.42,1.34,6.48,3.64,8.49,8.49,2.25,5.78,2.27,19.51-2.26,26.01-4.22,6.03-13.12,9.09-26.46,9.09H1.8Zm69.5-24.45c.36,0,.74,0,1.14.01.39,0,.8.01,1.22.01,2.9,0,4.37-.43,5.04-1.49.32-.84.32-3.65-.01-4.43-1.17-2.15-5.91-2.15-7.47-2.15-.53,0-1.03,0-1.49.02-.41,0-.79.01-1.12.01H31.2v8.02h40.1Zm-4.7-27.92h2.14c2.88.01,5.97-.21,7.05-1.91.9-1.46.58-3.22.21-3.78l-.07-.12c-1.16-2.04-5.73-2.04-7.23-2.04-.54,0-1.06,0-1.53.02-.42,0-.82.01-1.16.01H31.2v7.82h35.4Z"/><path class="cls-1" d="m1,326.1v-85.08h72.3c5.3,0,21.43,0,28.08,9.86,4.13,5.89,4.51,19.03,2.54,23.82-1.38,3.63-3.4,5.86-5.99,7.59,3.42,1.35,6.48,3.66,8.49,8.54,2.25,5.81,2.27,19.6-2.26,26.14-4.22,6.06-13.12,9.13-26.46,9.13H1Zm69.5-24.58c.36,0,.74,0,1.14.01.39,0,.8.01,1.22.01,2.9,0,4.37-.44,5.04-1.5.32-.84.32-3.67-.01-4.46-1.17-2.16-5.91-2.16-7.47-2.16-.53,0-1.03,0-1.49.02-.41,0-.79.01-1.12.01H30.4v8.06h40.1Zm-4.7-28.06h2.14c2.88.01,5.97-.22,7.05-1.92.9-1.47.58-3.23.21-3.8l-.07-.12c-1.16-2.05-5.73-2.05-7.23-2.05-.54,0-1.06,0-1.53.02-.42,0-.82.01-1.16.01H30.4v7.86h35.4Z"/><path class="cls-1" d="m.2,325.51v-85.5h72.3c5.3,0,21.43,0,28.08,9.91,4.13,5.92,4.51,19.12,2.54,23.94-1.38,3.65-3.4,5.89-5.99,7.63,3.42,1.35,6.48,3.68,8.49,8.58,2.25,5.84,2.27,19.7-2.26,26.27-4.22,6.09-13.12,9.18-26.46,9.18H.2Zm69.5-24.7c.36,0,.74,0,1.14.01.39,0,.8.01,1.22.01,2.9,0,4.37-.44,5.04-1.5.32-.85.32-3.69-.01-4.48-1.17-2.17-5.91-2.17-7.47-2.17-.53,0-1.03,0-1.49.02-.41,0-.79.01-1.12.01H29.6v8.1h40.1Zm-4.7-28.2h2.14c2.88.01,5.97-.22,7.05-1.93.9-1.48.58-3.25.21-3.82l-.07-.12c-1.16-2.06-5.73-2.06-7.23-2.06-.54,0-1.06,0-1.53.02-.42,0-.82.01-1.16.01H29.6v7.9h35.4Z"/></g><path class="cls-3" d="m72.5,242.5c5.8,0,20.3.3,26,8.8,3.7,5.3,3.9,17.7,2.3,21.6-2,5.3-5.5,7.1-10.5,9.3,5.6,1.2,10.3,2.2,13,8.8,2,5.2,2,18.1-2,23.9-5.4,7.8-19.5,8.1-24.4,8.1H2.7v-80.5h69.8Zm-7.5,32.6c3.5,0,9.1.4,11.3-3.1,1.4-2.3,1.1-5.1.2-6.5-2.2-3.9-9-3.3-12.1-3.3H27.1v12.9h37.9Zm14.3,25.4c.7-1.3.7-5.5,0-6.8-2.2-4.1-9.2-3.5-12.3-3.5H27.1v13.1h42.6c3.1,0,7.7.5,9.6-2.8Z"/></g><g><g><path class="cls-1" d="m206.83,331.24l-8-13.79h-46.39l-7.3,13.79h-32.71l45.57-81.32h34.89l46.31,81.32h-32.37Zm-19.87-34.62l-11.52-20.8-11.16,20.8h22.68Z"/><path class="cls-1" d="m206.03,330.68l-8-13.86h-46.39l-7.3,13.86h-32.71l45.57-81.73h34.89l46.31,81.73h-32.37Zm-19.87-34.8l-11.52-20.91-11.16,20.91h22.68Z"/><path class="cls-1" d="m205.23,330.12l-8-13.93h-46.39l-7.3,13.93h-32.71l45.57-82.14h34.89l46.31,82.14h-32.37Zm-19.87-34.97l-11.52-21.01-11.16,21.01h22.68Z"/><path class="cls-1" d="m204.43,329.55l-8-14h-46.39l-7.3,14h-32.71l45.57-82.56h34.89l46.31,82.56h-32.37Zm-19.87-35.15l-11.52-21.12-11.16,21.12h22.68Z"/><path class="cls-1" d="m203.63,328.98l-8-14.07h-46.39l-7.3,14.07h-32.71l45.57-82.97h34.89l46.31,82.97h-32.37Zm-19.87-35.32l-11.52-21.22-11.16,21.22h22.68Z"/><path class="cls-1" d="m202.83,328.41l-8-14.14h-46.39l-7.3,14.14h-32.71l45.57-83.39h34.89l46.31,83.39h-32.37Zm-19.87-35.5l-11.52-21.33-11.16,21.33h22.68Z"/><path class="cls-1" d="m202.03,327.84l-8-14.21h-46.39l-7.3,14.21h-32.71l45.57-83.81h34.89l46.31,83.81h-32.37Zm-19.87-35.68l-11.52-21.44-11.16,21.44h22.68Z"/><path class="cls-1" d="m201.23,327.26l-8-14.28h-46.39l-7.3,14.28h-32.71l45.57-84.23h34.89l46.31,84.23h-32.37Zm-19.87-35.86l-11.52-21.54-11.16,21.54h22.68Z"/><path class="cls-1" d="m200.43,326.68l-8-14.36h-46.39l-7.3,14.36h-32.71l45.57-84.65h34.89l46.31,84.65h-32.37Zm-19.87-36.04l-11.52-21.65-11.16,21.65h22.68Z"/><path class="cls-1" d="m199.63,326.1l-8-14.43h-46.39l-7.3,14.43h-32.71l45.57-85.08h34.89l46.31,85.08h-32.37Zm-19.87-36.22l-11.52-21.76-11.16,21.76h22.68Z"/><path class="cls-1" d="m198.83,325.51l-8-14.5h-46.39l-7.3,14.5h-32.71l45.57-85.5h34.89l46.31,85.5h-32.37Zm-19.87-36.4l-11.52-21.87-11.16,21.87h22.68Z"/></g><path class="cls-3" d="m183.41,242.5l43.6,80.5h-26.7l-8-14.5h-49.4l-7.3,14.5h-27l42.9-80.5h31.9Zm-.3,49.1l-15.7-29.8-15.2,29.8h30.9Z"/></g><g><g><path class="cls-1" d="m314,331.24v-2.38c0-1.17,0-2.3.02-3.39.04-5.71.09-11.1-1.59-12.53l-.1-.09c-.72-.68-2.81-1.5-8.67-1.5h-1.96s-31.2.01-31.2.01v19.88h-29.4v-81.32h74.86c7.08,0,16.78,0,22.92,7.58,5.53,6.76,5.8,24.84,3.82,31.32-1.5,5.51-4.57,8.17-8.07,9.93.32.15.63.31.94.48,8.06,4.7,7.93,15.12,7.85,22.02,0,.64-.02,1.25-.02,1.81v8.18h-29.4Zm-9.5-44.32c2.3,0,8.35,0,10.11-2.55.75-1.15.83-6.69-.13-8.44-1.25-2.28-5.57-2.55-8.71-2.55-.52,0-1.01,0-1.47.01-.4,0-.78.01-1.11.01h-32.7v13.51s34,0,34.01,0Z"/><path class="cls-1" d="m313.2,330.68v-2.39c0-1.18,0-2.32.02-3.41.04-5.74.09-11.16-1.59-12.59l-.1-.09c-.72-.69-2.81-1.51-8.67-1.51h-1.96s-31.2.01-31.2.01v19.98h-29.4v-81.73h74.86c7.08,0,16.78,0,22.92,7.62,5.53,6.79,5.8,24.97,3.82,31.47-1.5,5.53-4.57,8.21-8.07,9.98.32.15.63.31.94.49,8.06,4.73,7.93,15.2,7.85,22.13,0,.64-.02,1.25-.02,1.82v8.22h-29.4Zm-9.5-44.54c2.3,0,8.35,0,10.11-2.56.75-1.16.83-6.73-.13-8.48-1.25-2.3-5.57-2.56-8.71-2.56-.52,0-1.01,0-1.47.01-.4,0-.78.01-1.11.01h-32.7v13.57s34,0,34.01,0Z"/><path class="cls-1" d="m312.4,330.12v-2.4c0-1.18,0-2.33.02-3.43.04-5.77.09-11.21-1.59-12.66l-.1-.09c-.72-.69-2.81-1.52-8.67-1.52h-1.96s-31.2.01-31.2.01v20.08h-29.4v-82.14h74.86c7.08,0,16.78,0,22.92,7.66,5.53,6.83,5.8,25.09,3.82,31.63-1.5,5.56-4.57,8.26-8.07,10.03.32.15.63.32.94.49,8.06,4.75,7.93,15.27,7.85,22.24,0,.65-.02,1.26-.02,1.83v8.26h-29.4Zm-9.5-44.77c2.3,0,8.35,0,10.11-2.57.75-1.17.83-6.76-.13-8.52-1.25-2.31-5.57-2.57-8.71-2.57-.52,0-1.01,0-1.47.01-.4,0-.78.01-1.11.01h-32.7v13.64s34,0,34.01,0Z"/><path class="cls-1" d="m311.6,329.55v-2.41c0-1.19,0-2.34.02-3.44.04-5.8.09-11.27-1.59-12.72l-.1-.09c-.72-.69-2.81-1.52-8.67-1.52h-1.96s-31.2.01-31.2.01v20.18h-29.4v-82.56h74.86c7.08,0,16.78,0,22.92,7.7,5.53,6.86,5.8,25.22,3.82,31.79-1.5,5.59-4.57,8.3-8.07,10.08.32.15.63.32.94.49,8.06,4.77,7.93,15.35,7.85,22.35,0,.65-.02,1.27-.02,1.84v8.3h-29.4Zm-9.5-44.99c2.3,0,8.35,0,10.11-2.59.75-1.17.83-6.79-.13-8.57-1.25-2.32-5.57-2.59-8.71-2.59-.52,0-1.01,0-1.47.01-.4,0-.78.01-1.11.01h-32.7v13.71s34,0,34.01,0Z"/><path class="cls-1" d="m310.8,328.98v-2.43c0-1.2,0-2.35.02-3.46.04-5.83.09-11.33-1.59-12.78l-.1-.09c-.72-.7-2.81-1.53-8.67-1.53h-1.96s-31.2.01-31.2.01v20.28h-29.4v-82.97h74.86c7.08,0,16.78,0,22.92,7.74,5.53,6.9,5.8,25.35,3.82,31.95-1.5,5.62-4.57,8.34-8.07,10.13.32.15.63.32.94.49,8.06,4.8,7.93,15.43,7.85,22.46,0,.65-.02,1.27-.02,1.85v8.35h-29.4Zm-9.5-45.22c2.3,0,8.35,0,10.11-2.6.75-1.18.83-6.83-.13-8.61-1.25-2.33-5.57-2.6-8.71-2.6-.52,0-1.01,0-1.47.01-.4,0-.78.01-1.11.01h-32.7v13.78s34,0,34.01,0Z"/><path class="cls-1" d="m310,328.41v-2.44c0-1.2,0-2.36.02-3.48.04-5.85.09-11.38-1.59-12.85l-.1-.09c-.72-.7-2.81-1.54-8.67-1.54h-1.96s-31.2.01-31.2.01v20.38h-29.4v-83.39h74.86c7.08,0,16.78,0,22.92,7.78,5.53,6.93,5.8,25.47,3.82,32.11-1.5,5.65-4.57,8.38-8.07,10.18.32.16.63.32.94.5,8.06,4.82,7.93,15.5,7.85,22.57,0,.66-.02,1.28-.02,1.86v8.39h-29.4Zm-9.5-45.44c2.3,0,8.35,0,10.11-2.61.75-1.18.83-6.86-.13-8.65-1.25-2.34-5.57-2.61-8.71-2.61-.52,0-1.01,0-1.47.01-.4,0-.78.01-1.11.01h-32.7v13.85s34,0,34.01,0Z"/><path class="cls-1" d="m309.2,327.84v-2.45c0-1.21,0-2.37.02-3.49.04-5.88.09-11.44-1.59-12.91l-.1-.09c-.72-.71-2.81-1.55-8.67-1.55h-1.96s-31.2.01-31.2.01v20.49h-29.4v-83.81h74.86c7.08,0,16.78,0,22.92,7.82,5.53,6.97,5.8,25.6,3.82,32.27-1.5,5.67-4.57,8.42-8.07,10.23.32.16.63.32.94.5,8.06,4.85,7.93,15.58,7.85,22.69,0,.66-.02,1.29-.02,1.87v8.43h-29.4Zm-9.5-45.67c2.3,0,8.35,0,10.11-2.63.75-1.19.83-6.9-.13-8.7-1.25-2.35-5.57-2.63-8.71-2.63-.52,0-1.01,0-1.47.01-.4,0-.78.01-1.11.01h-32.7v13.92s34,0,34.01,0Z"/><path class="cls-1" d="m308.4,327.26v-2.46c0-1.21,0-2.39.02-3.51.04-5.91.09-11.5-1.59-12.98l-.1-.09c-.72-.71-2.81-1.55-8.67-1.55h-1.96s-31.2.01-31.2.01v20.59h-29.4v-84.23h74.86c7.08,0,16.78,0,22.92,7.86,5.53,7,5.8,25.73,3.82,32.43-1.5,5.7-4.57,8.46-8.07,10.28.32.16.63.32.94.5,8.06,4.87,7.93,15.66,7.85,22.8,0,.66-.02,1.29-.02,1.88v8.47h-29.4Zm-9.5-45.9c2.3,0,8.35,0,10.11-2.64.75-1.19.83-6.93-.13-8.74-1.25-2.37-5.57-2.64-8.71-2.64-.52,0-1.01,0-1.47.01-.4,0-.78.01-1.11.01h-32.7v13.99s34,0,34.01,0Z"/><path class="cls-1" d="m307.6,326.68v-2.48c0-1.22,0-2.4.02-3.53.04-5.94.09-11.56-1.59-13.04l-.1-.09c-.72-.71-2.81-1.56-8.67-1.56h-1.96s-31.2.01-31.2.01v20.69h-29.4v-84.65h74.86c7.08,0,16.78,0,22.92,7.9,5.53,7.04,5.8,25.86,3.82,32.6-1.5,5.73-4.57,8.51-8.07,10.34.32.16.63.32.94.5,8.06,4.89,7.93,15.74,7.85,22.92,0,.67-.02,1.3-.02,1.89v8.51h-29.4Zm-9.5-46.13c2.3,0,8.35,0,10.11-2.65.75-1.2.83-6.97-.13-8.78-1.25-2.38-5.57-2.65-8.71-2.65-.52,0-1.01,0-1.47.01-.4,0-.78.01-1.11.01h-32.7v14.06s34,0,34.01,0Z"/><path class="cls-1" d="m306.8,326.1v-2.49c0-1.23,0-2.41.02-3.55.04-5.97.09-11.62-1.59-13.11l-.1-.09c-.72-.72-2.81-1.57-8.67-1.57h-1.96s-31.2.01-31.2.01v20.8h-29.4v-85.08h74.86c7.08,0,16.78,0,22.92,7.93,5.53,7.07,5.8,25.99,3.82,32.76-1.5,5.76-4.57,8.55-8.07,10.39.32.16.63.33.94.51,8.06,4.92,7.93,15.82,7.85,23.03,0,.67-.02,1.3-.02,1.9v8.56h-29.4Zm-9.5-46.36c2.3,0,8.35,0,10.11-2.67.75-1.21.83-7-.13-8.83-1.25-2.39-5.57-2.67-8.71-2.67-.52,0-1.01,0-1.47.01-.4,0-.78.01-1.11.01h-32.7v14.13s34,0,34.01,0Z"/><path class="cls-1" d="m306,325.51v-2.5c0-1.23,0-2.42.02-3.57.04-6,.09-11.67-1.59-13.17l-.1-.09c-.72-.72-2.81-1.58-8.67-1.58h-1.96s-31.2.01-31.2.01v20.9h-29.4v-85.5h74.86c7.08,0,16.78,0,22.92,7.97,5.53,7.11,5.8,26.12,3.82,32.92-1.5,5.79-4.57,8.59-8.07,10.44.32.16.63.33.94.51,8.06,4.94,7.93,15.9,7.85,23.15,0,.67-.02,1.31-.02,1.91v8.6h-29.4Zm-9.5-46.6c2.3,0,8.35,0,10.11-2.68.75-1.21.83-7.04-.13-8.87-1.25-2.4-5.57-2.68-8.71-2.68-.52,0-1.01,0-1.47.01-.4,0-.78.01-1.11.01h-32.7v14.2s34,0,34.01,0Z"/></g><path class="cls-3" d="m328.91,249.5c4.9,6.3,5.2,24.5,3.4,30.7-2,7.7-6.8,9.1-12.5,11.3,2.9.9,4.8,1.5,6.5,2.5,7.5,4.6,6.6,16.3,6.6,22.9v6.1h-24.4c0-9.2.5-16-2.4-18.6-2.6-2.6-9.6-2.3-12.4-2.3h-33.7v20.9h-24.4v-80.5h69.8c8.7,0,17.8-.4,23.5,7Zm-33.9,31.9c3.4,0,11,.3,13.7-3.8,1.3-2.1,1.3-8.9,0-11.4-2.4-4.6-10.1-4-13.5-4h-35.2v19.2h35Z"/></g><g><g><path class="cls-1" d="m352.3,331.24v-81.32h72.3c5.3,0,21.43,0,28.08,9.42,4.13,5.63,4.51,18.19,2.54,22.77-1.38,3.47-3.4,5.61-5.99,7.25,3.42,1.29,6.48,3.5,8.49,8.16,2.25,5.55,2.27,18.74-2.26,24.98-4.22,5.8-13.12,8.73-26.46,8.73h-76.7Zm69.5-23.49c.36,0,.74,0,1.14.01.39,0,.8.01,1.22.01,2.9,0,4.37-.42,5.04-1.43.32-.81.32-3.51-.01-4.26-1.17-2.07-5.91-2.07-7.47-2.07-.53,0-1.03,0-1.49.02-.41,0-.79.01-1.12.01h-37.4v7.7h40.1Zm-4.7-26.82h2.14c2.88.01,5.97-.21,7.05-1.84.9-1.41.58-3.09.21-3.63l-.07-.12c-1.16-1.96-5.73-1.96-7.23-1.96-.54,0-1.06,0-1.53.02-.42,0-.82.01-1.16.01h-34.8v7.51h35.4Z"/><path class="cls-1" d="m351.5,330.68v-81.73h72.3c5.3,0,21.43,0,28.08,9.47,4.13,5.66,4.51,18.28,2.54,22.89-1.38,3.49-3.4,5.63-5.99,7.29,3.42,1.29,6.48,3.51,8.49,8.2,2.25,5.58,2.27,18.83-2.26,25.11-4.22,5.82-13.12,8.78-26.46,8.78h-76.7Zm69.5-23.61c.36,0,.74,0,1.14.01.39,0,.8.01,1.22.01,2.9,0,4.37-.42,5.04-1.44.32-.81.32-3.53-.01-4.28-1.17-2.08-5.91-2.08-7.47-2.08-.53,0-1.03,0-1.49.02-.41,0-.79.01-1.12.01h-37.4v7.74h40.1Zm-4.7-26.96h2.14c2.88.01,5.97-.21,7.05-1.84.9-1.41.58-3.11.21-3.65l-.07-.12c-1.16-1.97-5.73-1.97-7.23-1.97-.54,0-1.06,0-1.53.02-.42,0-.82.01-1.16.01h-34.8v7.55h35.4Z"/><path class="cls-1" d="m350.7,330.12v-82.14h72.3c5.3,0,21.43,0,28.08,9.52,4.13,5.69,4.51,18.37,2.54,23-1.38,3.51-3.4,5.66-5.99,7.33,3.42,1.3,6.48,3.53,8.49,8.24,2.25,5.61,2.27,18.93-2.26,25.23-4.22,5.85-13.12,8.82-26.46,8.82h-76.7Zm69.5-23.73c.36,0,.74,0,1.14.01.39,0,.8.01,1.22.01,2.9,0,4.37-.42,5.04-1.45.32-.81.32-3.54-.01-4.3-1.17-2.09-5.91-2.09-7.47-2.09-.53,0-1.03,0-1.49.02-.41,0-.79.01-1.12.01h-37.4v7.78h40.1Zm-4.7-27.09h2.14c2.88.01,5.97-.21,7.05-1.85.9-1.42.58-3.12.21-3.67l-.07-.12c-1.16-1.98-5.73-1.98-7.23-1.98-.54,0-1.06,0-1.53.02-.42,0-.82.01-1.16.01h-34.8v7.59h35.4Z"/><path class="cls-1" d="m349.9,329.55v-82.56h72.3c5.3,0,21.43,0,28.08,9.57,4.13,5.72,4.51,18.46,2.54,23.12-1.38,3.53-3.4,5.69-5.99,7.36,3.42,1.31,6.48,3.55,8.49,8.28,2.25,5.64,2.27,19.02-2.26,25.36-4.22,5.88-13.12,8.87-26.46,8.87h-76.7Zm69.5-23.85c.36,0,.74,0,1.14.01.39,0,.8.01,1.22.01,2.9,0,4.37-.42,5.04-1.45.32-.82.32-3.56-.01-4.33-1.17-2.1-5.91-2.1-7.47-2.1-.53,0-1.03,0-1.49.02-.41,0-.79.01-1.12.01h-37.4v7.82h40.1Zm-4.7-27.23h2.14c2.88.01,5.97-.21,7.05-1.86.9-1.43.58-3.14.21-3.69l-.07-.12c-1.16-1.99-5.73-1.99-7.23-1.99-.54,0-1.06,0-1.53.02-.42,0-.82.01-1.16.01h-34.8v7.63h35.4Z"/><path class="cls-1" d="m349.1,328.98v-82.97h72.3c5.3,0,21.43,0,28.08,9.61,4.13,5.75,4.51,18.56,2.54,23.23-1.38,3.54-3.4,5.72-5.99,7.4,3.42,1.31,6.48,3.57,8.49,8.33,2.25,5.66,2.27,19.12-2.26,25.49-4.22,5.91-13.12,8.91-26.46,8.91h-76.7Zm69.5-23.97c.36,0,.74,0,1.14.01.39,0,.8.01,1.22.01,2.9,0,4.37-.42,5.04-1.46.32-.82.32-3.58-.01-4.35-1.17-2.11-5.91-2.11-7.47-2.11-.53,0-1.03,0-1.49.02-.41,0-.79.01-1.12.01h-37.4v7.86h40.1Zm-4.7-27.37h2.14c2.88.01,5.97-.21,7.05-1.87.9-1.44.58-3.15.21-3.71l-.07-.12c-1.16-2-5.73-2-7.23-2-.54,0-1.06,0-1.53.02-.42,0-.82.01-1.16.01h-34.8v7.67h35.4Z"/><path class="cls-1" d="m348.3,328.41v-83.39h72.3c5.3,0,21.43,0,28.08,9.66,4.13,5.78,4.51,18.65,2.54,23.35-1.38,3.56-3.4,5.75-5.99,7.44,3.42,1.32,6.48,3.58,8.49,8.37,2.25,5.69,2.27,19.22-2.26,25.62-4.22,5.94-13.12,8.95-26.46,8.95h-76.7Zm69.5-24.09c.36,0,.74,0,1.14.01.39,0,.8.01,1.22.01,2.9,0,4.37-.43,5.04-1.47.32-.83.32-3.6-.01-4.37-1.17-2.12-5.91-2.12-7.47-2.12-.53,0-1.03,0-1.49.02-.41,0-.79.01-1.12.01h-37.4v7.9h40.1Zm-4.7-27.5h2.14c2.88.01,5.97-.21,7.05-1.88.9-1.44.58-3.17.21-3.73l-.07-.12c-1.16-2.01-5.73-2.01-7.23-2.01-.54,0-1.06,0-1.53.02-.42,0-.82.01-1.16.01h-34.8v7.7h35.4Z"/><path class="cls-1" d="m347.5,327.84v-83.81h72.3c5.3,0,21.43,0,28.08,9.71,4.13,5.8,4.51,18.74,2.54,23.47-1.38,3.58-3.4,5.78-5.99,7.47,3.42,1.33,6.48,3.6,8.49,8.41,2.25,5.72,2.27,19.31-2.26,25.75-4.22,5.97-13.12,9-26.46,9h-76.7Zm69.5-24.21c.36,0,.74,0,1.14.01.39,0,.8.01,1.22.01,2.9,0,4.37-.43,5.04-1.48.32-.83.32-3.62-.01-4.39-1.17-2.13-5.91-2.13-7.47-2.13-.53,0-1.03,0-1.49.02-.41,0-.79.01-1.12.01h-37.4v7.94h40.1Zm-4.7-27.64h2.14c2.88.01,5.97-.21,7.05-1.89.9-1.45.58-3.19.21-3.74l-.07-.12c-1.16-2.02-5.73-2.02-7.23-2.02-.54,0-1.06,0-1.53.02-.42,0-.82.01-1.16.01h-34.8v7.74h35.4Z"/><path class="cls-1" d="m346.7,327.26v-84.23h72.3c5.3,0,21.43,0,28.08,9.76,4.13,5.83,4.51,18.84,2.54,23.59-1.38,3.6-3.4,5.81-5.99,7.51,3.42,1.33,6.48,3.62,8.49,8.45,2.25,5.75,2.27,19.41-2.26,25.87-4.22,6-13.12,9.04-26.46,9.04h-76.7Zm69.5-24.33c.36,0,.74,0,1.14.01.39,0,.8.01,1.22.01,2.9,0,4.37-.43,5.04-1.48.32-.84.32-3.63-.01-4.41-1.17-2.14-5.91-2.14-7.47-2.14-.53,0-1.03,0-1.49.02-.41,0-.79.01-1.12.01h-37.4v7.98h40.1Zm-4.7-27.78h2.14c2.88.01,5.97-.21,7.05-1.9.9-1.46.58-3.2.21-3.76l-.07-.12c-1.16-2.03-5.73-2.03-7.23-2.03-.54,0-1.06,0-1.53.02-.42,0-.82.01-1.16.01h-34.8v7.78h35.4Z"/><path class="cls-1" d="m345.9,326.68v-84.65h72.3c5.3,0,21.43,0,28.08,9.81,4.13,5.86,4.51,18.93,2.54,23.7-1.38,3.62-3.4,5.83-5.99,7.55,3.42,1.34,6.48,3.64,8.49,8.49,2.25,5.78,2.27,19.51-2.26,26-4.22,6.03-13.12,9.09-26.46,9.09h-76.7Zm69.5-24.45c.36,0,.74,0,1.14.01.39,0,.8.01,1.22.01,2.9,0,4.37-.43,5.04-1.49.32-.84.32-3.65-.01-4.43-1.17-2.15-5.91-2.15-7.47-2.15-.53,0-1.03,0-1.49.02-.41,0-.79.01-1.12.01h-37.4v8.02h40.1Zm-4.7-27.92h2.14c2.88.01,5.97-.21,7.05-1.91.9-1.46.58-3.22.21-3.78l-.07-.12c-1.16-2.04-5.73-2.04-7.23-2.04-.54,0-1.06,0-1.53.02-.42,0-.82.01-1.16.01h-34.8v7.82h35.4Z"/><path class="cls-1" d="m345.1,326.1v-85.08h72.3c5.3,0,21.43,0,28.08,9.86,4.13,5.89,4.51,19.03,2.54,23.82-1.38,3.63-3.4,5.86-5.99,7.59,3.42,1.35,6.48,3.66,8.49,8.54,2.25,5.81,2.27,19.6-2.26,26.14-4.22,6.06-13.12,9.14-26.46,9.14h-76.7Zm69.5-24.58c.36,0,.74,0,1.14.01.39,0,.8.01,1.22.01,2.9,0,4.37-.44,5.04-1.5.32-.84.32-3.67-.01-4.46-1.17-2.16-5.91-2.16-7.47-2.16-.53,0-1.03,0-1.49.02-.41,0-.79.01-1.12.01h-37.4v8.06h40.1Zm-4.7-28.06h2.14c2.88.01,5.97-.22,7.05-1.92.9-1.47.58-3.23.21-3.8l-.07-.12c-1.16-2.05-5.73-2.05-7.23-2.05-.54,0-1.06,0-1.53.02-.42,0-.82.01-1.16.01h-34.8v7.86h35.4Z"/><path class="cls-1" d="m344.3,325.51v-85.5h72.3c5.3,0,21.43,0,28.08,9.91,4.13,5.92,4.51,19.12,2.54,23.94-1.38,3.65-3.4,5.89-5.99,7.63,3.42,1.35,6.48,3.68,8.49,8.58,2.25,5.84,2.27,19.7-2.26,26.27-4.22,6.09-13.12,9.18-26.46,9.18h-76.7Zm69.5-24.7c.36,0,.74,0,1.14.01.39,0,.8.01,1.22.01,2.9,0,4.37-.44,5.04-1.5.32-.85.32-3.69-.01-4.48-1.17-2.17-5.91-2.17-7.47-2.17-.53,0-1.03,0-1.49.02-.41,0-.79.01-1.12.01h-37.4v8.1h40.1Zm-4.7-28.2h2.14c2.88.01,5.97-.22,7.05-1.93.9-1.48.58-3.25.21-3.82l-.07-.12c-1.16-2.06-5.73-2.06-7.23-2.06-.54,0-1.06,0-1.53.02-.42,0-.82.01-1.16.01h-34.8v7.9h35.4Z"/></g><path class="cls-3" d="m416.6,242.5c5.8,0,20.3.3,26,8.8,3.7,5.3,3.9,17.7,2.3,21.6-2,5.3-5.5,7.1-10.5,9.3,5.6,1.2,10.3,2.2,13,8.8,2,5.2,2,18.1-2,23.9-5.4,7.8-19.5,8.1-24.4,8.1h-74.2v-80.5h69.8Zm-7.5,32.6c3.5,0,9.1.4,11.3-3.1,1.4-2.3,1.1-5.1.2-6.5-2.2-3.9-9-3.3-12.1-3.3h-37.3v12.9h37.9Zm14.3,25.4c.7-1.3.7-5.5,0-6.8-2.2-4.1-9.2-3.5-12.3-3.5h-39.9v13.1h42.6c3.1,0,7.7.5,9.6-2.8Z"/></g><g><g><rect class="cls-1" x="466.3" y="249.92" width="29.4" height="81.32"/><rect class="cls-1" x="465.5" y="248.95" width="29.4" height="81.73"/><rect class="cls-1" x="464.7" y="247.97" width="29.4" height="82.14"/><rect class="cls-1" x="463.9" y="246.99" width="29.4" height="82.56"/><rect class="cls-1" x="463.1" y="246.01" width="29.4" height="82.97"/><rect class="cls-1" x="462.3" y="245.02" width="29.4" height="83.39"/><rect class="cls-1" x="461.5" y="244.03" width="29.4" height="83.81"/><rect class="cls-1" x="460.7" y="243.03" width="29.4" height="84.23"/><rect class="cls-1" x="459.9" y="242.03" width="29.4" height="84.65"/><rect class="cls-1" x="459.1" y="241.02" width="29.4" height="85.08"/><rect class="cls-1" x="458.3" y="240" width="29.4" height="85.5"/></g><path class="cls-3" d="m485.2,242.5v80.5h-24.4v-80.5h24.4Z"/></g><g><g><polygon class="cls-1" points="575.11 331.24 532.6 281.01 532.6 331.24 503.2 331.24 503.2 249.92 544.71 249.92 587.3 300.84 587.3 249.92 616.71 249.92 616.71 331.24 575.11 331.24"/><polygon class="cls-1" points="574.31 330.68 531.8 280.2 531.8 330.68 502.4 330.68 502.4 248.95 543.91 248.95 586.5 300.13 586.5 248.95 615.91 248.95 615.91 330.68 574.31 330.68"/><polygon class="cls-1" points="573.51 330.12 531 279.38 531 330.12 501.6 330.12 501.6 247.97 543.11 247.97 585.7 299.41 585.7 247.97 615.11 247.97 615.11 330.12 573.51 330.12"/><polygon class="cls-1" points="572.71 329.55 530.2 278.56 530.2 329.55 500.8 329.55 500.8 246.99 542.31 246.99 584.9 298.69 584.9 246.99 614.31 246.99 614.31 329.55 572.71 329.55"/><polygon class="cls-1" points="571.91 328.98 529.4 277.74 529.4 328.98 500 328.98 500 246.01 541.51 246.01 584.1 297.97 584.1 246.01 613.51 246.01 613.51 328.98 571.91 328.98"/><polygon class="cls-1" points="571.11 328.41 528.6 276.91 528.6 328.41 499.2 328.41 499.2 245.02 540.71 245.02 583.3 297.24 583.3 245.02 612.71 245.02 612.71 328.41 571.11 328.41"/><polygon class="cls-1" points="570.31 327.84 527.8 276.07 527.8 327.84 498.4 327.84 498.4 244.03 539.91 244.03 582.5 296.51 582.5 244.03 611.91 244.03 611.91 327.84 570.31 327.84"/><polygon class="cls-1" points="569.51 327.26 527 275.24 527 327.26 497.6 327.26 497.6 243.03 539.11 243.03 581.7 295.78 581.7 243.03 611.11 243.03 611.11 327.26 569.51 327.26"/><polygon class="cls-1" points="568.71 326.68 526.2 274.39 526.2 326.68 496.8 326.68 496.8 242.03 538.31 242.03 580.9 295.04 580.9 242.03 610.31 242.03 610.31 326.68 568.71 326.68"/><polygon class="cls-1" points="567.91 326.1 525.4 273.55 525.4 326.1 496 326.1 496 241.02 537.51 241.02 580.1 294.29 580.1 241.02 609.51 241.02 609.51 326.1 567.91 326.1"/><polygon class="cls-1" points="567.11 325.51 524.6 272.7 524.6 325.51 495.2 325.51 495.2 240 536.71 240 579.3 293.55 579.3 240 608.71 240 608.71 325.51 567.11 325.51"/></g><path class="cls-3" d="m535.5,242.5l46.3,58.2v-58.2h24.4v80.5h-37.9l-46.2-57.4v57.4h-24.4v-80.5h37.8Z"/></g><g><g><rect class="cls-1" x="624.6" y="249.92" width="29.4" height="81.32"/><rect class="cls-1" x="623.8" y="248.95" width="29.4" height="81.73"/><rect class="cls-1" x="623" y="247.97" width="29.4" height="82.14"/><rect class="cls-1" x="622.2" y="246.99" width="29.4" height="82.56"/><rect class="cls-1" x="621.4" y="246.01" width="29.4" height="82.97"/><rect class="cls-1" x="620.6" y="245.02" width="29.4" height="83.39"/><rect class="cls-1" x="619.8" y="244.03" width="29.4" height="83.81"/><rect class="cls-1" x="619" y="243.03" width="29.4" height="84.23"/><rect class="cls-1" x="618.2" y="242.03" width="29.4" height="84.65"/><rect class="cls-1" x="617.4" y="241.02" width="29.4" height="85.08"/><rect class="cls-1" x="616.6" y="240" width="29.4" height="85.5"/></g><path class="cls-3" d="m643.5,242.5v80.5h-24.4v-80.5h24.4Z"/></g></g></g></svg>