<?xml version="1.0" encoding="UTF-8"?><svg id="Capa_2" xmlns="http://www.w3.org/2000/svg" width="618.21" height="211.27" viewBox="0 0 618.21 211.27"><defs><style>.cls-1{fill:#37383c;}.cls-2{fill:#fff;}.cls-3{fill:#ff9ff2;}</style></defs><g id="Capa_1-2"><g><g><path class="cls-1" d="m34.51,91.26c-7.55,0-17.69-1.6-23.17-9.22-2.9-4.24-3.36-12.35-3.24-18.41l.05-2.33h28.86l.19,2.19c.35,4.13,1.74,4.29,5.11,4.29h1.9s30.09,0,30.09,0c6.6,0,8.69-.82,9.28-1.5.21-.27.41-1.84-.34-3.41-.66-1.29-5.54-1.35-9.47-1.4-1.02-.01-2.06-.03-3.12-.06l-31.78-.67h-.82c-8.13-.1-21.73-.24-27.25-10.32-3.87-6.82-3.68-23.92.36-30.46,5.83-9.26,16.12-10.04,26.16-10.04.85,0,1.71,0,2.56.01.84,0,1.69,0,2.53,0h41.6c11.07,0,18.85,3.18,23.1,9.46,2.61,3.64,2.94,10.96,2.9,18.33v3.41h-28.71l-.19-2.18c-.44-4.98-1.67-5.44-7.75-5.52h-27.26c-.38,0-.78,0-1.19-.01-.41,0-.83-.01-1.26-.01-3.45,0-5.06.59-5.93,2.18l-.09.14c-.25.54-.17,2.56.14,3.27,1.49,1.96,7.49,1.96,10.07,1.96h2.26s29.96.66,29.96.66c.96.04,1.99.05,3.12.06,8.16.09,21.83.24,27.42,10.03,3.95,7.06,3.44,21.72-.97,28.54-6.98,11.02-26.57,11.02-34.93,11.02h-40.2Z"/><path class="cls-1" d="m33.71,90.7c-7.55,0-17.69-1.61-23.17-9.26-2.9-4.26-3.36-12.41-3.24-18.51l.05-2.34h28.86l.19,2.2c.35,4.15,1.74,4.32,5.11,4.32h1.9s30.09,0,30.09,0c6.6,0,8.69-.82,9.28-1.51.21-.27.41-1.85-.34-3.43-.66-1.3-5.54-1.36-9.47-1.41-1.02-.01-2.06-.03-3.12-.06l-31.78-.67h-.82c-8.13-.1-21.73-.24-27.25-10.37-3.87-6.85-3.68-24.04.36-30.61,5.83-9.31,16.12-10.09,26.16-10.09.85,0,1.71,0,2.56.01.84,0,1.69,0,2.53,0h41.6c11.07,0,18.85,3.2,23.1,9.51,2.61,3.66,2.94,11.02,2.9,18.42v3.43h-28.71l-.19-2.19c-.44-5.01-1.67-5.46-7.75-5.55h-27.26c-.38,0-.78,0-1.19-.01-.41,0-.83-.01-1.26-.01-3.45,0-5.06.59-5.93,2.19l-.09.14c-.25.54-.17,2.57.14,3.28,1.49,1.97,7.49,1.97,10.07,1.97h2.26s29.96.66,29.96.66c.96.04,1.99.05,3.12.06,8.16.09,21.83.24,27.42,10.08,3.95,7.1,3.44,21.83-.97,28.68-6.98,11.08-26.57,11.08-34.93,11.08h-40.2Z"/><path class="cls-1" d="m32.91,90.13c-7.55,0-17.69-1.61-23.17-9.31-2.9-4.28-3.36-12.47-3.24-18.6l.05-2.36h28.86l.19,2.21c.35,4.17,1.74,4.34,5.11,4.34h1.9s30.09,0,30.09,0c6.6,0,8.69-.83,9.28-1.52.21-.27.41-1.86-.34-3.45-.66-1.3-5.54-1.37-9.47-1.42-1.02-.01-2.06-.03-3.12-.06l-31.78-.67h-.82c-8.13-.1-21.73-.24-27.25-10.42-3.87-6.89-3.68-24.16.36-30.76,5.83-9.36,16.12-10.14,26.16-10.14.85,0,1.71,0,2.56.01.84,0,1.69,0,2.53,0h41.6c11.07,0,18.85,3.22,23.1,9.56,2.61,3.68,2.94,11.07,2.9,18.51v3.45h-28.71l-.19-2.2c-.44-5.04-1.67-5.49-7.75-5.58h-27.26c-.38,0-.78,0-1.19-.01-.41,0-.83-.01-1.26-.01-3.45,0-5.06.6-5.93,2.2l-.09.14c-.25.54-.17,2.59.14,3.3,1.49,1.98,7.49,1.98,10.07,1.98h2.26s29.96.67,29.96.67c.96.04,1.99.05,3.12.06,8.16.09,21.83.24,27.42,10.13,3.95,7.13,3.44,21.94-.97,28.83-6.98,11.13-26.57,11.13-34.93,11.13h-40.2Z"/><path class="cls-1" d="m32.11,89.57c-7.55,0-17.69-1.62-23.17-9.36-2.9-4.31-3.36-12.54-3.24-18.69l.05-2.37h28.86l.19,2.22c.35,4.19,1.74,4.36,5.11,4.36h1.9s30.09,0,30.09,0c6.6,0,8.69-.83,9.28-1.53.21-.27.41-1.87-.34-3.46-.66-1.31-5.54-1.37-9.47-1.43-1.02-.01-2.06-.03-3.12-.06l-31.78-.68h-.82c-8.13-.1-21.73-.25-27.25-10.47-3.87-6.92-3.68-24.28.36-30.92C14.58,7.78,24.87,6.99,34.91,6.99c.85,0,1.71,0,2.56.01.84,0,1.69,0,2.53,0h41.6c11.07,0,18.85,3.23,23.1,9.6,2.61,3.69,2.94,11.13,2.9,18.6v3.46h-28.71l-.19-2.21c-.44-5.06-1.67-5.52-7.75-5.61h-27.26c-.38,0-.78,0-1.19-.01-.41,0-.83-.01-1.26-.01-3.45,0-5.06.6-5.93,2.21l-.09.15c-.25.54-.17,2.6.14,3.32,1.49,1.99,7.49,1.99,10.07,1.99h2.26s29.96.67,29.96.67c.96.04,1.99.05,3.12.06,8.16.09,21.83.25,27.42,10.18,3.95,7.17,3.44,22.05-.97,28.97-6.98,11.19-26.57,11.19-34.93,11.19h-40.2Z"/><path class="cls-1" d="m31.31,89c-7.55,0-17.69-1.63-23.17-9.4-2.9-4.33-3.36-12.6-3.24-18.79l.05-2.38h28.86l.19,2.23c.35,4.21,1.74,4.38,5.11,4.38h1.9s30.09,0,30.09,0c6.6,0,8.69-.83,9.28-1.54.21-.28.41-1.88-.34-3.48-.66-1.32-5.54-1.38-9.47-1.43-1.02-.01-2.06-.03-3.12-.06l-31.78-.68h-.82c-8.13-.1-21.73-.25-27.25-10.52-3.87-6.96-3.68-24.4.36-31.07C13.78,6.8,24.07,6.01,34.11,6.01c.85,0,1.71,0,2.56.01.84,0,1.69,0,2.53,0h41.6c11.07,0,18.85,3.25,23.1,9.65,2.61,3.71,2.94,11.18,2.9,18.7v3.48h-28.71l-.19-2.23c-.44-5.09-1.67-5.55-7.75-5.64h-27.26c-.38,0-.78,0-1.19-.01-.41,0-.83-.01-1.26-.01-3.45,0-5.06.6-5.93,2.22l-.09.15c-.25.55-.17,2.61.14,3.33,1.49,2,7.49,2,10.07,2h2.26s29.96.67,29.96.67c.96.04,1.99.05,3.12.06,8.16.09,21.83.25,27.42,10.23,3.95,7.21,3.44,22.16-.97,29.12-6.98,11.25-26.57,11.25-34.93,11.25H31.31Z"/><path class="cls-1" d="m30.51,88.43c-7.55,0-17.69-1.64-23.17-9.45-2.9-4.35-3.36-12.66-3.24-18.88l.05-2.39h28.86l.19,2.24c.35,4.23,1.74,4.4,5.11,4.4h1.9s30.09,0,30.09,0c6.6,0,8.69-.84,9.28-1.54.21-.28.41-1.88-.34-3.5-.66-1.32-5.54-1.39-9.47-1.44-1.02-.01-2.06-.03-3.12-.06l-31.78-.68h-.82c-8.13-.1-21.73-.25-27.25-10.58-3.87-6.99-3.68-24.52.36-31.23C12.98,5.81,23.27,5.02,33.31,5.02c.85,0,1.71,0,2.56.01.84,0,1.69,0,2.53,0h41.6c11.07,0,18.85,3.26,23.1,9.7,2.61,3.73,2.94,11.24,2.9,18.79v3.5h-28.71l-.19-2.24c-.44-5.11-1.67-5.57-7.75-5.66h-27.26c-.38,0-.78,0-1.19-.01-.41,0-.83-.01-1.26-.01-3.45,0-5.06.6-5.93,2.23l-.09.15c-.25.55-.17,2.63.14,3.35,1.49,2.01,7.49,2.01,10.07,2.01h2.26s29.96.68,29.96.68c.96.04,1.99.05,3.12.06,8.16.09,21.83.25,27.42,10.28,3.95,7.24,3.44,22.27-.97,29.26-6.98,11.3-26.57,11.3-34.93,11.3H30.51Z"/><path class="cls-1" d="m29.71,87.85c-7.55,0-17.69-1.65-23.17-9.5-2.9-4.37-3.36-12.73-3.24-18.98l.05-2.4h28.86l.19,2.25c.35,4.26,1.74,4.43,5.11,4.43h1.9s30.09,0,30.09,0c6.6,0,8.69-.84,9.28-1.55.21-.28.41-1.89-.34-3.52-.66-1.33-5.54-1.39-9.47-1.45-1.02-.01-2.06-.03-3.12-.06l-31.78-.69h-.82c-8.13-.1-21.73-.25-27.25-10.63-3.87-7.03-3.68-24.65.36-31.39C12.18,4.82,22.47,4.02,32.51,4.02c.85,0,1.71,0,2.56.01.84,0,1.69,0,2.53,0h41.6c11.07,0,18.85,3.28,23.1,9.75,2.61,3.75,2.94,11.3,2.9,18.89v3.52h-28.71l-.19-2.25c-.44-5.14-1.67-5.6-7.75-5.69h-27.26c-.38,0-.78,0-1.19-.01-.41,0-.83-.01-1.26-.01-3.45,0-5.06.61-5.93,2.24l-.09.15c-.25.55-.17,2.64.14,3.37,1.49,2.02,7.49,2.02,10.07,2.02h2.26s29.96.68,29.96.68c.96.04,1.99.05,3.12.06,8.16.09,21.83.25,27.42,10.33,3.95,7.28,3.44,22.39-.97,29.41-6.98,11.36-26.57,11.36-34.93,11.36H29.71Z"/><path class="cls-1" d="m28.91,87.28c-7.55,0-17.69-1.66-23.17-9.54-2.9-4.39-3.36-12.79-3.24-19.07l.05-2.42h28.86l.19,2.26c.35,4.28,1.74,4.45,5.11,4.45h1.9s30.09,0,30.09,0c6.6,0,8.69-.85,9.28-1.56.21-.28.41-1.9-.34-3.53-.66-1.34-5.54-1.4-9.47-1.45-1.02-.01-2.06-.03-3.12-.06l-31.78-.69h-.82c-8.13-.1-21.73-.25-27.25-10.68-3.87-7.06-3.68-24.77.36-31.54C11.38,3.83,21.67,3.03,31.71,3.03c.85,0,1.71,0,2.56.01.84,0,1.69,0,2.53,0h41.6c11.07,0,18.85,3.3,23.1,9.8,2.61,3.77,2.94,11.35,2.9,18.98v3.53h-28.71l-.19-2.26c-.44-5.16-1.67-5.63-7.75-5.72h-27.26c-.38,0-.78,0-1.19-.01-.41,0-.83-.01-1.26-.01-3.45,0-5.06.61-5.93,2.26l-.09.15c-.25.56-.17,2.65.14,3.39,1.49,2.03,7.49,2.03,10.07,2.03h2.26s29.96.68,29.96.68c.96.04,1.99.05,3.12.06,8.16.09,21.83.25,27.42,10.39,3.95,7.32,3.44,22.5-.97,29.56-6.98,11.42-26.57,11.42-34.93,11.42H28.91Z"/><path class="cls-1" d="m28.11,86.69c-7.55,0-17.69-1.66-23.17-9.59-2.9-4.42-3.36-12.85-3.24-19.17l.05-2.43h28.86l.19,2.27c.35,4.3,1.74,4.47,5.11,4.47h1.9s30.09,0,30.09,0c6.6,0,8.69-.85,9.28-1.57.21-.28.41-1.91-.34-3.55-.66-1.34-5.54-1.41-9.47-1.46-1.02-.01-2.06-.03-3.12-.06l-31.78-.69h-.82c-8.13-.1-21.73-.25-27.25-10.74-3.87-7.1-3.68-24.89.36-31.7C10.58,2.83,20.87,2.02,30.91,2.02c.85,0,1.71,0,2.56.01.84,0,1.69,0,2.53,0h41.6c11.07,0,18.85,3.31,23.1,9.85,2.61,3.79,2.94,11.41,2.9,19.08v3.55h-28.71l-.19-2.27c-.44-5.19-1.67-5.66-7.75-5.75h-27.26c-.38,0-.78,0-1.19-.01-.41,0-.83-.01-1.26-.01-3.45,0-5.06.61-5.93,2.27l-.09.15c-.25.56-.17,2.67.14,3.4,1.49,2.04,7.49,2.04,10.07,2.04h2.26s29.96.69,29.96.69c.96.04,1.99.05,3.12.06,8.16.09,21.83.25,27.42,10.44,3.95,7.35,3.44,22.61-.97,29.71-6.98,11.47-26.57,11.47-34.93,11.47H28.11Z"/><path class="cls-1" d="m27.31,86.11c-7.55,0-17.69-1.67-23.17-9.64-2.9-4.44-3.36-12.92-3.24-19.26l.05-2.44h28.86l.19,2.29c.35,4.32,1.74,4.49,5.11,4.49h1.9s30.09,0,30.09,0c6.6,0,8.69-.86,9.28-1.57.21-.28.41-1.92-.34-3.57-.66-1.35-5.54-1.42-9.47-1.47-1.02-.01-2.06-.03-3.12-.06l-31.78-.7h-.82c-8.13-.1-21.73-.25-27.25-10.79C-.28,36.24-.09,18.36,3.95,11.52,9.78,1.82,20.07,1.01,30.11,1.01c.85,0,1.71,0,2.56.01.84,0,1.69,0,2.53,0h41.6c11.07,0,18.85,3.33,23.1,9.9,2.61,3.81,2.94,11.47,2.9,19.17v3.57h-28.71l-.19-2.28c-.44-5.22-1.67-5.69-7.75-5.78h-27.26c-.38,0-.78,0-1.19-.01-.41,0-.83-.01-1.26-.01-3.45,0-5.06.62-5.93,2.28l-.09.15c-.25.56-.17,2.68.14,3.42,1.49,2.05,7.49,2.05,10.07,2.05h2.26s29.96.69,29.96.69c.96.04,1.99.05,3.12.06,8.16.1,21.83.25,27.42,10.49,3.95,7.39,3.44,22.73-.97,29.86-6.98,11.53-26.57,11.53-34.93,11.53H27.31Z"/><path class="cls-1" d="m26.51,85.53c-7.55,0-17.69-1.68-23.17-9.69C.44,71.38-.01,62.85.11,56.48l.05-2.45h28.86l.19,2.3c.35,4.34,1.74,4.51,5.11,4.51h1.9s30.09,0,30.09,0c6.6,0,8.69-.86,9.28-1.58.21-.28.41-1.93-.34-3.59-.66-1.36-5.54-1.42-9.47-1.48-1.02-.01-2.06-.03-3.12-.06l-31.78-.7h-.82c-8.13-.1-21.73-.25-27.25-10.85-3.87-7.17-3.68-25.15.36-32.02C8.98.81,19.27,0,29.31,0c.85,0,1.71,0,2.56.01.84,0,1.69,0,2.53,0h41.6c11.07,0,18.85,3.35,23.1,9.95,2.61,3.83,2.94,11.53,2.9,19.27v3.59h-28.71l-.19-2.29c-.44-5.24-1.67-5.72-7.75-5.81h-27.26c-.38,0-.78,0-1.19-.01-.41,0-.83-.01-1.26-.01-3.45,0-5.06.62-5.93,2.29l-.09.15c-.25.56-.17,2.69.14,3.44,1.49,2.06,7.49,2.06,10.07,2.06h2.26s29.96.7,29.96.7c.96.04,1.99.05,3.12.06,8.16.1,21.83.25,27.42,10.54,3.95,7.43,3.44,22.84-.97,30.01-6.98,11.59-26.57,11.59-34.93,11.59H26.51Z"/></g><path class="cls-3" d="m75.61,30.32c-.6-7.2-3.6-8-10.2-8.1h-27.3c-3.4,0-8.4-.6-10.6,3.6-.8,1.3-.6,4.7.1,6,2.3,3.6,9.5,3.3,14.5,3.3l29.9.7c7.4.3,22.8-1,28.4,9.3,3.4,6.4,3.1,21-.9,27.5-6.2,10.3-24.5,10.4-32.8,10.4H26.51c-4.8,0-15.7-.7-21.1-8.6-2.6-4-2.9-12.6-2.8-17.9h24.1c.6,7.4,4.9,6.8,9.5,6.8h28.6c3.4,0,10.5.2,12.7-2.5,1-1.3,1-4,0-6.2-1.6-3.3-7.9-2.8-14.8-3l-31.8-.7c-7.8-.1-20.9.1-25.9-9.5-3.4-6.3-3.4-23.3.3-29.6C11.41,1.62,23.11,2.52,34.41,2.52h41.6c6.5,0,16.1,1.2,21,8.8,2.8,4.1,2.5,14.9,2.5,19h-23.9Z"/></g><g><g><path class="cls-1" d="m150.44,91.27c-7.42,0-14.17-.59-21.63-7.86-7.71-7.62-7.59-19.99-7.52-26.64,0-.56.01-1.08.01-1.56V9.93h29.4v39.95c0,.56,0,1.16-.02,1.8-.05,4.18-.14,11.17,2.51,13.75,2.25,2.09,6.03,2.36,9.07,2.36.57,0,1.12,0,1.62-.02.47,0,.92-.01,1.32-.01h19.8c.25,0,.55,0,.89.01.41,0,.89.02,1.42.02,4.09,0,6.84-.74,8.4-2.26,2.04-2.06,1.98-6.99,1.92-12.2-.01-.95-.02-1.91-.02-2.88V9.93h29.4v47.75c0,.86,0,1.72.02,2.57.08,7.97.17,16.21-7.03,23.24-8.06,7.76-18.55,7.76-26.98,7.76h-2.92s-36,0-36,0c-.63,0-3.07.01-3.66.01Z"/><path class="cls-1" d="m149.64,90.71c-7.42,0-14.17-.59-21.63-7.9-7.71-7.66-7.59-20.1-7.52-26.78,0-.56.01-1.09.01-1.56V8.96h29.4v40.15c0,.56,0,1.17-.02,1.81-.05,4.2-.14,11.22,2.51,13.82,2.25,2.1,6.03,2.37,9.07,2.37.57,0,1.12,0,1.62-.02.47,0,.92-.01,1.32-.01h19.8c.25,0,.55,0,.89.01.41,0,.89.02,1.42.02,4.09,0,6.84-.74,8.4-2.27,2.04-2.07,1.98-7.02,1.92-12.26-.01-.95-.02-1.92-.02-2.9V8.96h29.4v47.99c0,.86,0,1.73.02,2.59.08,8.01.17,16.29-7.03,23.36-8.06,7.8-18.55,7.8-26.98,7.8h-2.92s-36,0-36,0c-.63,0-3.07.01-3.66.01Z"/><path class="cls-1" d="m148.84,90.15c-7.42,0-14.17-.6-21.63-7.94-7.71-7.7-7.59-20.2-7.52-26.91,0-.56.01-1.09.01-1.57V7.99h29.4v40.35c0,.56,0,1.17-.02,1.82-.05,4.22-.14,11.28,2.51,13.89,2.25,2.11,6.03,2.38,9.07,2.38.57,0,1.12,0,1.62-.02.47,0,.92-.02,1.32-.02h19.8c.25,0,.55,0,.89.01.41,0,.89.02,1.42.02,4.09,0,6.84-.75,8.4-2.29,2.04-2.08,1.98-7.06,1.92-12.32-.01-.96-.02-1.93-.02-2.91V7.99h29.4v48.23c0,.87,0,1.74.02,2.6.08,8.05.17,16.37-7.03,23.48-8.06,7.84-18.55,7.84-26.98,7.84h-2.92s-36,0-36,0c-.63,0-3.07.01-3.66.01Z"/><path class="cls-1" d="m148.04,89.58c-7.42,0-14.17-.6-21.63-7.98-7.71-7.74-7.59-20.3-7.52-27.05,0-.57.01-1.1.01-1.58V7.01h29.4v40.55c0,.56,0,1.18-.02,1.83-.05,4.24-.14,11.34,2.51,13.96,2.25,2.12,6.03,2.39,9.07,2.39.57,0,1.12,0,1.62-.02.47,0,.92-.02,1.32-.02h19.8c.25,0,.55,0,.89.01.41,0,.89.02,1.42.02,4.09,0,6.84-.75,8.4-2.3,2.04-2.09,1.98-7.09,1.92-12.38-.01-.96-.02-1.94-.02-2.93V7.01h29.4v48.47c0,.87,0,1.75.02,2.61.08,8.09.17,16.45-7.03,23.6-8.06,7.88-18.55,7.88-26.98,7.88h-2.92s-36,0-36,0c-.63,0-3.07.01-3.66.01Z"/><path class="cls-1" d="m147.24,89.01c-7.42,0-14.17-.6-21.63-8.02-7.71-7.78-7.59-20.4-7.52-27.18,0-.57.01-1.1.01-1.59V6.03h29.4v40.76c0,.57,0,1.19-.02,1.84-.05,4.26-.14,11.39,2.51,14.03,2.25,2.13,6.03,2.41,9.07,2.41.57,0,1.12,0,1.62-.02.47,0,.92-.02,1.32-.02h19.8c.25,0,.55,0,.89.01.41,0,.89.02,1.42.02,4.09,0,6.84-.76,8.4-2.31,2.04-2.1,1.98-7.13,1.92-12.45-.01-.97-.02-1.95-.02-2.94V6.03h29.4v48.72c0,.88,0,1.75.02,2.63.08,8.13.17,16.54-7.03,23.71-8.06,7.92-18.55,7.92-26.98,7.92h-2.92s-36,0-36,0c-.63,0-3.07.01-3.66.01Z"/><path class="cls-1" d="m146.44,88.44c-7.42,0-14.17-.61-21.63-8.06-7.71-7.82-7.59-20.5-7.52-27.32,0-.57.01-1.11.01-1.6V5.04h29.4v40.96c0,.57,0,1.19-.02,1.85-.05,4.28-.14,11.45,2.51,14.1,2.25,2.14,6.03,2.42,9.07,2.42.57,0,1.12,0,1.62-.02.47,0,.92-.02,1.32-.02h19.8c.25,0,.55,0,.89.01.41,0,.89.02,1.42.02,4.09,0,6.84-.76,8.4-2.32,2.04-2.11,1.98-7.16,1.92-12.51-.01-.97-.02-1.96-.02-2.96V5.04h29.4v48.96c0,.88,0,1.76.02,2.64.08,8.17.17,16.62-7.03,23.83-8.06,7.96-18.55,7.96-26.98,7.96h-2.92s-36,0-36,0c-.63,0-3.07.01-3.66.01Z"/><path class="cls-1" d="m145.64,87.87c-7.42,0-14.17-.61-21.63-8.1-7.71-7.85-7.59-20.61-7.52-27.46,0-.58.01-1.11.01-1.6V4.05h29.4v41.17c0,.57,0,1.2-.02,1.86-.05,4.3-.14,11.51,2.51,14.17,2.25,2.15,6.03,2.43,9.07,2.43.57,0,1.12,0,1.62-.02.47,0,.92-.02,1.32-.02h19.8c.25,0,.55,0,.89.01.41,0,.89.02,1.42.02,4.09,0,6.84-.76,8.4-2.33,2.04-2.12,1.98-7.2,1.92-12.57-.01-.98-.02-1.97-.02-2.97V4.05h29.4v49.21c0,.89,0,1.77.02,2.65.08,8.21.17,16.7-7.03,23.95-8.06,8-18.55,8-26.98,8h-2.92s-36,0-36,0c-.63,0-3.07.01-3.66.01Z"/><path class="cls-1" d="m144.84,87.29c-7.42,0-14.17-.61-21.63-8.15-7.71-7.89-7.59-20.71-7.52-27.59,0-.58.01-1.12.01-1.61V3.05h29.4v41.38c0,.58,0,1.2-.02,1.87-.05,4.33-.14,11.57,2.51,14.24,2.25,2.16,6.03,2.44,9.07,2.44.57,0,1.12,0,1.62-.02.47,0,.92-.02,1.32-.02h19.8c.25,0,.55,0,.89.01.41,0,.89.02,1.42.02,4.09,0,6.84-.77,8.4-2.34,2.04-2.13,1.98-7.24,1.92-12.64-.01-.98-.02-1.98-.02-2.99V3.05h29.4v49.45c0,.89,0,1.78.02,2.67.08,8.25.17,16.79-7.03,24.07-8.06,8.04-18.55,8.04-26.98,8.04h-2.92s-36,0-36,0c-.63,0-3.07.01-3.66.01Z"/><path class="cls-1" d="m144.04,86.71c-7.42,0-14.17-.62-21.63-8.19-7.71-7.93-7.59-20.81-7.52-27.73,0-.58.01-1.12.01-1.62V2.04h29.4v41.58c0,.58,0,1.21-.02,1.88-.05,4.35-.14,11.62,2.51,14.32,2.25,2.17,6.03,2.45,9.07,2.45.57,0,1.12,0,1.62-.02.47,0,.92-.02,1.32-.02h19.8c.25,0,.55,0,.89.01.41,0,.89.02,1.42.02,4.09,0,6.84-.77,8.4-2.36,2.04-2.14,1.98-7.27,1.92-12.7-.01-.99-.02-1.99-.02-3V2.04h29.4v49.7c0,.9,0,1.79.02,2.68.08,8.3.17,16.87-7.03,24.19-8.06,8.08-18.55,8.08-26.98,8.08h-2.92s-36,0-36,0c-.63,0-3.07.01-3.66.01Z"/><path class="cls-1" d="m143.24,86.13c-7.42,0-14.17-.62-21.63-8.23-7.71-7.97-7.59-20.92-7.52-27.87,0-.58.01-1.13.01-1.63V1.03h29.4v41.79c0,.58,0,1.22-.02,1.89-.05,4.37-.14,11.68,2.51,14.39,2.25,2.18,6.03,2.47,9.07,2.47.57,0,1.12,0,1.62-.02.47,0,.92-.02,1.32-.02h19.8c.25,0,.55,0,.89.01.41,0,.89.02,1.42.02,4.09,0,6.84-.77,8.4-2.37,2.04-2.15,1.98-7.31,1.92-12.76-.01-.99-.02-2-.02-3.02V1.03h29.4v49.95c0,.9,0,1.8.02,2.69.08,8.34.17,16.96-7.03,24.32-8.06,8.12-18.55,8.12-26.98,8.12h-2.92s-36,0-36,0c-.63,0-3.07.01-3.66.01Z"/><path class="cls-1" d="m142.44,85.54c-7.42,0-14.17-.62-21.63-8.27-7.71-8.01-7.59-21.02-7.52-28.01,0-.59.01-1.14.01-1.64V.02h29.4v42c0,.58,0,1.22-.02,1.9-.05,4.39-.14,11.74,2.51,14.46,2.25,2.19,6.03,2.48,9.07,2.48.57,0,1.12,0,1.62-.02.47,0,.92-.02,1.32-.02h19.8c.25,0,.55,0,.89.01.41,0,.89.02,1.42.02,4.09,0,6.84-.78,8.4-2.38,2.04-2.17,1.98-7.34,1.92-12.83-.01-1-.02-2.01-.02-3.03V.02h29.4v50.2c0,.9,0,1.81.02,2.71.08,8.38.17,17.04-7.03,24.44-8.06,8.16-18.55,8.16-26.98,8.16h-2.92s-36,0-36,0c-.63,0-3.07.01-3.66.01Z"/></g><path class="cls-3" d="m140.21,2.52v39.5c0,5.1-.6,14.2,3.2,18.1,3.9,3.8,10.3,3.2,13.8,3.2h19.8c2.2,0,8.9.6,12.5-3.1,3.2-3.4,2.6-10.3,2.6-17.6V2.52h24.4v47.7c0,9.1.9,18-6.3,25.4-7.7,7.8-17.6,7.4-28.1,7.4h-36c-8.6,0-15.5.7-23.5-7.5-7.6-7.9-6.8-21.6-6.8-27.9V2.52h24.4Z"/></g><g><g><path class="cls-1" d="m234.9,91.26V9.93h65.03c7.15,0,23.91,0,31.16,12.24,5.24,8.83,5.12,30.43-.22,39.17-6.41,10.33-14.71,11.17-24.11,11.17h-3.08c-.48,0-.96,0-1.45,0h-37.93v18.74h-29.4Zm59.3-42.14h1.82c3.86,0,6.56-.44,8.07-2.7.64-1.25.64-8.01-.06-9.43-1.79-3.22-5.47-3.57-12.87-3.57h-26.87v15.7h29.9Z"/><path class="cls-1" d="m234.1,90.7V8.96h65.03c7.15,0,23.91,0,31.16,12.31,5.24,8.88,5.12,30.59-.22,39.37-6.41,10.38-14.71,11.23-24.11,11.23h-3.08c-.48,0-.96,0-1.45,0h-37.93v18.83h-29.4Zm59.3-42.35h1.82c3.86,0,6.56-.45,8.07-2.72.64-1.26.64-8.05-.06-9.47-1.79-3.24-5.47-3.58-12.87-3.58h-26.87v15.78h29.9Z"/><path class="cls-1" d="m233.3,90.13V7.99h65.03c7.15,0,23.91,0,31.16,12.37,5.24,8.92,5.12,30.74-.22,39.57-6.41,10.44-14.71,11.28-24.11,11.28h-3.08c-.48,0-.96,0-1.45,0h-37.93v18.93h-29.4Zm59.3-42.56h1.82c3.86,0,6.56-.45,8.07-2.73.64-1.27.64-8.09-.06-9.52-1.79-3.25-5.47-3.6-12.87-3.6h-26.87v15.86h29.9Z"/><path class="cls-1" d="m232.5,89.57V7.01h65.03c7.15,0,23.91,0,31.16,12.43,5.24,8.97,5.12,30.89-.22,39.77-6.41,10.49-14.71,11.34-24.11,11.34h-3.08c-.48,0-.96,0-1.45,0h-37.93v19.02h-29.4Zm59.3-42.78h1.82c3.86,0,6.56-.45,8.07-2.74.64-1.27.64-8.13-.06-9.57-1.79-3.27-5.47-3.62-12.87-3.62h-26.87v15.93h29.9Z"/><path class="cls-1" d="m231.7,89V6.03h65.03c7.15,0,23.91,0,31.16,12.49,5.24,9.01,5.12,31.05-.22,39.97-6.41,10.54-14.71,11.4-24.11,11.4h-3.08c-.48,0-.96,0-1.45,0h-37.93v19.12h-29.4Zm59.3-42.99h1.82c3.86,0,6.56-.45,8.07-2.76.64-1.28.64-8.17-.06-9.62-1.79-3.29-5.47-3.64-12.87-3.64h-26.87v16.01h29.9Z"/><path class="cls-1" d="m230.9,88.43V5.04h65.03c7.15,0,23.91,0,31.16,12.56,5.24,9.06,5.12,31.21-.22,40.17-6.41,10.59-14.71,11.45-24.11,11.45h-3.08c-.48,0-.96,0-1.45,0h-37.93v19.21h-29.4Zm59.3-43.21h1.82c3.86,0,6.56-.46,8.07-2.77.64-1.28.64-8.21-.06-9.67-1.79-3.3-5.47-3.66-12.87-3.66h-26.87v16.1h29.9Z"/><path class="cls-1" d="m230.1,87.85V4.05h65.03c7.15,0,23.91,0,31.16,12.62,5.24,9.1,5.12,31.36-.22,40.37-6.41,10.65-14.71,11.51-24.11,11.51h-3.08c-.48,0-.96,0-1.45,0h-37.93v19.31h-29.4Zm59.3-43.42h1.82c3.86,0,6.56-.46,8.07-2.79.64-1.29.64-8.25-.06-9.71-1.79-3.32-5.47-3.68-12.87-3.68h-26.87v16.18h29.9Z"/><path class="cls-1" d="m229.3,87.28V3.05h65.03c7.15,0,23.91,0,31.16,12.68,5.24,9.15,5.12,31.52-.22,40.57-6.41,10.7-14.71,11.57-24.11,11.57h-3.08c-.48,0-.96,0-1.45,0h-37.93v19.41h-29.4Zm59.3-43.64h1.82c3.86,0,6.56-.46,8.07-2.8.64-1.3.64-8.29-.06-9.76-1.79-3.34-5.47-3.69-12.87-3.69h-26.87v16.26h29.9Z"/><path class="cls-1" d="m228.5,86.69V2.04h65.03c7.15,0,23.91,0,31.16,12.75,5.24,9.19,5.12,31.68-.22,40.77-6.41,10.75-14.71,11.63-24.11,11.63h-3.08c-.48,0-.96,0-1.45,0h-37.93v19.5h-29.4Zm59.3-43.86h1.82c3.86,0,6.56-.46,8.07-2.81.64-1.3.64-8.33-.06-9.81-1.79-3.35-5.47-3.71-12.87-3.71h-26.87v16.34h29.9Z"/><path class="cls-1" d="m227.7,86.11V1.03h65.03c7.15,0,23.91,0,31.16,12.81,5.24,9.24,5.12,31.84-.22,40.98-6.41,10.81-14.71,11.69-24.11,11.69h-3.08c-.48,0-.96,0-1.45,0h-37.93v19.6h-29.4Zm59.3-44.08h1.82c3.86,0,6.56-.47,8.07-2.83.64-1.31.64-8.37-.06-9.86-1.79-3.37-5.47-3.73-12.87-3.73h-26.87v16.42h29.9Z"/><path class="cls-1" d="m226.9,85.53V.02h65.03c7.15,0,23.91,0,31.16,12.87,5.24,9.29,5.12,32-.22,41.19-6.41,10.86-14.71,11.75-24.11,11.75h-3.08c-.48,0-.96,0-1.45,0h-37.93v19.7h-29.4Zm59.3-44.3h1.82c3.86,0,6.56-.47,8.07-2.84.64-1.32.64-8.42-.06-9.91-1.79-3.39-5.47-3.75-12.87-3.75h-26.87v16.5h29.9Z"/></g><path class="cls-3" d="m290.81,2.52c7.4,0,23.4-.3,30.1,11.6,4.8,8.5,4.8,30.1-.2,38.7-6.9,11.7-16,10.4-26.5,10.5h-40.4v19.7h-24.4V2.52h61.4Zm-4.6,41.2c3.7,0,9.2.4,12-4,1.2-2,1.1-10.7,0-12.5-2.8-5.3-8.9-5-17.6-5h-26.8v21.5h32.4Z"/></g><g><g><polygon class="cls-1" points="342.5 91.26 342.5 9.93 434.61 9.93 434.61 33.43 371.9 33.43 371.9 40.75 431.41 40.75 431.41 60.82 371.9 60.82 371.9 67.76 436.11 67.76 436.11 91.26 342.5 91.26"/><polygon class="cls-1" points="341.7 90.7 341.7 8.96 433.81 8.96 433.81 32.58 371.1 32.58 371.1 39.94 430.61 39.94 430.61 60.11 371.1 60.11 371.1 67.09 435.31 67.09 435.31 90.7 341.7 90.7"/><polygon class="cls-1" points="340.9 90.13 340.9 7.99 433.01 7.99 433.01 31.72 370.3 31.72 370.3 39.12 429.81 39.12 429.81 59.39 370.3 59.39 370.3 66.4 434.51 66.4 434.51 90.13 340.9 90.13"/><polygon class="cls-1" points="340.1 89.57 340.1 7.01 432.21 7.01 432.21 30.86 369.5 30.86 369.5 38.3 429.01 38.3 429.01 58.67 369.5 58.67 369.5 65.72 433.71 65.72 433.71 89.57 340.1 89.57"/><polygon class="cls-1" points="339.3 89 339.3 6.03 431.41 6.03 431.41 30 368.7 30 368.7 37.47 428.21 37.47 428.21 57.95 368.7 57.95 368.7 65.03 432.91 65.03 432.91 89 339.3 89"/><polygon class="cls-1" points="338.5 88.43 338.5 5.04 430.61 5.04 430.61 29.13 367.9 29.13 367.9 36.64 427.41 36.64 427.41 57.22 367.9 57.22 367.9 64.34 432.11 64.34 432.11 88.43 338.5 88.43"/><polygon class="cls-1" points="337.7 87.85 337.7 4.05 429.81 4.05 429.81 28.26 367.1 28.26 367.1 35.8 426.61 35.8 426.61 56.49 367.1 56.49 367.1 63.64 431.31 63.64 431.31 87.85 337.7 87.85"/><polygon class="cls-1" points="336.9 87.28 336.9 3.05 429.01 3.05 429.01 27.38 366.3 27.38 366.3 34.97 425.81 34.97 425.81 55.75 366.3 55.75 366.3 62.94 430.51 62.94 430.51 87.28 336.9 87.28"/><polygon class="cls-1" points="336.1 86.69 336.1 2.04 428.21 2.04 428.21 26.5 365.5 26.5 365.5 34.12 425.01 34.12 425.01 55.01 365.5 55.01 365.5 62.24 429.71 62.24 429.71 86.69 336.1 86.69"/><polygon class="cls-1" points="335.3 86.11 335.3 1.03 427.41 1.03 427.41 25.61 364.7 25.61 364.7 33.27 424.21 33.27 424.21 54.27 364.7 54.27 364.7 61.53 428.91 61.53 428.91 86.11 335.3 86.11"/><polygon class="cls-1" points="334.5 85.53 334.5 .02 426.61 .02 426.61 24.72 363.9 24.72 363.9 32.42 423.41 32.42 423.41 53.52 363.9 53.52 363.9 60.82 428.11 60.82 428.11 85.53 334.5 85.53"/></g><path class="cls-3" d="m424.11,2.52v19.7h-62.7v12.7h59.5v16.1h-59.5v12.3h64.2v19.7h-88.6V2.52h87.1Z"/></g><g><g><path class="cls-1" d="m517.01,91.26v-2.38c0-1.17,0-2.3.02-3.39.04-5.71.09-11.1-1.59-12.53l-.1-.09c-.72-.68-2.81-1.5-8.67-1.5h-1.96s-31.2.01-31.2.01v19.88h-29.4V9.93h74.86c7.08,0,16.78,0,22.93,7.58,5.53,6.76,5.8,24.84,3.82,31.32-1.5,5.51-4.57,8.17-8.07,9.93.32.15.63.31.94.48,8.06,4.7,7.93,15.12,7.85,22.02,0,.64-.02,1.25-.02,1.81v8.18h-29.4Zm-9.5-44.32c2.3,0,8.35,0,10.11-2.55.75-1.15.83-6.69-.13-8.44-1.25-2.28-5.57-2.55-8.71-2.55-.52,0-1.01,0-1.47.01-.4,0-.78.01-1.11.01h-32.7v13.51s34,0,34.01,0Z"/><path class="cls-1" d="m516.21,90.7v-2.39c0-1.18,0-2.32.02-3.41.04-5.74.09-11.16-1.59-12.59l-.1-.09c-.72-.69-2.81-1.51-8.67-1.51h-1.96s-31.2.01-31.2.01v19.98h-29.4V8.96h74.86c7.08,0,16.78,0,22.93,7.62,5.53,6.79,5.8,24.97,3.82,31.47-1.5,5.53-4.57,8.21-8.07,9.98.32.15.63.31.94.49,8.06,4.73,7.93,15.2,7.85,22.13,0,.64-.02,1.25-.02,1.82v8.22h-29.4Zm-9.5-44.54c2.3,0,8.35,0,10.11-2.56.75-1.16.83-6.73-.13-8.48-1.25-2.3-5.57-2.56-8.71-2.56-.52,0-1.01,0-1.47.01-.4,0-.78.01-1.11.01h-32.7v13.57s34,0,34.01,0Z"/><path class="cls-1" d="m515.41,90.13v-2.4c0-1.18,0-2.33.02-3.43.04-5.77.09-11.21-1.59-12.66l-.1-.09c-.72-.69-2.81-1.52-8.67-1.52h-1.96s-31.2.01-31.2.01v20.08h-29.4V7.99h74.86c7.08,0,16.78,0,22.93,7.66,5.53,6.83,5.8,25.09,3.82,31.63-1.5,5.56-4.57,8.26-8.07,10.03.32.15.63.32.94.49,8.06,4.75,7.93,15.27,7.85,22.24,0,.65-.02,1.26-.02,1.83v8.26h-29.4Zm-9.5-44.77c2.3,0,8.35,0,10.11-2.57.75-1.17.83-6.76-.13-8.52-1.25-2.31-5.57-2.57-8.71-2.57-.52,0-1.01,0-1.47.01-.4,0-.78.01-1.11.01h-32.7v13.64s34,0,34.01,0Z"/><path class="cls-1" d="m514.61,89.57v-2.41c0-1.19,0-2.34.02-3.44.04-5.8.09-11.27-1.59-12.72l-.1-.09c-.72-.69-2.81-1.52-8.67-1.52h-1.96s-31.2.01-31.2.01v20.18h-29.4V7.01h74.86c7.08,0,16.78,0,22.93,7.7,5.53,6.86,5.8,25.22,3.82,31.79-1.5,5.59-4.57,8.3-8.07,10.08.32.15.63.32.94.49,8.06,4.77,7.93,15.35,7.85,22.35,0,.65-.02,1.27-.02,1.84v8.3h-29.4Zm-9.5-44.99c2.3,0,8.35,0,10.11-2.59.75-1.17.83-6.79-.13-8.57-1.25-2.32-5.57-2.59-8.71-2.59-.52,0-1.01,0-1.47.01-.4,0-.78.01-1.11.01h-32.7v13.71s34,0,34.01,0Z"/><path class="cls-1" d="m513.81,89v-2.43c0-1.2,0-2.35.02-3.46.04-5.83.09-11.33-1.59-12.78l-.1-.09c-.72-.7-2.81-1.53-8.67-1.53h-1.96s-31.2.01-31.2.01v20.28h-29.4V6.03h74.86c7.08,0,16.78,0,22.93,7.74,5.53,6.9,5.8,25.35,3.82,31.95-1.5,5.62-4.57,8.34-8.07,10.13.32.15.63.32.94.49,8.06,4.8,7.93,15.43,7.85,22.46,0,.65-.02,1.27-.02,1.85v8.35h-29.4Zm-9.5-45.22c2.3,0,8.35,0,10.11-2.6.75-1.18.83-6.83-.13-8.61-1.25-2.33-5.57-2.6-8.71-2.6-.52,0-1.01,0-1.47.01-.4,0-.78.01-1.11.01h-32.7v13.78s34,0,34.01,0Z"/><path class="cls-1" d="m513.01,88.43v-2.44c0-1.2,0-2.36.02-3.48.04-5.85.09-11.38-1.59-12.85l-.1-.09c-.72-.7-2.81-1.54-8.67-1.54h-1.96s-31.2.01-31.2.01v20.38h-29.4V5.04h74.86c7.08,0,16.78,0,22.93,7.78,5.53,6.93,5.8,25.47,3.82,32.11-1.5,5.65-4.57,8.38-8.07,10.18.32.16.63.32.94.5,8.06,4.82,7.93,15.51,7.85,22.58,0,.66-.02,1.28-.02,1.86v8.39h-29.4Zm-9.5-45.44c2.3,0,8.35,0,10.11-2.61.75-1.18.83-6.86-.13-8.65-1.25-2.34-5.57-2.61-8.71-2.61-.52,0-1.01,0-1.47.01-.4,0-.78.01-1.11.01h-32.7v13.85s34,0,34.01,0Z"/><path class="cls-1" d="m512.21,87.85v-2.45c0-1.21,0-2.37.02-3.49.04-5.88.09-11.44-1.59-12.91l-.1-.09c-.72-.71-2.81-1.55-8.67-1.55h-1.96s-31.2.01-31.2.01v20.49h-29.4V4.05h74.86c7.08,0,16.78,0,22.93,7.82,5.53,6.97,5.8,25.6,3.82,32.27-1.5,5.67-4.57,8.42-8.07,10.23.32.16.63.32.94.5,8.06,4.85,7.93,15.58,7.85,22.69,0,.66-.02,1.29-.02,1.87v8.43h-29.4Zm-9.5-45.67c2.3,0,8.35,0,10.11-2.63.75-1.19.83-6.9-.13-8.7-1.25-2.35-5.57-2.63-8.71-2.63-.52,0-1.01,0-1.47.01-.4,0-.78.01-1.11.01h-32.7v13.92s34,0,34.01,0Z"/><path class="cls-1" d="m511.41,87.28v-2.46c0-1.21,0-2.39.02-3.51.04-5.91.09-11.5-1.59-12.98l-.1-.09c-.72-.71-2.81-1.55-8.67-1.55h-1.96s-31.2.01-31.2.01v20.59h-29.4V3.05h74.86c7.08,0,16.78,0,22.93,7.86,5.53,7,5.8,25.73,3.82,32.43-1.5,5.7-4.57,8.46-8.07,10.28.32.16.63.32.94.5,8.06,4.87,7.93,15.66,7.85,22.8,0,.66-.02,1.29-.02,1.88v8.47h-29.4Zm-9.5-45.9c2.3,0,8.35,0,10.11-2.64.75-1.19.83-6.93-.13-8.74-1.25-2.37-5.57-2.64-8.71-2.64-.52,0-1.01,0-1.47.01-.4,0-.78.01-1.11.01h-32.7v13.99s34,0,34.01,0Z"/><path class="cls-1" d="m510.61,86.69v-2.48c0-1.22,0-2.4.02-3.53.04-5.94.09-11.56-1.59-13.04l-.1-.09c-.72-.71-2.81-1.56-8.67-1.56h-1.96s-31.2.01-31.2.01v20.69h-29.4V2.04h74.86c7.08,0,16.78,0,22.93,7.9,5.53,7.04,5.8,25.86,3.82,32.6-1.5,5.73-4.57,8.51-8.07,10.34.32.16.63.32.94.5,8.06,4.9,7.93,15.74,7.85,22.92,0,.67-.02,1.3-.02,1.89v8.51h-29.4Zm-9.5-46.13c2.3,0,8.35,0,10.11-2.65.75-1.2.83-6.97-.13-8.78-1.25-2.38-5.57-2.65-8.71-2.65-.52,0-1.01,0-1.47.01-.4,0-.78.01-1.11.01h-32.7v14.06s34,0,34.01,0Z"/><path class="cls-1" d="m509.81,86.11v-2.49c0-1.23,0-2.41.02-3.55.04-5.97.09-11.62-1.59-13.11l-.1-.09c-.72-.72-2.81-1.57-8.67-1.57h-1.96s-31.2.01-31.2.01v20.8h-29.4V1.03h74.86c7.08,0,16.78,0,22.93,7.93,5.53,7.07,5.8,25.99,3.82,32.76-1.5,5.76-4.57,8.55-8.07,10.39.32.16.63.33.94.51,8.06,4.92,7.93,15.82,7.85,23.03,0,.67-.02,1.3-.02,1.9v8.56h-29.4Zm-9.5-46.36c2.3,0,8.35,0,10.11-2.67.75-1.21.83-7-.13-8.83-1.25-2.39-5.57-2.67-8.71-2.67-.52,0-1.01,0-1.47.01-.4,0-.78.01-1.11.01h-32.7v14.13s34,0,34.01,0Z"/><path class="cls-1" d="m509.01,85.53v-2.5c0-1.23,0-2.42.02-3.57.04-6,.09-11.67-1.59-13.17l-.1-.09c-.72-.72-2.81-1.58-8.67-1.58h-1.96s-31.2.01-31.2.01v20.9h-29.4V.02h74.86c7.08,0,16.78,0,22.93,7.97,5.53,7.11,5.8,26.12,3.82,32.92-1.5,5.79-4.57,8.59-8.07,10.44.32.16.63.33.94.51,8.06,4.94,7.93,15.9,7.85,23.15,0,.67-.02,1.31-.02,1.91v8.6h-29.4Zm-9.5-46.6c2.3,0,8.35,0,10.11-2.68.75-1.21.83-7.04-.13-8.87-1.25-2.4-5.57-2.68-8.71-2.68-.52,0-1.01,0-1.47.01-.4,0-.78.01-1.11.01h-32.7v14.2s34,0,34.01,0Z"/></g><path class="cls-3" d="m531.91,9.52c4.9,6.3,5.2,24.5,3.4,30.7-2,7.7-6.8,9.1-12.5,11.3,2.9.9,4.8,1.5,6.5,2.5,7.5,4.6,6.6,16.3,6.6,22.9v6.1h-24.4c0-9.2.5-16-2.4-18.6-2.6-2.6-9.6-2.3-12.4-2.3h-33.7v20.9h-24.4V2.52h69.8c8.7,0,17.8-.4,23.5,7Zm-33.9,31.9c3.4,0,11,.3,13.7-3.8,1.3-2.1,1.3-8.9,0-11.4-2.4-4.6-10.1-4-13.5-4h-35.2v19.2h35Z"/></g><g><g><path class="cls-1" d="m81.51,211.26v-2.38c0-1.17,0-2.3.02-3.39.04-5.71.09-11.1-1.59-12.53l-.1-.09c-.72-.68-2.81-1.5-8.67-1.5h-1.96s-31.2.01-31.2.01v19.88H8.61v-81.32h74.86c7.08,0,16.78,0,22.93,7.58,5.53,6.76,5.8,24.84,3.82,31.32-1.5,5.51-4.57,8.17-8.07,9.93.32.15.63.31.94.48,8.06,4.7,7.93,15.12,7.85,22.02,0,.64-.02,1.25-.02,1.81v8.18h-29.4Zm-9.5-44.32c2.3,0,8.35,0,10.11-2.55.75-1.15.83-6.69-.13-8.44-1.25-2.28-5.57-2.55-8.71-2.55-.52,0-1.01,0-1.47.01-.4,0-.78.01-1.11.01h-32.7v13.51s34,0,34.01,0Z"/><path class="cls-1" d="m80.71,210.7v-2.39c0-1.18,0-2.32.02-3.41.04-5.74.09-11.16-1.59-12.59l-.1-.09c-.72-.69-2.81-1.51-8.67-1.51h-1.96s-31.2.01-31.2.01v19.98H7.81v-81.73h74.86c7.08,0,16.78,0,22.93,7.62,5.53,6.79,5.8,24.97,3.82,31.47-1.5,5.53-4.57,8.21-8.07,9.98.32.15.63.31.94.49,8.06,4.73,7.93,15.2,7.85,22.13,0,.64-.02,1.25-.02,1.82v8.22h-29.4Zm-9.5-44.54c2.3,0,8.35,0,10.11-2.56.75-1.16.83-6.73-.13-8.48-1.25-2.3-5.57-2.56-8.71-2.56-.52,0-1.01,0-1.47.01-.4,0-.78.01-1.11.01h-32.7v13.57s34,0,34.01,0Z"/><path class="cls-1" d="m79.91,210.13v-2.4c0-1.18,0-2.33.02-3.43.04-5.77.09-11.21-1.59-12.66l-.1-.09c-.72-.69-2.81-1.52-8.67-1.52h-1.96s-31.2.01-31.2.01v20.08H7.01v-82.14h74.86c7.08,0,16.78,0,22.93,7.66,5.53,6.83,5.8,25.09,3.82,31.63-1.5,5.56-4.57,8.26-8.07,10.03.32.15.63.32.94.49,8.06,4.75,7.93,15.27,7.85,22.24,0,.65-.02,1.26-.02,1.83v8.26h-29.4Zm-9.5-44.77c2.3,0,8.35,0,10.11-2.57.75-1.17.83-6.76-.13-8.52-1.25-2.31-5.57-2.57-8.71-2.57-.52,0-1.01,0-1.47.01-.4,0-.78.01-1.11.01h-32.7v13.64s34,0,34.01,0Z"/><path class="cls-1" d="m79.11,209.57v-2.41c0-1.19,0-2.34.02-3.44.04-5.8.09-11.27-1.59-12.72l-.1-.09c-.72-.69-2.81-1.52-8.67-1.52h-1.96s-31.2.01-31.2.01v20.18H6.21v-82.56h74.86c7.08,0,16.78,0,22.93,7.7,5.53,6.86,5.8,25.22,3.82,31.79-1.5,5.59-4.57,8.3-8.07,10.08.32.15.63.32.94.49,8.06,4.77,7.93,15.35,7.85,22.35,0,.65-.02,1.27-.02,1.84v8.3h-29.4Zm-9.5-44.99c2.3,0,8.35,0,10.11-2.59.75-1.17.83-6.79-.13-8.57-1.25-2.32-5.57-2.59-8.71-2.59-.52,0-1.01,0-1.47.01-.4,0-.78.01-1.11.01h-32.7v13.71s34,0,34.01,0Z"/><path class="cls-1" d="m78.31,209v-2.43c0-1.2,0-2.35.02-3.46.04-5.83.09-11.33-1.59-12.78l-.1-.09c-.72-.7-2.81-1.53-8.67-1.53h-1.96s-31.2.01-31.2.01v20.28H5.41v-82.97h74.86c7.08,0,16.78,0,22.93,7.74,5.53,6.9,5.8,25.35,3.82,31.95-1.5,5.62-4.57,8.34-8.07,10.13.32.15.63.32.94.49,8.06,4.8,7.93,15.43,7.85,22.46,0,.65-.02,1.27-.02,1.85v8.35h-29.4Zm-9.5-45.22c2.3,0,8.35,0,10.11-2.6.75-1.18.83-6.83-.13-8.61-1.25-2.33-5.57-2.6-8.71-2.6-.52,0-1.01,0-1.47.01-.4,0-.78.01-1.11.01h-32.7v13.78s34,0,34.01,0Z"/><path class="cls-1" d="m77.51,208.43v-2.44c0-1.2,0-2.36.02-3.48.04-5.85.09-11.38-1.59-12.85l-.1-.09c-.72-.7-2.81-1.54-8.67-1.54h-1.96s-31.2.01-31.2.01v20.38H4.61v-83.39h74.86c7.08,0,16.78,0,22.93,7.78,5.53,6.93,5.8,25.47,3.82,32.11-1.5,5.65-4.57,8.38-8.07,10.18.32.16.63.32.94.5,8.06,4.82,7.93,15.51,7.85,22.58,0,.66-.02,1.28-.02,1.86v8.39h-29.4Zm-9.5-45.44c2.3,0,8.35,0,10.11-2.61.75-1.18.83-6.86-.13-8.65-1.25-2.34-5.57-2.61-8.71-2.61-.52,0-1.01,0-1.47.01-.4,0-.78.01-1.11.01h-32.7v13.85s34,0,34.01,0Z"/><path class="cls-1" d="m76.71,207.85v-2.45c0-1.21,0-2.37.02-3.49.04-5.88.09-11.44-1.59-12.91l-.1-.09c-.72-.71-2.81-1.55-8.67-1.55h-1.96s-31.2.01-31.2.01v20.49H3.81v-83.81h74.86c7.08,0,16.78,0,22.93,7.82,5.53,6.97,5.8,25.6,3.82,32.27-1.5,5.67-4.57,8.42-8.07,10.23.32.16.63.32.94.5,8.06,4.85,7.93,15.58,7.85,22.69,0,.66-.02,1.29-.02,1.87v8.43h-29.4Zm-9.5-45.67c2.3,0,8.35,0,10.11-2.63.75-1.19.83-6.9-.13-8.7-1.25-2.35-5.57-2.63-8.71-2.63-.52,0-1.01,0-1.47.01-.4,0-.78.01-1.11.01h-32.7v13.92s34,0,34.01,0Z"/><path class="cls-1" d="m75.91,207.28v-2.46c0-1.21,0-2.39.02-3.51.04-5.91.09-11.5-1.59-12.98l-.1-.09c-.72-.71-2.81-1.55-8.67-1.55h-1.96s-31.2.01-31.2.01v20.59H3.01v-84.23h74.86c7.08,0,16.78,0,22.93,7.86,5.53,7,5.8,25.73,3.82,32.43-1.5,5.7-4.57,8.46-8.07,10.28.32.16.63.32.94.5,8.06,4.87,7.93,15.66,7.85,22.8,0,.66-.02,1.29-.02,1.88v8.47h-29.4Zm-9.5-45.9c2.3,0,8.35,0,10.11-2.64.75-1.19.83-6.93-.13-8.74-1.25-2.37-5.57-2.64-8.71-2.64-.52,0-1.01,0-1.47.01-.4,0-.78.01-1.11.01h-32.7v13.99s34,0,34.01,0Z"/><path class="cls-1" d="m75.11,206.69v-2.48c0-1.22,0-2.4.02-3.53.04-5.94.09-11.56-1.59-13.04l-.1-.09c-.72-.71-2.81-1.56-8.67-1.56h-1.96s-31.2.01-31.2.01v20.69H2.21v-84.65h74.86c7.08,0,16.78,0,22.93,7.9,5.53,7.04,5.8,25.86,3.82,32.6-1.5,5.73-4.57,8.51-8.07,10.34.32.16.63.32.94.5,8.06,4.9,7.93,15.74,7.85,22.92,0,.67-.02,1.3-.02,1.89v8.51h-29.4Zm-9.5-46.13c2.3,0,8.35,0,10.11-2.65.75-1.2.83-6.97-.13-8.78-1.25-2.38-5.57-2.65-8.71-2.65-.52,0-1.01,0-1.47.01-.4,0-.78.01-1.11.01H31.61v14.06s34,0,34.01,0Z"/><path class="cls-1" d="m74.31,206.11v-2.49c0-1.23,0-2.41.02-3.55.04-5.97.09-11.62-1.59-13.11l-.1-.09c-.72-.72-2.81-1.57-8.67-1.57h-1.96s-31.2.01-31.2.01v20.8H1.41v-85.08h74.86c7.08,0,16.78,0,22.93,7.93,5.53,7.07,5.8,25.99,3.82,32.76-1.5,5.76-4.57,8.55-8.07,10.39.32.16.63.33.94.51,8.06,4.92,7.93,15.82,7.85,23.03,0,.67-.02,1.3-.02,1.9v8.56h-29.4Zm-9.5-46.36c2.3,0,8.35,0,10.11-2.67.75-1.21.83-7-.13-8.83-1.25-2.39-5.57-2.67-8.71-2.67-.52,0-1.01,0-1.47.01-.4,0-.78.01-1.11.01H30.81v14.13s34,0,34.01,0Z"/><path class="cls-1" d="m73.51,205.53v-2.5c0-1.23,0-2.42.02-3.57.04-6,.09-11.67-1.59-13.17l-.1-.09c-.72-.72-2.81-1.58-8.67-1.58h-1.96s-31.2.01-31.2.01v20.9H.61v-85.5h74.86c7.08,0,16.78,0,22.93,7.97,5.53,7.11,5.8,26.12,3.82,32.92-1.5,5.79-4.57,8.59-8.07,10.44.32.16.63.33.94.51,8.06,4.94,7.93,15.9,7.85,23.15,0,.67-.02,1.31-.02,1.91v8.6h-29.4Zm-9.5-46.6c2.3,0,8.35,0,10.11-2.68.75-1.21.83-7.04-.13-8.87-1.25-2.4-5.57-2.68-8.71-2.68-.52,0-1.01,0-1.47.01-.4,0-.78.01-1.11.01H30.01v14.2s34,0,34.01,0Z"/></g><path class="cls-2" d="m96.41,129.52c4.9,6.3,5.2,24.5,3.4,30.7-2,7.7-6.8,9.1-12.5,11.3,2.9.9,4.8,1.5,6.5,2.5,7.5,4.6,6.6,16.3,6.6,22.9v6.1h-24.4c0-9.2.5-16-2.4-18.6-2.6-2.6-9.6-2.3-12.4-2.3H27.51v20.9H3.11v-80.5h69.8c8.7,0,17.8-.4,23.5,7Zm-33.9,31.9c3.4,0,11,.3,13.7-3.8,1.3-2.1,1.3-8.9,0-11.4-2.4-4.6-10.1-4-13.5-4H27.51v19.2h35Z"/></g><g><g><path class="cls-1" d="m148.64,211.27c-7.42,0-14.17-.59-21.63-7.86-7.71-7.62-7.59-19.99-7.52-26.64,0-.56.01-1.08.01-1.56v-45.28h29.4v39.95c0,.56,0,1.16-.02,1.8-.05,4.18-.14,11.17,2.51,13.75,2.25,2.09,6.03,2.36,9.07,2.36.57,0,1.12,0,1.62-.02.47,0,.92-.01,1.32-.01h19.8c.25,0,.55,0,.89.01.41,0,.89.02,1.42.02,4.09,0,6.84-.74,8.4-2.26,2.04-2.06,1.98-6.99,1.92-12.2-.01-.95-.02-1.91-.02-2.88v-40.52h29.4v47.75c0,.86,0,1.72.02,2.57.08,7.97.17,16.21-7.03,23.24-8.06,7.76-18.55,7.76-26.98,7.76h-2.92s-36,0-36,0c-.63,0-3.07.01-3.66.01Z"/><path class="cls-1" d="m147.84,210.71c-7.42,0-14.17-.59-21.63-7.9-7.71-7.66-7.59-20.1-7.52-26.78,0-.56.01-1.09.01-1.56v-45.5h29.4v40.15c0,.56,0,1.17-.02,1.81-.05,4.2-.14,11.22,2.51,13.82,2.25,2.1,6.03,2.37,9.07,2.37.57,0,1.12,0,1.62-.02.47,0,.92-.01,1.32-.01h19.8c.25,0,.55,0,.89.01.41,0,.89.02,1.42.02,4.09,0,6.84-.74,8.4-2.27,2.04-2.07,1.98-7.02,1.92-12.26-.01-.95-.02-1.92-.02-2.9v-40.72h29.4v47.99c0,.86,0,1.73.02,2.59.08,8.01.17,16.29-7.03,23.36-8.06,7.8-18.55,7.8-26.98,7.8h-2.92s-36,0-36,0c-.63,0-3.07.01-3.66.01Z"/><path class="cls-1" d="m147.04,210.15c-7.42,0-14.17-.6-21.63-7.94-7.71-7.7-7.59-20.2-7.52-26.91,0-.56.01-1.09.01-1.57v-45.73h29.4v40.35c0,.56,0,1.17-.02,1.82-.05,4.22-.14,11.28,2.51,13.89,2.25,2.11,6.03,2.38,9.07,2.38.57,0,1.12,0,1.62-.02.47,0,.92-.02,1.32-.02h19.8c.25,0,.55,0,.89.01.41,0,.89.02,1.42.02,4.09,0,6.84-.75,8.4-2.29,2.04-2.08,1.98-7.06,1.92-12.32-.01-.96-.02-1.93-.02-2.91v-40.93h29.4v48.23c0,.87,0,1.74.02,2.6.08,8.05.17,16.37-7.03,23.48-8.06,7.84-18.55,7.84-26.98,7.84h-2.92s-36,0-36,0c-.63,0-3.07.01-3.66.01Z"/><path class="cls-1" d="m146.24,209.58c-7.42,0-14.17-.6-21.63-7.98-7.71-7.74-7.59-20.3-7.52-27.05,0-.57.01-1.1.01-1.58v-45.96h29.4v40.55c0,.56,0,1.18-.02,1.83-.05,4.24-.14,11.34,2.51,13.96,2.25,2.12,6.03,2.39,9.07,2.39.57,0,1.12,0,1.62-.02.47,0,.92-.02,1.32-.02h19.8c.25,0,.55,0,.89.01.41,0,.89.02,1.42.02,4.09,0,6.84-.75,8.4-2.3,2.04-2.09,1.98-7.09,1.92-12.38-.01-.96-.02-1.94-.02-2.93v-41.13h29.4v48.47c0,.87,0,1.75.02,2.61.08,8.09.17,16.45-7.03,23.6-8.06,7.88-18.55,7.88-26.98,7.88h-2.92s-36,0-36,0c-.63,0-3.07.01-3.66.01Z"/><path class="cls-1" d="m145.44,209.01c-7.42,0-14.17-.6-21.63-8.02-7.71-7.78-7.59-20.4-7.52-27.18,0-.57.01-1.1.01-1.59v-46.19h29.4v40.76c0,.57,0,1.19-.02,1.84-.05,4.26-.14,11.39,2.51,14.03,2.25,2.13,6.03,2.41,9.07,2.41.57,0,1.12,0,1.62-.02.47,0,.92-.02,1.32-.02h19.8c.25,0,.55,0,.89.01.41,0,.89.02,1.42.02,4.09,0,6.84-.76,8.4-2.31,2.04-2.1,1.98-7.13,1.92-12.45-.01-.97-.02-1.95-.02-2.94v-41.34h29.4v48.72c0,.88,0,1.75.02,2.63.08,8.13.17,16.54-7.03,23.71-8.06,7.92-18.55,7.92-26.98,7.92h-2.92s-36,0-36,0c-.63,0-3.07.01-3.66.01Z"/><path class="cls-1" d="m144.64,208.44c-7.42,0-14.17-.61-21.63-8.06-7.71-7.82-7.59-20.5-7.52-27.32,0-.57.01-1.11.01-1.6v-46.42h29.4v40.96c0,.57,0,1.19-.02,1.85-.05,4.28-.14,11.45,2.51,14.1,2.25,2.14,6.03,2.42,9.07,2.42.57,0,1.12,0,1.62-.02.47,0,.92-.02,1.32-.02h19.8c.25,0,.55,0,.89.01.41,0,.89.02,1.42.02,4.09,0,6.84-.76,8.4-2.32,2.04-2.11,1.98-7.16,1.92-12.51-.01-.97-.02-1.96-.02-2.96v-41.55h29.4v48.96c0,.88,0,1.76.02,2.64.08,8.17.17,16.62-7.03,23.83-8.06,7.96-18.55,7.96-26.98,7.96h-2.92s-36,0-36,0c-.63,0-3.07.01-3.66.01Z"/><path class="cls-1" d="m143.84,207.87c-7.42,0-14.17-.61-21.63-8.1-7.71-7.85-7.59-20.61-7.52-27.46,0-.58.01-1.11.01-1.6v-46.66h29.4v41.17c0,.57,0,1.2-.02,1.86-.05,4.3-.14,11.51,2.51,14.17,2.25,2.15,6.03,2.43,9.07,2.43.57,0,1.12,0,1.62-.02.47,0,.92-.02,1.32-.02h19.8c.25,0,.55,0,.89.01.41,0,.89.02,1.42.02,4.09,0,6.84-.76,8.4-2.33,2.04-2.12,1.98-7.2,1.92-12.57-.01-.98-.02-1.97-.02-2.97v-41.76h29.4v49.21c0,.89,0,1.77.02,2.65.08,8.21.17,16.7-7.03,23.95-8.06,8-18.55,8-26.98,8h-2.92s-36,0-36,0c-.63,0-3.07.01-3.66.01Z"/><path class="cls-1" d="m143.04,207.29c-7.42,0-14.17-.61-21.63-8.15-7.71-7.89-7.59-20.71-7.52-27.59,0-.58.01-1.12.01-1.61v-46.89h29.4v41.38c0,.58,0,1.2-.02,1.87-.05,4.33-.14,11.57,2.51,14.24,2.25,2.16,6.03,2.44,9.07,2.44.57,0,1.12,0,1.62-.02.47,0,.92-.02,1.32-.02h19.8c.25,0,.55,0,.89.01.41,0,.89.02,1.42.02,4.09,0,6.84-.77,8.4-2.34,2.04-2.13,1.98-7.24,1.92-12.64-.01-.98-.02-1.98-.02-2.99v-41.97h29.4v49.45c0,.89,0,1.78.02,2.67.08,8.25.17,16.79-7.03,24.07-8.06,8.04-18.55,8.04-26.98,8.04h-2.92s-36,0-36,0c-.63,0-3.07.01-3.66.01Z"/><path class="cls-1" d="m142.24,206.71c-7.42,0-14.17-.62-21.63-8.19-7.71-7.93-7.59-20.81-7.52-27.73,0-.58.01-1.12.01-1.62v-47.13h29.4v41.58c0,.58,0,1.21-.02,1.88-.05,4.35-.14,11.62,2.51,14.32,2.25,2.17,6.03,2.45,9.07,2.45.57,0,1.12,0,1.62-.02.47,0,.92-.02,1.32-.02h19.8c.25,0,.55,0,.89.01.41,0,.89.02,1.42.02,4.09,0,6.84-.77,8.4-2.36,2.04-2.14,1.98-7.27,1.92-12.7-.01-.99-.02-1.99-.02-3v-42.18h29.4v49.7c0,.9,0,1.79.02,2.68.08,8.3.17,16.87-7.03,24.19-8.06,8.08-18.55,8.08-26.98,8.08h-2.92s-36,0-36,0c-.63,0-3.07.01-3.66.01Z"/><path class="cls-1" d="m141.44,206.13c-7.42,0-14.17-.62-21.63-8.23-7.71-7.97-7.59-20.92-7.52-27.87,0-.58.01-1.13.01-1.63v-47.36h29.4v41.79c0,.58,0,1.22-.02,1.89-.05,4.37-.14,11.68,2.51,14.39,2.25,2.18,6.03,2.47,9.07,2.47.57,0,1.12,0,1.62-.02.47,0,.92-.02,1.32-.02h19.8c.25,0,.55,0,.89.01.41,0,.89.02,1.42.02,4.09,0,6.84-.77,8.4-2.37,2.04-2.15,1.98-7.31,1.92-12.76-.01-.99-.02-2-.02-3.02v-42.39h29.4v49.95c0,.9,0,1.8.02,2.69.08,8.34.17,16.96-7.03,24.32-8.06,8.12-18.55,8.12-26.98,8.12h-2.92s-36,0-36,0c-.63,0-3.07.01-3.66.01Z"/><path class="cls-1" d="m140.64,205.54c-7.42,0-14.17-.62-21.63-8.27-7.71-8.01-7.59-21.02-7.52-28.01,0-.59.01-1.14.01-1.64v-47.6h29.4v42c0,.58,0,1.22-.02,1.9-.05,4.39-.14,11.74,2.51,14.46,2.25,2.19,6.03,2.48,9.07,2.48.57,0,1.12,0,1.62-.02.47,0,.92-.02,1.32-.02h19.8c.25,0,.55,0,.89.01.41,0,.89.02,1.42.02,4.09,0,6.84-.78,8.4-2.38,2.04-2.17,1.98-7.34,1.92-12.83-.01-1-.02-2.01-.02-3.03v-42.6h29.4v50.2c0,.9,0,1.81.02,2.71.08,8.38.17,17.04-7.03,24.44-8.06,8.16-18.55,8.16-26.98,8.16h-2.92s-36,0-36,0c-.63,0-3.07.01-3.66.01Z"/></g><path class="cls-2" d="m138.41,122.52v39.5c0,5.1-.6,14.2,3.2,18.1,3.9,3.8,10.3,3.2,13.8,3.2h19.8c2.2,0,8.9.6,12.5-3.1,3.2-3.4,2.6-10.3,2.6-17.6v-40.1h24.4v47.7c0,9.1.9,18-6.3,25.4-7.7,7.8-17.6,7.4-28.1,7.4h-36c-8.6,0-15.5.7-23.5-7.5-7.6-7.9-6.8-21.6-6.8-27.9v-45.1h24.4Z"/></g><g><g><polygon class="cls-1" points="233.31 211.26 233.31 129.93 262.71 129.93 262.71 187.76 317.71 187.76 317.71 211.26 233.31 211.26"/><polygon class="cls-1" points="232.51 210.7 232.51 128.96 261.91 128.96 261.91 187.09 316.91 187.09 316.91 210.7 232.51 210.7"/><polygon class="cls-1" points="231.71 210.13 231.71 127.99 261.11 127.99 261.11 186.4 316.11 186.4 316.11 210.13 231.71 210.13"/><polygon class="cls-1" points="230.91 209.57 230.91 127.01 260.31 127.01 260.31 185.72 315.31 185.72 315.31 209.57 230.91 209.57"/><polygon class="cls-1" points="230.11 209 230.11 126.03 259.51 126.03 259.51 185.03 314.51 185.03 314.51 209 230.11 209"/><polygon class="cls-1" points="229.31 208.43 229.31 125.04 258.71 125.04 258.71 184.34 313.71 184.34 313.71 208.43 229.31 208.43"/><polygon class="cls-1" points="228.51 207.85 228.51 124.05 257.91 124.05 257.91 183.64 312.91 183.64 312.91 207.85 228.51 207.85"/><polygon class="cls-1" points="227.71 207.28 227.71 123.05 257.11 123.05 257.11 182.94 312.11 182.94 312.11 207.28 227.71 207.28"/><polygon class="cls-1" points="226.91 206.69 226.91 122.04 256.31 122.04 256.31 182.24 311.31 182.24 311.31 206.69 226.91 206.69"/><polygon class="cls-1" points="226.11 206.11 226.11 121.03 255.51 121.03 255.51 181.53 310.51 181.53 310.51 206.11 226.11 206.11"/><polygon class="cls-1" points="225.31 205.53 225.31 120.02 254.71 120.02 254.71 180.82 309.71 180.82 309.71 205.53 225.31 205.53"/></g><path class="cls-2" d="m252.21,122.52v60.8h55v19.7h-79.41v-80.5h24.4Z"/></g><g><g><polygon class="cls-1" points="454.2 211.26 454.2 153.43 420.3 153.43 420.3 129.93 518.21 129.93 518.21 153.43 483.61 153.43 483.61 211.26 454.2 211.26"/><polygon class="cls-1" points="453.4 210.7 453.4 152.58 419.5 152.58 419.5 128.96 517.41 128.96 517.41 152.58 482.81 152.58 482.81 210.7 453.4 210.7"/><polygon class="cls-1" points="452.6 210.13 452.6 151.72 418.7 151.72 418.7 127.99 516.61 127.99 516.61 151.72 482.01 151.72 482.01 210.13 452.6 210.13"/><polygon class="cls-1" points="451.8 209.57 451.8 150.86 417.9 150.86 417.9 127.01 515.81 127.01 515.81 150.86 481.21 150.86 481.21 209.57 451.8 209.57"/><polygon class="cls-1" points="451 209 451 150 417.1 150 417.1 126.03 515.01 126.03 515.01 150 480.41 150 480.41 209 451 209"/><polygon class="cls-1" points="450.2 208.43 450.2 149.13 416.3 149.13 416.3 125.04 514.21 125.04 514.21 149.13 479.61 149.13 479.61 208.43 450.2 208.43"/><polygon class="cls-1" points="449.4 207.85 449.4 148.26 415.5 148.26 415.5 124.05 513.41 124.05 513.41 148.26 478.81 148.26 478.81 207.85 449.4 207.85"/><polygon class="cls-1" points="448.6 207.28 448.6 147.38 414.7 147.38 414.7 123.05 512.61 123.05 512.61 147.38 478.01 147.38 478.01 207.28 448.6 207.28"/><polygon class="cls-1" points="447.8 206.69 447.8 146.5 413.9 146.5 413.9 122.04 511.81 122.04 511.81 146.5 477.21 146.5 477.21 206.69 447.8 206.69"/><polygon class="cls-1" points="447 206.11 447 145.61 413.1 145.61 413.1 121.03 511.01 121.03 511.01 145.61 476.41 145.61 476.41 206.11 447 206.11"/><polygon class="cls-1" points="446.2 205.53 446.2 144.72 412.3 144.72 412.3 120.02 510.21 120.02 510.21 144.72 475.61 144.72 475.61 205.53 446.2 205.53"/></g><path class="cls-2" d="m507.71,142.22h-34.6v60.8h-24.4v-60.8h-33.9v-19.7h92.91v19.7Z"/></g><g><g><path class="cls-1" d="m585.83,211.26l-8-13.79h-46.39l-7.3,13.79h-32.71l45.57-81.32h34.89l46.31,81.32h-32.37Zm-19.87-34.62l-11.52-20.8-11.16,20.8h22.68Z"/><path class="cls-1" d="m585.03,210.7l-8-13.86h-46.39l-7.3,13.86h-32.71l45.57-81.73h34.89l46.31,81.73h-32.37Zm-19.87-34.8l-11.52-20.91-11.16,20.91h22.68Z"/><path class="cls-1" d="m584.23,210.13l-8-13.93h-46.39l-7.3,13.93h-32.71l45.57-82.14h34.89l46.31,82.14h-32.37Zm-19.87-34.97l-11.52-21.01-11.16,21.01h22.68Z"/><path class="cls-1" d="m583.43,209.57l-8-14h-46.39l-7.3,14h-32.71l45.57-82.56h34.89l46.31,82.56h-32.37Zm-19.87-35.15l-11.52-21.12-11.16,21.12h22.68Z"/><path class="cls-1" d="m582.63,209l-8-14.07h-46.39l-7.3,14.07h-32.71l45.57-82.97h34.89l46.31,82.97h-32.37Zm-19.87-35.32l-11.52-21.22-11.16,21.22h22.68Z"/><path class="cls-1" d="m581.83,208.43l-8-14.14h-46.39l-7.3,14.14h-32.71l45.57-83.39h34.89l46.31,83.39h-32.37Zm-19.87-35.5l-11.52-21.33-11.16,21.33h22.68Z"/><path class="cls-1" d="m581.03,207.85l-8-14.21h-46.39l-7.3,14.21h-32.71l45.57-83.81h34.89l46.31,83.81h-32.37Zm-19.87-35.68l-11.52-21.44-11.16,21.44h22.68Z"/><path class="cls-1" d="m580.23,207.28l-8-14.28h-46.39l-7.3,14.28h-32.71l45.57-84.23h34.89l46.31,84.23h-32.37Zm-19.87-35.86l-11.52-21.54-11.16,21.54h22.68Z"/><path class="cls-1" d="m579.43,206.69l-8-14.36h-46.39l-7.3,14.36h-32.71l45.57-84.65h34.89l46.31,84.65h-32.37Zm-19.87-36.04l-11.52-21.65-11.16,21.65h22.68Z"/><path class="cls-1" d="m578.63,206.11l-8-14.43h-46.39l-7.3,14.43h-32.71l45.57-85.08h34.89l46.31,85.08h-32.37Zm-19.87-36.22l-11.52-21.76-11.16,21.76h22.68Z"/><path class="cls-1" d="m577.83,205.53l-8-14.5h-46.39l-7.3,14.5h-32.71l45.57-85.5h34.89l46.31,85.5h-32.37Zm-19.87-36.4l-11.52-21.87-11.16,21.87h22.68Z"/></g><path class="cls-2" d="m562.41,122.52l43.6,80.5h-26.7l-8-14.5h-49.4l-7.3,14.5h-27l42.9-80.5h31.9Zm-.3,49.1l-15.7-29.8-15.2,29.8h30.9Z"/></g></g></svg>