<?xml version="1.0" encoding="UTF-8"?><svg id="Capa_2" xmlns="http://www.w3.org/2000/svg" width="649.85" height="649.85" viewBox="0 0 649.85 649.85"><defs><style>.cls-1{fill:none;stroke:#e0e6e6;stroke-miterlimit:10;}</style></defs><g id="Capa_1-2"><g><rect class="cls-1" x=".5" y=".5" width="34.15" height="34.15"/><rect class="cls-1" x="34.65" y=".5" width="34.15" height="34.15"/><rect class="cls-1" x="68.8" y=".5" width="34.15" height="34.15"/><rect class="cls-1" x="102.95" y=".5" width="34.15" height="34.15"/><rect class="cls-1" x="137.1" y=".5" width="34.15" height="34.15"/><rect class="cls-1" x="171.25" y=".5" width="34.15" height="34.15"/><rect class="cls-1" x="205.4" y=".5" width="34.15" height="34.15"/><rect class="cls-1" x="239.55" y=".5" width="34.15" height="34.15"/><rect class="cls-1" x="273.7" y=".5" width="34.15" height="34.15"/><rect class="cls-1" x="307.85" y=".5" width="34.15" height="34.15"/><rect class="cls-1" x="342" y=".5" width="34.15" height="34.15"/><rect class="cls-1" x="376.15" y=".5" width="34.15" height="34.15"/><rect class="cls-1" x="410.3" y=".5" width="34.15" height="34.15"/><rect class="cls-1" x="444.45" y=".5" width="34.15" height="34.15"/><rect class="cls-1" x="478.6" y=".5" width="34.15" height="34.15"/><rect class="cls-1" x="512.75" y=".5" width="34.15" height="34.15"/><rect class="cls-1" x="546.9" y=".5" width="34.15" height="34.15"/><rect class="cls-1" x="581.05" y=".5" width="34.15" height="34.15"/><rect class="cls-1" x="615.2" y=".5" width="34.15" height="34.15"/><rect class="cls-1" x=".5" y="34.65" width="34.15" height="34.15"/><rect class="cls-1" x="34.65" y="34.65" width="34.15" height="34.15"/><rect class="cls-1" x="68.8" y="34.65" width="34.15" height="34.15"/><rect class="cls-1" x="102.95" y="34.65" width="34.15" height="34.15"/><rect class="cls-1" x="137.1" y="34.65" width="34.15" height="34.15"/><rect class="cls-1" x="171.25" y="34.65" width="34.15" height="34.15"/><rect class="cls-1" x="205.4" y="34.65" width="34.15" height="34.15"/><rect class="cls-1" x="239.55" y="34.65" width="34.15" height="34.15"/><rect class="cls-1" x="273.7" y="34.65" width="34.15" height="34.15"/><rect class="cls-1" x="307.85" y="34.65" width="34.15" height="34.15"/><rect class="cls-1" x="342" y="34.65" width="34.15" height="34.15"/><rect class="cls-1" x="376.15" y="34.65" width="34.15" height="34.15"/><rect class="cls-1" x="410.3" y="34.65" width="34.15" height="34.15"/><rect class="cls-1" x="444.45" y="34.65" width="34.15" height="34.15"/><rect class="cls-1" x="478.6" y="34.65" width="34.15" height="34.15"/><rect class="cls-1" x="512.75" y="34.65" width="34.15" height="34.15"/><rect class="cls-1" x="546.9" y="34.65" width="34.15" height="34.15"/><rect class="cls-1" x="581.05" y="34.65" width="34.15" height="34.15"/><rect class="cls-1" x="615.2" y="34.65" width="34.15" height="34.15"/><rect class="cls-1" x=".5" y="68.8" width="34.15" height="34.15"/><rect class="cls-1" x="34.65" y="68.8" width="34.15" height="34.15"/><rect class="cls-1" x="68.8" y="68.8" width="34.15" height="34.15"/><rect class="cls-1" x="102.95" y="68.8" width="34.15" height="34.15"/><rect class="cls-1" x="137.1" y="68.8" width="34.15" height="34.15"/><rect class="cls-1" x="171.25" y="68.8" width="34.15" height="34.15"/><rect class="cls-1" x="205.4" y="68.8" width="34.15" height="34.15"/><rect class="cls-1" x="239.55" y="68.8" width="34.15" height="34.15"/><rect class="cls-1" x="273.7" y="68.8" width="34.15" height="34.15"/><rect class="cls-1" x="307.85" y="68.8" width="34.15" height="34.15"/><rect class="cls-1" x="342" y="68.8" width="34.15" height="34.15"/><rect class="cls-1" x="376.15" y="68.8" width="34.15" height="34.15"/><rect class="cls-1" x="410.3" y="68.8" width="34.15" height="34.15"/><rect class="cls-1" x="444.45" y="68.8" width="34.15" height="34.15"/><rect class="cls-1" x="478.6" y="68.8" width="34.15" height="34.15"/><rect class="cls-1" x="512.75" y="68.8" width="34.15" height="34.15"/><rect class="cls-1" x="546.9" y="68.8" width="34.15" height="34.15"/><rect class="cls-1" x="581.05" y="68.8" width="34.15" height="34.15"/><rect class="cls-1" x="615.2" y="68.8" width="34.15" height="34.15"/><rect class="cls-1" x=".5" y="102.95" width="34.15" height="34.15"/><rect class="cls-1" x="34.65" y="102.95" width="34.15" height="34.15"/><rect class="cls-1" x="68.8" y="102.95" width="34.15" height="34.15"/><rect class="cls-1" x="102.95" y="102.95" width="34.15" height="34.15"/><rect class="cls-1" x="137.1" y="102.95" width="34.15" height="34.15"/><rect class="cls-1" x="171.25" y="102.95" width="34.15" height="34.15"/><rect class="cls-1" x="205.4" y="102.95" width="34.15" height="34.15"/><rect class="cls-1" x="239.55" y="102.95" width="34.15" height="34.15"/><rect class="cls-1" x="273.7" y="102.95" width="34.15" height="34.15"/><rect class="cls-1" x="307.85" y="102.95" width="34.15" height="34.15"/><rect class="cls-1" x="342" y="102.95" width="34.15" height="34.15"/><rect class="cls-1" x="376.15" y="102.95" width="34.15" height="34.15"/><rect class="cls-1" x="410.3" y="102.95" width="34.15" height="34.15"/><rect class="cls-1" x="444.45" y="102.95" width="34.15" height="34.15"/><rect class="cls-1" x="478.6" y="102.95" width="34.15" height="34.15"/><rect class="cls-1" x="512.75" y="102.95" width="34.15" height="34.15"/><rect class="cls-1" x="546.9" y="102.95" width="34.15" height="34.15"/><rect class="cls-1" x="581.05" y="102.95" width="34.15" height="34.15"/><rect class="cls-1" x="615.2" y="102.95" width="34.15" height="34.15"/><rect class="cls-1" x=".5" y="137.1" width="34.15" height="34.15"/><rect class="cls-1" x="34.65" y="137.1" width="34.15" height="34.15"/><rect class="cls-1" x="68.8" y="137.1" width="34.15" height="34.15"/><rect class="cls-1" x="102.95" y="137.1" width="34.15" height="34.15"/><rect class="cls-1" x="137.1" y="137.1" width="34.15" height="34.15"/><rect class="cls-1" x="171.25" y="137.1" width="34.15" height="34.15"/><rect class="cls-1" x="205.4" y="137.1" width="34.15" height="34.15"/><rect class="cls-1" x="239.55" y="137.1" width="34.15" height="34.15"/><rect class="cls-1" x="273.7" y="137.1" width="34.15" height="34.15"/><rect class="cls-1" x="307.85" y="137.1" width="34.15" height="34.15"/><rect class="cls-1" x="342" y="137.1" width="34.15" height="34.15"/><rect class="cls-1" x="376.15" y="137.1" width="34.15" height="34.15"/><rect class="cls-1" x="410.3" y="137.1" width="34.15" height="34.15"/><rect class="cls-1" x="444.45" y="137.1" width="34.15" height="34.15"/><rect class="cls-1" x="478.6" y="137.1" width="34.15" height="34.15"/><rect class="cls-1" x="512.75" y="137.1" width="34.15" height="34.15"/><rect class="cls-1" x="546.9" y="137.1" width="34.15" height="34.15"/><rect class="cls-1" x="581.05" y="137.1" width="34.15" height="34.15"/><rect class="cls-1" x="615.2" y="137.1" width="34.15" height="34.15"/><rect class="cls-1" x=".5" y="171.25" width="34.15" height="34.15"/><rect class="cls-1" x="34.65" y="171.25" width="34.15" height="34.15"/><rect class="cls-1" x="68.8" y="171.25" width="34.15" height="34.15"/><rect class="cls-1" x="102.95" y="171.25" width="34.15" height="34.15"/><rect class="cls-1" x="137.1" y="171.25" width="34.15" height="34.15"/><rect class="cls-1" x="171.25" y="171.25" width="34.15" height="34.15"/><rect class="cls-1" x="205.4" y="171.25" width="34.15" height="34.15"/><rect class="cls-1" x="239.55" y="171.25" width="34.15" height="34.15"/><rect class="cls-1" x="273.7" y="171.25" width="34.15" height="34.15"/><rect class="cls-1" x="307.85" y="171.25" width="34.15" height="34.15"/><rect class="cls-1" x="342" y="171.25" width="34.15" height="34.15"/><rect class="cls-1" x="376.15" y="171.25" width="34.15" height="34.15"/><rect class="cls-1" x="410.3" y="171.25" width="34.15" height="34.15"/><rect class="cls-1" x="444.45" y="171.25" width="34.15" height="34.15"/><rect class="cls-1" x="478.6" y="171.25" width="34.15" height="34.15"/><rect class="cls-1" x="512.75" y="171.25" width="34.15" height="34.15"/><rect class="cls-1" x="546.9" y="171.25" width="34.15" height="34.15"/><rect class="cls-1" x="581.05" y="171.25" width="34.15" height="34.15"/><rect class="cls-1" x="615.2" y="171.25" width="34.15" height="34.15"/><rect class="cls-1" x=".5" y="205.4" width="34.15" height="34.15"/><rect class="cls-1" x="34.65" y="205.4" width="34.15" height="34.15"/><rect class="cls-1" x="68.8" y="205.4" width="34.15" height="34.15"/><rect class="cls-1" x="102.95" y="205.4" width="34.15" height="34.15"/><rect class="cls-1" x="137.1" y="205.4" width="34.15" height="34.15"/><rect class="cls-1" x="171.25" y="205.4" width="34.15" height="34.15"/><rect class="cls-1" x="205.4" y="205.4" width="34.15" height="34.15"/><rect class="cls-1" x="239.55" y="205.4" width="34.15" height="34.15"/><rect class="cls-1" x="273.7" y="205.4" width="34.15" height="34.15"/><rect class="cls-1" x="307.85" y="205.4" width="34.15" height="34.15"/><rect class="cls-1" x="342" y="205.4" width="34.15" height="34.15"/><rect class="cls-1" x="376.15" y="205.4" width="34.15" height="34.15"/><rect class="cls-1" x="410.3" y="205.4" width="34.15" height="34.15"/><rect class="cls-1" x="444.45" y="205.4" width="34.15" height="34.15"/><rect class="cls-1" x="478.6" y="205.4" width="34.15" height="34.15"/><rect class="cls-1" x="512.75" y="205.4" width="34.15" height="34.15"/><rect class="cls-1" x="546.9" y="205.4" width="34.15" height="34.15"/><rect class="cls-1" x="581.05" y="205.4" width="34.15" height="34.15"/><rect class="cls-1" x="615.2" y="205.4" width="34.15" height="34.15"/><rect class="cls-1" x=".5" y="239.55" width="34.15" height="34.15"/><rect class="cls-1" x="34.65" y="239.55" width="34.15" height="34.15"/><rect class="cls-1" x="68.8" y="239.55" width="34.15" height="34.15"/><rect class="cls-1" x="102.95" y="239.55" width="34.15" height="34.15"/><rect class="cls-1" x="137.1" y="239.55" width="34.15" height="34.15"/><rect class="cls-1" x="171.25" y="239.55" width="34.15" height="34.15"/><rect class="cls-1" x="205.4" y="239.55" width="34.15" height="34.15"/><rect class="cls-1" x="239.55" y="239.55" width="34.15" height="34.15"/><rect class="cls-1" x="273.7" y="239.55" width="34.15" height="34.15"/><rect class="cls-1" x="307.85" y="239.55" width="34.15" height="34.15"/><rect class="cls-1" x="342" y="239.55" width="34.15" height="34.15"/><rect class="cls-1" x="376.15" y="239.55" width="34.15" height="34.15"/><rect class="cls-1" x="410.3" y="239.55" width="34.15" height="34.15"/><rect class="cls-1" x="444.45" y="239.55" width="34.15" height="34.15"/><rect class="cls-1" x="478.6" y="239.55" width="34.15" height="34.15"/><rect class="cls-1" x="512.75" y="239.55" width="34.15" height="34.15"/><rect class="cls-1" x="546.9" y="239.55" width="34.15" height="34.15"/><rect class="cls-1" x="581.05" y="239.55" width="34.15" height="34.15"/><rect class="cls-1" x="615.2" y="239.55" width="34.15" height="34.15"/><rect class="cls-1" x=".5" y="273.7" width="34.15" height="34.15"/><rect class="cls-1" x="34.65" y="273.7" width="34.15" height="34.15"/><rect class="cls-1" x="68.8" y="273.7" width="34.15" height="34.15"/><rect class="cls-1" x="102.95" y="273.7" width="34.15" height="34.15"/><rect class="cls-1" x="137.1" y="273.7" width="34.15" height="34.15"/><rect class="cls-1" x="171.25" y="273.7" width="34.15" height="34.15"/><rect class="cls-1" x="205.4" y="273.7" width="34.15" height="34.15"/><rect class="cls-1" x="239.55" y="273.7" width="34.15" height="34.15"/><rect class="cls-1" x="273.7" y="273.7" width="34.15" height="34.15"/><rect class="cls-1" x="307.85" y="273.7" width="34.15" height="34.15"/><rect class="cls-1" x="342" y="273.7" width="34.15" height="34.15"/><rect class="cls-1" x="376.15" y="273.7" width="34.15" height="34.15"/><rect class="cls-1" x="410.3" y="273.7" width="34.15" height="34.15"/><rect class="cls-1" x="444.45" y="273.7" width="34.15" height="34.15"/><rect class="cls-1" x="478.6" y="273.7" width="34.15" height="34.15"/><rect class="cls-1" x="512.75" y="273.7" width="34.15" height="34.15"/><rect class="cls-1" x="546.9" y="273.7" width="34.15" height="34.15"/><rect class="cls-1" x="581.05" y="273.7" width="34.15" height="34.15"/><rect class="cls-1" x="615.2" y="273.7" width="34.15" height="34.15"/><rect class="cls-1" x=".5" y="307.85" width="34.15" height="34.15"/><rect class="cls-1" x="34.65" y="307.85" width="34.15" height="34.15"/><rect class="cls-1" x="68.8" y="307.85" width="34.15" height="34.15"/><rect class="cls-1" x="102.95" y="307.85" width="34.15" height="34.15"/><rect class="cls-1" x="137.1" y="307.85" width="34.15" height="34.15"/><rect class="cls-1" x="171.25" y="307.85" width="34.15" height="34.15"/><rect class="cls-1" x="205.4" y="307.85" width="34.15" height="34.15"/><rect class="cls-1" x="239.55" y="307.85" width="34.15" height="34.15"/><rect class="cls-1" x="273.7" y="307.85" width="34.15" height="34.15"/><rect class="cls-1" x="307.85" y="307.85" width="34.15" height="34.15"/><rect class="cls-1" x="342" y="307.85" width="34.15" height="34.15"/><rect class="cls-1" x="376.15" y="307.85" width="34.15" height="34.15"/><rect class="cls-1" x="410.3" y="307.85" width="34.15" height="34.15"/><rect class="cls-1" x="444.45" y="307.85" width="34.15" height="34.15"/><rect class="cls-1" x="478.6" y="307.85" width="34.15" height="34.15"/><rect class="cls-1" x="512.75" y="307.85" width="34.15" height="34.15"/><rect class="cls-1" x="546.9" y="307.85" width="34.15" height="34.15"/><rect class="cls-1" x="581.05" y="307.85" width="34.15" height="34.15"/><rect class="cls-1" x="615.2" y="307.85" width="34.15" height="34.15"/><rect class="cls-1" x=".5" y="342" width="34.15" height="34.15"/><rect class="cls-1" x="34.65" y="342" width="34.15" height="34.15"/><rect class="cls-1" x="68.8" y="342" width="34.15" height="34.15"/><rect class="cls-1" x="102.95" y="342" width="34.15" height="34.15"/><rect class="cls-1" x="137.1" y="342" width="34.15" height="34.15"/><rect class="cls-1" x="171.25" y="342" width="34.15" height="34.15"/><rect class="cls-1" x="205.4" y="342" width="34.15" height="34.15"/><rect class="cls-1" x="239.55" y="342" width="34.15" height="34.15"/><rect class="cls-1" x="273.7" y="342" width="34.15" height="34.15"/><rect class="cls-1" x="307.85" y="342" width="34.15" height="34.15"/><rect class="cls-1" x="342" y="342" width="34.15" height="34.15"/><rect class="cls-1" x="376.15" y="342" width="34.15" height="34.15"/><rect class="cls-1" x="410.3" y="342" width="34.15" height="34.15"/><rect class="cls-1" x="444.45" y="342" width="34.15" height="34.15"/><rect class="cls-1" x="478.6" y="342" width="34.15" height="34.15"/><rect class="cls-1" x="512.75" y="342" width="34.15" height="34.15"/><rect class="cls-1" x="546.9" y="342" width="34.15" height="34.15"/><rect class="cls-1" x="581.05" y="342" width="34.15" height="34.15"/><rect class="cls-1" x="615.2" y="342" width="34.15" height="34.15"/><rect class="cls-1" x=".5" y="376.15" width="34.15" height="34.15"/><rect class="cls-1" x="34.65" y="376.15" width="34.15" height="34.15"/><rect class="cls-1" x="68.8" y="376.15" width="34.15" height="34.15"/><rect class="cls-1" x="102.95" y="376.15" width="34.15" height="34.15"/><rect class="cls-1" x="137.1" y="376.15" width="34.15" height="34.15"/><rect class="cls-1" x="171.25" y="376.15" width="34.15" height="34.15"/><rect class="cls-1" x="205.4" y="376.15" width="34.15" height="34.15"/><rect class="cls-1" x="239.55" y="376.15" width="34.15" height="34.15"/><rect class="cls-1" x="273.7" y="376.15" width="34.15" height="34.15"/><rect class="cls-1" x="307.85" y="376.15" width="34.15" height="34.15"/><rect class="cls-1" x="342" y="376.15" width="34.15" height="34.15"/><rect class="cls-1" x="376.15" y="376.15" width="34.15" height="34.15"/><rect class="cls-1" x="410.3" y="376.15" width="34.15" height="34.15"/><rect class="cls-1" x="444.45" y="376.15" width="34.15" height="34.15"/><rect class="cls-1" x="478.6" y="376.15" width="34.15" height="34.15"/><rect class="cls-1" x="512.75" y="376.15" width="34.15" height="34.15"/><rect class="cls-1" x="546.9" y="376.15" width="34.15" height="34.15"/><rect class="cls-1" x="581.05" y="376.15" width="34.15" height="34.15"/><rect class="cls-1" x="615.2" y="376.15" width="34.15" height="34.15"/><rect class="cls-1" x=".5" y="410.3" width="34.15" height="34.15"/><rect class="cls-1" x="34.65" y="410.3" width="34.15" height="34.15"/><rect class="cls-1" x="68.8" y="410.3" width="34.15" height="34.15"/><rect class="cls-1" x="102.95" y="410.3" width="34.15" height="34.15"/><rect class="cls-1" x="137.1" y="410.3" width="34.15" height="34.15"/><rect class="cls-1" x="171.25" y="410.3" width="34.15" height="34.15"/><rect class="cls-1" x="205.4" y="410.3" width="34.15" height="34.15"/><rect class="cls-1" x="239.55" y="410.3" width="34.15" height="34.15"/><rect class="cls-1" x="273.7" y="410.3" width="34.15" height="34.15"/><rect class="cls-1" x="307.85" y="410.3" width="34.15" height="34.15"/><rect class="cls-1" x="342" y="410.3" width="34.15" height="34.15"/><rect class="cls-1" x="376.15" y="410.3" width="34.15" height="34.15"/><rect class="cls-1" x="410.3" y="410.3" width="34.15" height="34.15"/><rect class="cls-1" x="444.45" y="410.3" width="34.15" height="34.15"/><rect class="cls-1" x="478.6" y="410.3" width="34.15" height="34.15"/><rect class="cls-1" x="512.75" y="410.3" width="34.15" height="34.15"/><rect class="cls-1" x="546.9" y="410.3" width="34.15" height="34.15"/><rect class="cls-1" x="581.05" y="410.3" width="34.15" height="34.15"/><rect class="cls-1" x="615.2" y="410.3" width="34.15" height="34.15"/><rect class="cls-1" x=".5" y="444.45" width="34.15" height="34.15"/><rect class="cls-1" x="34.65" y="444.45" width="34.15" height="34.15"/><rect class="cls-1" x="68.8" y="444.45" width="34.15" height="34.15"/><rect class="cls-1" x="102.95" y="444.45" width="34.15" height="34.15"/><rect class="cls-1" x="137.1" y="444.45" width="34.15" height="34.15"/><rect class="cls-1" x="171.25" y="444.45" width="34.15" height="34.15"/><rect class="cls-1" x="205.4" y="444.45" width="34.15" height="34.15"/><rect class="cls-1" x="239.55" y="444.45" width="34.15" height="34.15"/><rect class="cls-1" x="273.7" y="444.45" width="34.15" height="34.15"/><rect class="cls-1" x="307.85" y="444.45" width="34.15" height="34.15"/><rect class="cls-1" x="342" y="444.45" width="34.15" height="34.15"/><rect class="cls-1" x="376.15" y="444.45" width="34.15" height="34.15"/><rect class="cls-1" x="410.3" y="444.45" width="34.15" height="34.15"/><rect class="cls-1" x="444.45" y="444.45" width="34.15" height="34.15"/><rect class="cls-1" x="478.6" y="444.45" width="34.15" height="34.15"/><rect class="cls-1" x="512.75" y="444.45" width="34.15" height="34.15"/><rect class="cls-1" x="546.9" y="444.45" width="34.15" height="34.15"/><rect class="cls-1" x="581.05" y="444.45" width="34.15" height="34.15"/><rect class="cls-1" x="615.2" y="444.45" width="34.15" height="34.15"/><rect class="cls-1" x=".5" y="478.6" width="34.15" height="34.15"/><rect class="cls-1" x="34.65" y="478.6" width="34.15" height="34.15"/><rect class="cls-1" x="68.8" y="478.6" width="34.15" height="34.15"/><rect class="cls-1" x="102.95" y="478.6" width="34.15" height="34.15"/><rect class="cls-1" x="137.1" y="478.6" width="34.15" height="34.15"/><rect class="cls-1" x="171.25" y="478.6" width="34.15" height="34.15"/><rect class="cls-1" x="205.4" y="478.6" width="34.15" height="34.15"/><rect class="cls-1" x="239.55" y="478.6" width="34.15" height="34.15"/><rect class="cls-1" x="273.7" y="478.6" width="34.15" height="34.15"/><rect class="cls-1" x="307.85" y="478.6" width="34.15" height="34.15"/><rect class="cls-1" x="342" y="478.6" width="34.15" height="34.15"/><rect class="cls-1" x="376.15" y="478.6" width="34.15" height="34.15"/><rect class="cls-1" x="410.3" y="478.6" width="34.15" height="34.15"/><rect class="cls-1" x="444.45" y="478.6" width="34.15" height="34.15"/><rect class="cls-1" x="478.6" y="478.6" width="34.15" height="34.15"/><rect class="cls-1" x="512.75" y="478.6" width="34.15" height="34.15"/><rect class="cls-1" x="546.9" y="478.6" width="34.15" height="34.15"/><rect class="cls-1" x="581.05" y="478.6" width="34.15" height="34.15"/><rect class="cls-1" x="615.2" y="478.6" width="34.15" height="34.15"/><rect class="cls-1" x=".5" y="512.75" width="34.15" height="34.15"/><rect class="cls-1" x="34.65" y="512.75" width="34.15" height="34.15"/><rect class="cls-1" x="68.8" y="512.75" width="34.15" height="34.15"/><rect class="cls-1" x="102.95" y="512.75" width="34.15" height="34.15"/><rect class="cls-1" x="137.1" y="512.75" width="34.15" height="34.15"/><rect class="cls-1" x="171.25" y="512.75" width="34.15" height="34.15"/><rect class="cls-1" x="205.4" y="512.75" width="34.15" height="34.15"/><rect class="cls-1" x="239.55" y="512.75" width="34.15" height="34.15"/><rect class="cls-1" x="273.7" y="512.75" width="34.15" height="34.15"/><rect class="cls-1" x="307.85" y="512.75" width="34.15" height="34.15"/><rect class="cls-1" x="342" y="512.75" width="34.15" height="34.15"/><rect class="cls-1" x="376.15" y="512.75" width="34.15" height="34.15"/><rect class="cls-1" x="410.3" y="512.75" width="34.15" height="34.15"/><rect class="cls-1" x="444.45" y="512.75" width="34.15" height="34.15"/><rect class="cls-1" x="478.6" y="512.75" width="34.15" height="34.15"/><rect class="cls-1" x="512.75" y="512.75" width="34.15" height="34.15"/><rect class="cls-1" x="546.9" y="512.75" width="34.15" height="34.15"/><rect class="cls-1" x="581.05" y="512.75" width="34.15" height="34.15"/><rect class="cls-1" x="615.2" y="512.75" width="34.15" height="34.15"/><rect class="cls-1" x=".5" y="546.9" width="34.15" height="34.15"/><rect class="cls-1" x="34.65" y="546.9" width="34.15" height="34.15"/><rect class="cls-1" x="68.8" y="546.9" width="34.15" height="34.15"/><rect class="cls-1" x="102.95" y="546.9" width="34.15" height="34.15"/><rect class="cls-1" x="137.1" y="546.9" width="34.15" height="34.15"/><rect class="cls-1" x="171.25" y="546.9" width="34.15" height="34.15"/><rect class="cls-1" x="205.4" y="546.9" width="34.15" height="34.15"/><rect class="cls-1" x="239.55" y="546.9" width="34.15" height="34.15"/><rect class="cls-1" x="273.7" y="546.9" width="34.15" height="34.15"/><rect class="cls-1" x="307.85" y="546.9" width="34.15" height="34.15"/><rect class="cls-1" x="342" y="546.9" width="34.15" height="34.15"/><rect class="cls-1" x="376.15" y="546.9" width="34.15" height="34.15"/><rect class="cls-1" x="410.3" y="546.9" width="34.15" height="34.15"/><rect class="cls-1" x="444.45" y="546.9" width="34.15" height="34.15"/><rect class="cls-1" x="478.6" y="546.9" width="34.15" height="34.15"/><rect class="cls-1" x="512.75" y="546.9" width="34.15" height="34.15"/><rect class="cls-1" x="546.9" y="546.9" width="34.15" height="34.15"/><rect class="cls-1" x="581.05" y="546.9" width="34.15" height="34.15"/><rect class="cls-1" x="615.2" y="546.9" width="34.15" height="34.15"/><rect class="cls-1" x=".5" y="581.05" width="34.15" height="34.15"/><rect class="cls-1" x="34.65" y="581.05" width="34.15" height="34.15"/><rect class="cls-1" x="68.8" y="581.05" width="34.15" height="34.15"/><rect class="cls-1" x="102.95" y="581.05" width="34.15" height="34.15"/><rect class="cls-1" x="137.1" y="581.05" width="34.15" height="34.15"/><rect class="cls-1" x="171.25" y="581.05" width="34.15" height="34.15"/><rect class="cls-1" x="205.4" y="581.05" width="34.15" height="34.15"/><rect class="cls-1" x="239.55" y="581.05" width="34.15" height="34.15"/><rect class="cls-1" x="273.7" y="581.05" width="34.15" height="34.15"/><rect class="cls-1" x="307.85" y="581.05" width="34.15" height="34.15"/><rect class="cls-1" x="342" y="581.05" width="34.15" height="34.15"/><rect class="cls-1" x="376.15" y="581.05" width="34.15" height="34.15"/><rect class="cls-1" x="410.3" y="581.05" width="34.15" height="34.15"/><rect class="cls-1" x="444.45" y="581.05" width="34.15" height="34.15"/><rect class="cls-1" x="478.6" y="581.05" width="34.15" height="34.15"/><rect class="cls-1" x="512.75" y="581.05" width="34.15" height="34.15"/><rect class="cls-1" x="546.9" y="581.05" width="34.15" height="34.15"/><rect class="cls-1" x="581.05" y="581.05" width="34.15" height="34.15"/><rect class="cls-1" x="615.2" y="581.05" width="34.15" height="34.15"/><rect class="cls-1" x=".5" y="615.2" width="34.15" height="34.15"/><rect class="cls-1" x="34.65" y="615.2" width="34.15" height="34.15"/><rect class="cls-1" x="68.8" y="615.2" width="34.15" height="34.15"/><rect class="cls-1" x="102.95" y="615.2" width="34.15" height="34.15"/><rect class="cls-1" x="137.1" y="615.2" width="34.15" height="34.15"/><rect class="cls-1" x="171.25" y="615.2" width="34.15" height="34.15"/><rect class="cls-1" x="205.4" y="615.2" width="34.15" height="34.15"/><rect class="cls-1" x="239.55" y="615.2" width="34.15" height="34.15"/><rect class="cls-1" x="273.7" y="615.2" width="34.15" height="34.15"/><rect class="cls-1" x="307.85" y="615.2" width="34.15" height="34.15"/><rect class="cls-1" x="342" y="615.2" width="34.15" height="34.15"/><rect class="cls-1" x="376.15" y="615.2" width="34.15" height="34.15"/><rect class="cls-1" x="410.3" y="615.2" width="34.15" height="34.15"/><rect class="cls-1" x="444.45" y="615.2" width="34.15" height="34.15"/><rect class="cls-1" x="478.6" y="615.2" width="34.15" height="34.15"/><rect class="cls-1" x="512.75" y="615.2" width="34.15" height="34.15"/><rect class="cls-1" x="546.9" y="615.2" width="34.15" height="34.15"/><rect class="cls-1" x="581.05" y="615.2" width="34.15" height="34.15"/><rect class="cls-1" x="615.2" y="615.2" width="34.15" height="34.15"/></g></g></svg>