<?xml version="1.0" encoding="UTF-8"?><svg id="Capa_2" xmlns="http://www.w3.org/2000/svg" width="383.62" height="308.58" viewBox="0 0 383.62 308.58"><defs><style>.cls-1{fill:#37383c;}</style></defs><g id="Capa_1-2"><g><path class="cls-1" d="m0,79.39c3.23-5.97,8.33-7.85,14.95-7.75,16.58.26,33.17,0,49.76.15,3.77.03,7.01-.91,10.27-2.71C114.81,47.08,154.67,25.13,194.55,3.2c13.93-7.66,29.57-.99,32.79,13.96.39,1.81.43,3.71.43,5.57.02,87.67.03,175.34,0,263.01,0,18.41-17.07,28.43-33.22,19.55-39.77-21.86-79.52-43.75-119.24-65.71-3.49-1.93-6.95-2.93-10.97-2.89-16.46.16-32.93-.11-49.38.15-6.62.1-11.72-1.78-14.95-7.75V79.39Zm204.36,74.85c0-41.17,0-82.34,0-123.5,0-1.25,0-2.5-.07-3.74-.08-1.52-.86-1.99-2.25-1.32-.9.44-1.77.92-2.65,1.4-36.82,20.26-73.62,40.57-110.5,60.73-3.16,1.73-4.33,3.7-4.32,7.31.12,39.3.13,78.59-.01,117.89-.01,3.9,1.25,5.99,4.66,7.86,33.93,18.53,67.77,37.23,101.64,55.88,3.5,1.93,7.01,3.81,10.5,5.75,2.06,1.15,3.02.61,2.98-1.75-.02-1.12.01-2.25.01-3.37,0-41.04,0-82.09,0-123.13Zm-181.64.04c0,18.32.06,36.65-.06,54.97-.02,3.12,1.01,4.12,4.08,4.08,10.09-.14,20.19-.13,30.29,0,2.93.03,4.22-.71,4.21-3.96-.09-36.77-.08-73.54,0-110.31,0-2.95-1.01-3.92-3.91-3.88-10.09.12-20.19.18-30.29-.03-3.53-.07-4.41,1.19-4.38,4.55.14,18.2.07,36.4.07,54.59Z"/><path class="cls-1" d="m383.6,154.33c-.54,45.68-16.47,85.08-48.26,118.01-3.54,3.66-7.66,5.59-12.79,3.94-4.6-1.48-7.13-4.86-7.98-9.5-.71-3.88.79-7.08,3.42-9.83,9.08-9.5,17.2-19.73,23.64-31.22,10.52-18.76,16.8-38.82,18.22-60.31,2.91-44.01-11.14-81.84-41.64-113.62-3.49-3.64-4.83-7.78-2.94-12.66,1.76-4.53,5.21-6.92,9.93-7.39,4.02-.41,7.21,1.39,9.96,4.2,20.23,20.62,34.38,44.78,42.22,72.59,4.21,14.95,6.44,30.19,6.23,45.8Z"/><path class="cls-1" d="m338.66,154.35c-.34,33.56-12.06,62.49-35.5,86.61-4.19,4.31-9.01,5.22-13.95,2.92-4.25-1.98-6.77-6.41-6.45-11.3.23-3.45,2.1-6,4.4-8.41,14.17-14.82,23.53-32.25,26.75-52.52,5.29-33.25-3.55-62.44-26.61-87.13-3.17-3.39-5.33-6.97-4.34-11.71.9-4.34,3.42-7.4,7.79-8.76,4.63-1.43,8.63-.31,12,3.05,14.3,14.29,24.47,31.1,30.46,50.39,3.72,11.97,5.75,24.23,5.47,36.86Z"/><path class="cls-1" d="m293.8,154.44c-.22,20.99-7.48,39.27-22.19,54.52-5.38,5.58-12.24,5.92-17.23,1.02-4.77-4.69-4.57-11.54.51-17.06,21.02-22.83,21.01-54.49-.02-77.36-5.02-5.46-5.21-12.46-.46-17.07,5.03-4.89,11.83-4.52,17.23,1.08,14.71,15.25,21.96,33.54,22.16,54.87Z"/></g></g></svg>