<?xml version="1.0" encoding="UTF-8"?><svg id="Capa_2" xmlns="http://www.w3.org/2000/svg" width="500" height="499.69" viewBox="0 0 500 499.69"><defs><style>.cls-1{fill:#ff9ff2;}</style></defs><g id="Capa_1-2"><g><path class="cls-1" d="m252.21,251.89c.95,1.77,2.37,3.21,3.61,4.76,6.18,7.69,12.39,15.34,18.6,23.01,8.25,10.19,16.49,20.39,24.74,30.58,5.77,7.13,11.55,14.27,17.32,21.4,9.76,12.05,19.51,24.1,29.27,36.16,5.74,7.09,11.47,14.18,17.22,21.27,8.58,10.58,17.17,21.16,25.75,31.74,5.45,6.73,10.88,13.49,16.32,20.23.54.67,1.11,1.3,1.63,1.98,1.07,1.4,1.05,1.43-.44,2.5-3.37,2.44-6.74,4.89-10.1,7.34-2.72,1.98-5.43,3.97-8.16,5.95-1.33.96-1.53.91-2.4-.44-5.66-8.7-11.32-17.4-16.98-26.1-8.8-13.53-17.59-27.07-26.38-40.6-5.81-8.94-11.62-17.88-17.43-26.83-8.79-13.53-17.59-27.07-26.38-40.6-5.81-8.94-11.62-17.88-17.43-26.83-8.79-13.53-17.59-27.07-26.38-40.6-.98-1.5-1.94-3.01-2.91-4.51-.11.06-.21.11-.32.17.66,1.74,1.3,3.49,1.97,5.22,8.05,20.98,16.1,41.95,24.15,62.93,7.01,18.26,14.01,36.52,21.01,54.79,7.31,19.06,14.61,38.13,21.92,57.18,4.68,12.19,9.38,24.38,14.06,36.56,1.56,4.05,3.1,8.09,4.65,12.14.1.27.2.53.28.81.4,1.29.35,1.45-.91,1.89-2.64.91-5.3,1.77-7.96,2.64-4.39,1.43-8.79,2.85-13.18,4.28-.33.11-.65.23-.98.31-1.15.29-1.4.19-1.74-.97-.59-2.02-1.14-4.06-1.69-6.1-5.55-20.71-11.1-41.42-16.65-62.13-4.25-15.86-8.5-31.73-12.76-47.59-4.55-16.96-9.11-33.93-13.66-50.89-4.24-15.81-8.48-31.61-12.72-47.42-1.95-7.27-3.88-14.55-5.83-21.82-.16-.58-.37-1.15-.78-1.69,0,.95-.06,1.91.01,2.86.34,4.43.5,8.87.7,13.31.22,5.12.63,10.23.92,15.35.13,2.22.22,4.44.3,6.66.12,3.3.37,6.6.49,9.9.19,5.35.6,10.69.91,16.03.13,2.27.21,4.56.3,6.83.14,3.24.37,6.48.49,9.73.2,5.41.59,10.8.91,16.21.13,2.27.2,4.55.31,6.83.15,3.13.36,6.26.48,9.39.22,5.58.61,11.15.93,16.72.13,2.27.21,4.56.3,6.83.14,3.24.37,6.48.49,9.73.2,5.29.59,10.58.91,15.86.14,2.39.19,4.78.31,7.17.16,3.13.36,6.26.48,9.39.22,5.46.62,10.92.92,16.38.13,2.39.25,4.78.33,7.17.11,3.42.38,6.83.49,10.25.17,5.18.59,10.35.91,15.52.13,2.1.19,4.21.27,6.32.15,4.21.68,8.41.46,12.64h-26.01c.09-3.7.3-7.39.58-11.08.18-2.33.12-4.66.34-7,.3-3.23.28-6.48.45-9.72.29-5.46.62-10.91.94-16.37.13-2.27.2-4.55.3-6.82.14-3.24.37-6.48.49-9.72.2-5.4.59-10.8.91-16.2.14-2.27.19-4.55.3-6.82.15-3.13.39-6.25.48-9.38.1-3.3.38-6.59.58-9.89.15-2.39.2-4.78.31-7.17.15-3.24.37-6.48.49-9.72.2-5.35.6-10.68.91-16.02.13-2.27.21-4.55.3-6.82.14-3.36.37-6.71.49-10.07.2-5.29.59-10.57.91-15.85.14-2.27.12-4.55.32-6.83.29-3.23.28-6.48.45-9.72.17-3.24.38-6.48.59-9.71.15-2.33.21-4.67.32-6.99.15-3.24.37-6.48.49-9.72.2-5.4.59-10.8.91-16.2.14-2.39.14-4.78.34-7.17.29-3.34.3-6.71.44-10.07.03-.74.21-1.47.22-2.2,0-.52-.34-.26-.57-.14h-.01c-.09-.38-.34-.43-.66-.33l-.03-.03c-.11-.22-.21-.44-.32-.67h-.01c-.64-.45-1.2-.05-1.77.17-6.39,2.44-12.78,4.88-19.17,7.33-13.74,5.26-27.47,10.53-41.21,15.8-18.1,6.94-36.2,13.89-54.3,20.83-18.15,6.96-36.3,13.93-54.46,20.89-19.11,7.33-38.23,14.65-57.34,21.98-.64.24-1.27.51-1.91.75-1.65.62-1.67.62-2.26-1.14-.78-2.32-1.56-4.65-2.31-6.98-1.54-4.77-3.07-9.55-4.6-14.33-.07-.22-.14-.43-.2-.65-.26-1.09-.2-1.24.93-1.57,2.03-.59,4.06-1.14,6.1-1.68,17.84-4.78,35.69-9.56,53.53-14.34,17.02-4.56,34.03-9.13,51.05-13.7,15.7-4.21,31.39-8.42,47.09-12.63,15.75-4.22,31.5-8.45,47.25-12.67,10.24-2.74,20.49-5.48,30.73-8.22.6-.16,1.19-.36,1.78-.67-1.42-.22-2.84-.19-4.26-.03-.51.05-1.02.15-1.53.17-5.75.26-11.5.44-17.24.77-6.54.38-13.08.71-19.62,1.04-4.32.21-8.64.46-12.97.68-4.44.23-8.87.45-13.31.69-4.38.24-8.76.46-13.14.69-4.27.23-8.53.46-12.8.68-4.49.23-8.99.46-13.48.69-4.32.23-8.64.45-12.97.68-4.32.23-8.64.46-12.97.68-4.49.23-8.99.46-13.48.69-4.26.22-8.53.45-12.79.68-6.71.36-13.42.73-20.13,1.04-4.21.2-8.41.47-12.62.66-5.12.23-10.23.68-15.35.89-2.79.11-5.57.29-8.36.41-3.81.16-7.62.31-11.43.63-2.1.18-4.21.2-6.31.28-4.21.16-8.41.7-12.64.45v-26.01c4.05-.06,8.08.31,12.11.58,2.33.16,4.67.22,7,.32,3.41.15,6.82.39,10.24.5,5.23.18,10.46.58,15.69.9,2.27.14,4.55.12,6.83.32,2.49.22,5,.27,7.51.4,6.26.32,12.52.56,18.77,1,2.33.16,4.66.15,7,.34,3.35.28,6.72.26,10.07.44,5.23.28,10.46.62,15.69.93,2.22.13,4.44.12,6.66.31,2.55.21,5.12.27,7.68.4,6.08.32,12.17.56,18.25.99,2.39.17,4.78.13,7.17.34,3.35.28,6.72.27,10.07.45,5.17.28,10.34.62,15.52.93,2.27.14,4.55.22,6.83.31,3.42.13,6.83.37,10.24.5,5.23.19,10.46.58,15.69.9,2.27.14,4.55.2,6.83.3,3.3.15,6.6.38,9.9.49,3.81.12,7.62.43,11.43.63,2.67.14,5.35.25,8.02.37.62.03,1.24,0,1.94-.28-.72-.22-1.44-.46-2.16-.66-18.07-4.84-36.13-9.67-54.2-14.51-17.46-4.68-34.92-9.36-52.38-14.04-18.72-5.02-37.45-10.04-56.17-15.07-16.96-4.55-33.92-9.1-50.88-13.66-6.94-1.86-13.87-3.74-20.81-5.61-.28-.07-.55-.15-.83-.22-.87-.21-1.04-.74-.78-1.55.57-1.73,1.09-3.48,1.65-5.22,1.8-5.53,3.6-11.06,5.4-16.59.05-.16.1-.33.16-.49.49-1.35.51-1.37,1.82-.9,1.45.52,2.89,1.05,4.33,1.6,12.19,4.68,24.37,9.39,36.56,14.06,17.2,6.6,34.4,13.17,51.59,19.76,11.61,4.45,23.21,8.92,34.81,13.37,14.85,5.7,29.71,11.38,44.56,17.08,10.65,4.09,21.29,8.19,31.93,12.27,8.36,3.21,16.71,6.42,25.08,9.61.42.16.88.23,1.32.34.65-.29.49-.63.06-.98-.44-1.15-1.35-1.97-2.09-2.89-6.54-8.13-13.11-16.23-19.67-24.34-7.03-8.68-14.07-17.36-21.1-26.04-5.09-6.29-10.16-12.6-15.26-18.89-6.56-8.11-13.15-16.2-19.71-24.3-5.06-6.25-10.09-12.51-15.15-18.76-8.11-10.01-16.24-20-24.35-30.01-5.88-7.27-11.73-14.56-17.61-21.83-6.2-7.67-12.45-15.3-18.63-22.98-2.27-2.82-2.26-2.05.51-4.1,5.55-4.1,11.15-8.14,16.72-12.2.23-.17.47-.33.7-.49,1.41-.94,1.43-.96,2.38.49,4.61,7.07,9.21,14.15,13.81,21.22,9.45,14.53,18.91,29.06,28.36,43.6,5.81,8.94,11.62,17.88,17.43,26.83,8.79,13.53,17.59,27.07,26.38,40.6,5.81,8.94,11.62,17.88,17.43,26.83,8.79,13.53,17.59,27.07,26.38,40.6,1.33,2.05,2.65,4.11,4.09,6.34.3-.61.04-.93-.08-1.24-5.54-14.43-11.08-28.85-16.61-43.28-7.1-18.53-14.19-37.06-21.29-55.59-7.32-19.12-14.65-38.23-21.98-57.34-5.02-13.1-10.07-26.19-15.09-39.28-4.19-10.91-8.37-21.83-12.55-32.75q-.66-1.73,1.18-2.35c1.51-.51,3.03-1.02,4.55-1.51,5.48-1.77,10.97-3.53,16.45-5.29.22-.07.43-.15.65-.21,1.3-.37,1.48-.31,1.86.96.47,1.53.86,3.07,1.28,4.62,4.95,18.51,9.89,37.02,14.85,55.53,5.01,18.73,10.04,37.45,15.07,56.18,4.55,16.96,9.11,33.93,13.66,50.89,5.02,18.73,10.05,37.45,15.07,56.18,1.23,4.57,2.45,9.14,3.68,13.71.07.27.17.53.47.77-.1-2.38-.19-4.75-.3-7.13-.03-.57-.13-1.13-.16-1.7-.26-5.58-.44-11.16-.77-16.73-.26-4.32-.45-8.65-.69-12.97-.24-4.44-.43-8.88-.68-13.31-.37-6.54-.7-13.08-1.03-19.62-.22-4.38-.44-8.76-.68-13.14-.36-6.6-.71-13.2-1.04-19.79-.22-4.32-.48-8.64-.67-12.97-.22-5.12-.69-10.23-.89-15.35-.11-2.9-.32-5.8-.44-8.71-.15-3.53-.39-7.05-.6-10.58-.15-2.45-.21-4.9-.32-7.34-.15-3.24-.37-6.48-.49-9.73-.19-5.29-.6-10.58-.9-15.86-.14-2.33-.23-4.67-.32-7-.12-3.42-.38-6.83-.5-10.24-.18-5.23-.6-10.46-.91-15.69-.13-2.27-.21-4.56-.3-6.83-.14-3.36-.36-6.72-.51-10.07-.15-3.12-.23-6.26-.52-9.38-.35-3.82.05-3.32,2.9-3.32,6.73-.02,13.46,0,20.19,0,.51,0,1.03-.02,1.54.02,1.06.09,1.25.29,1.32,1.38.02.34.01.68,0,1.03-.13,3.87-.31,7.74-.62,11.6-.18,2.27-.13,4.55-.33,6.83-.29,3.29-.28,6.6-.45,9.9-.28,5.35-.6,10.69-.93,16.03-.14,2.27-.19,4.55-.31,6.83-.16,3.13-.39,6.26-.48,9.39-.11,3.41-.38,6.82-.59,10.23-.14,2.27-.2,4.55-.3,6.83-.15,3.24-.37,6.48-.49,9.73-.2,5.35-.6,10.69-.92,16.03-.14,2.33-.18,4.67-.3,7-.15,3.13-.39,6.26-.48,9.39-.1,3.3-.38,6.59-.58,9.89-.14,2.27-.2,4.55-.3,6.83-.15,3.3-.36,6.6-.49,9.9-.21,5.35-.59,10.69-.91,16.03-.14,2.27-.2,4.55-.3,6.83-.15,3.19-.4,6.37-.49,9.56-.09,3.3-.35,6.6-.57,9.89-.15,2.33-.2,4.67-.32,7-.15,3.24-.37,6.48-.49,9.73-.2,5.41-.59,10.8-.91,16.21-.14,2.33-.22,4.67-.32,7-.13,3.3-.51,6.59-.47,9.9.02,1.71-.43,3.4-.31,5.12.02.33-.08.68.14,1.03.47-.27.42-.78.53-1.18,5.43-20.21,10.86-40.42,16.27-60.64,3.23-12.06,6.44-24.13,9.68-36.19,4.74-17.68,9.51-35.35,14.25-53.03,3.15-11.73,6.27-23.47,9.42-35.2,4.56-17.02,9.13-34.04,13.7-51.05.43-1.59.58-1.67,2.14-1.17,7.21,2.35,14.42,4.71,21.63,7.08,1.59.52,1.62.61,1.01,2.19-4.88,12.73-9.77,25.45-14.64,38.17-6.59,17.2-13.17,34.4-19.76,51.6-4.68,12.19-9.38,24.37-14.06,36.57-5.47,14.27-10.92,28.55-16.39,42.81-4.08,10.65-8.19,21.29-12.27,31.94-3.51,9.16-7.01,18.32-10.52,27.48-.2.53-.51,1.04-.14,1.62.11,0,.22.01.33.02,1.7-.74,2.97-2.09,4.38-3.22,8.27-6.64,16.5-13.32,24.74-19.99,9.62-7.78,19.23-15.56,28.84-23.35,9.57-7.75,19.14-15.49,28.71-23.24,9.61-7.78,19.23-15.56,28.84-23.35,7.13-5.77,14.26-11.55,21.4-17.32,10.19-8.25,20.39-16.49,30.58-24.74,8.02-6.49,16.02-13,24.04-19.5,1.29-1.05,1.35-1.06,2.38.34,4.5,6.17,8.99,12.36,13.47,18.54.88,1.22.86,1.35-.5,2.24-4.82,3.15-9.65,6.29-14.48,9.42-4.88,3.16-9.78,6.3-14.65,9.47-12.96,8.42-25.9,16.87-38.85,25.29-10.99,7.15-22,14.29-33,21.43-11.48,7.46-22.95,14.92-34.42,22.38-11,7.15-22,14.29-33,21.43-11.48,7.46-22.95,14.92-34.42,22.38-1.04.68-2.18,1.23-3.24,2.18.56.22.95-.04,1.31-.18,10.49-4.02,20.97-8.06,31.46-12.08,14.43-5.53,28.86-11.06,43.29-16.59,10.59-4.06,21.18-8.14,31.78-12.21,13.47-5.17,26.94-10.33,40.41-15.5,11.55-4.43,23.1-8.87,34.66-13.3,13.42-5.15,26.83-10.29,40.25-15.43,2.13-.82,4.25-1.66,6.39-2.45,1.6-.6,1.72-.55,2.22,1,2.33,7.16,4.64,14.32,6.96,21.48.05.16.11.33.15.49.3,1.18.2,1.41-.94,1.74-1.53.45-3.08.85-4.62,1.26-12.18,3.25-24.35,6.49-36.53,9.75-16.19,4.34-32.38,8.71-48.57,13.06-15.36,4.13-30.73,8.25-46.1,12.37-11.84,3.17-23.69,6.33-35.53,9.5-14.93,4-29.85,8.02-44.77,12.03-6.66,1.79-13.33,3.57-19.99,5.36-.41.11-.9.09-1.28.58,1.79,0,3.51.18,5.18-.04,2.89-.38,5.8-.3,8.7-.49,3.23-.21,6.48-.38,9.73-.5,5.29-.2,10.58-.59,15.86-.91,2.39-.14,4.78-.19,7.17-.31,3.13-.16,6.26-.36,9.39-.48,5.46-.22,10.92-.61,16.38-.92,2.39-.14,4.78-.2,7.17-.31,3.19-.15,6.37-.36,9.56-.49,5.35-.2,10.69-.59,16.03-.91,2.39-.14,4.78-.23,7.17-.32,3.36-.14,6.71-.37,10.07-.49,5.23-.18,10.46-.59,15.69-.9,2.27-.14,4.55-.21,6.83-.3,3.3-.14,6.6-.38,9.9-.49,5.35-.19,10.69-.59,16.03-.91,2.27-.14,4.55-.19,6.83-.31,3.07-.15,6.14-.35,9.22-.48,5.63-.24,11.26-.61,16.89-.93,2.27-.13,4.55-.2,6.83-.3,3.19-.14,6.37-.37,9.56-.49,5.46-.21,10.91-.69,16.38-.88,3.42-.12,6.82-.55,10.25-.44v26.01c-4.34.14-8.64-.32-12.96-.56-.4-.02-.8-.07-1.19-.08-5.69-.25-11.38-.44-17.06-.77-4.32-.25-8.64-.46-12.96-.69-4.43-.23-8.87-.45-13.3-.69-6.54-.35-13.07-.7-19.61-1.03-4.32-.22-8.64-.45-12.96-.68-4.43-.24-8.87-.44-13.3-.68-6.54-.36-13.07-.71-19.61-1.03-4.38-.22-8.76-.45-13.13-.68-6.59-.35-13.19-.71-19.78-1.03-4.26-.21-8.53-.44-12.79-.67-6.65-.36-13.3-.7-19.96-1.03-4.32-.22-8.64-.45-12.96-.68-4.43-.23-8.87-.45-13.3-.69-6.54-.35-13.07-.74-19.61-1.01-3.7-.15-7.39-.43-11.08-.63-.73-.04-1.49-.11-2.17.31-.66.44-.31.89-.03,1.35Z"/><path class="cls-1" d="m251.84,248.16c-.11,0-.22-.01-.33-.02.13-.63.48-1.15.82-1.68,5.29-8.12,10.59-16.24,15.87-24.36,8.95-13.77,17.9-27.54,26.85-41.3,5.65-8.7,11.3-17.41,16.96-26.11,8.95-13.77,17.9-27.54,26.84-41.31,5.65-8.7,11.3-17.41,16.96-26.11,8.95-13.77,17.9-27.54,26.84-41.31.99-1.53,1.96-3.08,2.97-4.6.87-1.3.95-1.33,2.27-.38,3.06,2.19,6.09,4.42,9.13,6.64,3.09,2.25,6.18,4.5,9.27,6.74,1.39,1.01,1.43,1.15.32,2.53-3.97,4.92-7.96,9.83-11.94,14.75-6.13,7.58-12.25,15.16-18.39,22.73-8.11,10.01-16.24,20-24.35,30.01-5.45,6.73-10.87,13.49-16.32,20.23-7.03,8.68-14.07,17.35-21.1,26.04-5.09,6.29-10.16,12.6-15.25,18.89-8.46,10.45-16.94,20.89-25.41,31.35-5.09,6.29-10.17,12.59-15.26,18.89-2.26,2.79-4.51,5.59-6.76,8.39Z"/><path class="cls-1" d="m248.19,247.85c.44.35.59.69-.06.98-.45-.63-1.17-.9-1.78-1.3-8.17-5.33-16.33-10.66-24.51-15.97-13.81-8.99-27.63-17.96-41.45-26.94-8.65-5.62-17.31-11.24-25.97-16.87-13.82-8.98-27.63-17.96-41.45-26.94-8.37-5.44-16.74-10.86-25.11-16.3-14.11-9.17-28.21-18.34-42.31-27.51-1.29-.84-2.6-1.65-3.88-2.5-1.26-.84-1.26-.96-.31-2.28,2.3-3.19,4.61-6.37,6.93-9.56,2.15-2.95,4.3-5.9,6.45-8.85,1.01-1.39,1.03-1.4,2.32-.37,5.19,4.18,10.38,8.38,15.57,12.57,6.34,5.12,12.69,10.23,19.03,15.36,8.6,6.96,17.18,13.93,25.77,20.89,6.34,5.13,12.69,10.23,19.02,15.37,10.01,8.11,20,16.24,30.01,24.35,6.73,5.45,13.49,10.87,20.23,16.32,8.64,6.99,17.27,14,25.91,20.99,8.15,6.6,16.31,13.19,24.47,19.78,3.23,2.62,6.46,5.25,9.68,7.88.44.36.87.75,1.44.89Z"/><path class="cls-1" d="m248.46,251.24c-.69,1.09-1.82,1.71-2.79,2.5-8.14,6.61-16.3,13.19-24.46,19.79-7.53,6.09-15.07,12.18-22.6,18.28-10.58,8.58-21.15,17.17-31.74,25.74-6.69,5.42-13.4,10.8-20.09,16.22-7.66,6.2-15.31,12.43-22.97,18.64-6.64,5.38-13.3,10.74-19.95,16.12-7.75,6.28-15.49,12.57-23.24,18.84-7.27,5.88-14.55,11.74-21.82,17.61-.62.5-1.21,1.05-1.84,1.53-1.09.82-1.25.82-2.06-.25-1.41-1.87-2.78-3.76-4.15-5.65-3.11-4.29-6.22-8.59-9.33-12.88-.1-.14-.22-.27-.31-.41-.65-.97-.64-1.14.29-1.79,1.12-.78,2.27-1.52,3.42-2.27,8.7-5.65,17.4-11.3,26.11-16.96,16.06-10.44,32.12-20.88,48.19-31.32,8.46-5.5,16.93-10.99,25.39-16.49,16.25-10.56,32.5-21.13,48.76-31.69,8.89-5.78,17.78-11.56,26.68-17.33,8.94-5.81,17.88-11.62,26.82-17.42.53-.34,1.04-.7,1.69-.8,0,0,0,.01,0,.01Z"/><path class="cls-1" d="m248.82,251.93c-.46,1.31-1.33,2.39-2.07,3.53-5.14,7.95-10.32,15.87-15.48,23.8-9.11,14-18.21,28.01-27.32,42.02-5.53,8.51-11.05,17.03-16.58,25.54-9.07,13.96-18.15,27.92-27.22,41.88-5.56,8.56-11.11,17.12-16.68,25.68-9.04,13.91-18.09,27.82-27.13,41.74-.53.81-1.01,1.66-1.56,2.45-.76,1.1-.95,1.14-2.04.36-3.15-2.26-6.28-4.54-9.42-6.82-3.09-2.24-6.18-4.5-9.27-6.74-1.31-.95-1.33-1.02-.35-2.24,4.88-6.02,9.76-12.04,14.64-18.07,5.13-6.34,10.23-12.69,15.36-19.02,8.11-10.01,16.24-20,24.35-30.01,5.45-6.73,10.87-13.49,16.32-20.23,7.03-8.68,14.07-17.35,21.1-26.04,5.09-6.29,10.16-12.6,15.25-18.89,6.53-8.06,13.07-16.11,19.6-24.17,5.09-6.29,10.17-12.59,15.26-18.89,3.94-4.88,7.88-9.75,11.83-14.62.39-.49.8-.97,1.36-1.28,0,0,.03.03.03.03Z"/><path class="cls-1" d="m249.49,252.26c-.02,1.39-.5,2.69-.85,4-3.28,12.28-6.58,24.56-9.87,36.84-4.35,16.19-8.71,32.37-13.06,48.56-3.18,11.84-6.33,23.69-9.5,35.53-4.02,14.98-8.05,29.95-12.07,44.93-3.22,12-6.42,24.02-9.63,36.02-2.83,10.57-5.68,21.14-8.52,31.71-.45,1.66-.61,1.74-2.27,1.21-7.11-2.29-14.22-4.59-21.32-6.9-1.83-.59-1.86-.67-1.15-2.55.66-1.76,1.36-3.51,2.03-5.27,5.12-13.36,10.24-26.73,15.36-40.09,3.47-9.05,6.95-18.09,10.42-27.14,5.21-13.57,10.41-27.15,15.62-40.72,3.88-10.11,7.77-20.22,11.65-30.34,5.7-14.85,11.38-29.71,17.08-44.56,3.88-10.11,7.76-20.23,11.65-30.34,1.21-3.14,2.42-6.28,3.63-9.42.2-.53.36-1.09.8-1.49,0,0,.01,0,.01,0Z"/><path class="cls-1" d="m252.21,251.89c-.28-.46-.64-.91.03-1.35,0,0,0,0,0,0,0,.12,0,.23,0,.35.44.64,1.16.91,1.78,1.31,8.17,5.33,16.33,10.66,24.51,15.97,13.82,8.99,27.64,17.97,41.46,26.95,8.37,5.44,16.74,10.86,25.11,16.3,14.11,9.17,28.21,18.34,42.31,27.51,8.37,5.44,16.74,10.86,25.11,16.3,14.11,9.17,28.21,18.34,42.31,27.51,1.34.87,2.7,1.7,4.02,2.6,1.17.8,1.21,1.01.37,2.18-2.23,3.1-4.5,6.18-6.75,9.27-2.21,3.04-4.43,6.09-6.64,9.13-1.07,1.48-1.1,1.51-2.48.39-7.63-6.16-15.25-12.32-22.88-18.49-8.11-6.56-16.23-13.11-24.34-19.67-8.64-6.99-17.27-14-25.91-20.99-8.15-6.6-16.32-13.18-24.47-19.78-10.59-8.58-21.16-17.17-31.74-25.75-6.73-5.45-13.5-10.87-20.23-16.32-10.01-8.11-20.01-16.24-30.01-24.35-3.45-2.8-6.92-5.58-10.38-8.38-.36-.29-.72-.57-1.17-.68Z"/><path class="cls-1" d="m252.22,250.89c0-.12,0-.23,0-.35,2.69.28,5.21,1.22,7.8,1.9,8.82,2.32,17.63,4.72,26.44,7.08,14.98,4.02,29.95,8.06,44.93,12.07,11.79,3.16,23.58,6.3,35.36,9.46,14.98,4.02,29.96,8.05,44.93,12.07,9.91,2.66,19.83,5.31,29.74,7.97,13.49,3.62,26.98,7.25,40.47,10.87,2.75.74,5.52,1.45,8.27,2.19,1.64.44,1.78.67,1.26,2.28-2.33,7.16-4.67,14.31-7.02,21.46-.54,1.64-.68,1.68-2.34,1.05-13.89-5.33-27.79-10.67-41.68-15.99-20.18-7.73-40.36-15.45-60.54-23.19-13.68-5.25-27.35-10.53-41.03-15.78-18.1-6.94-36.21-13.86-54.31-20.79-10.06-3.85-20.12-7.72-30.18-11.58-.69-.26-1.4-.48-2.1-.71Z"/></g></g></svg>