<?xml version="1.0" encoding="UTF-8"?><svg id="Capa_2" xmlns="http://www.w3.org/2000/svg" width="450" height="392.95" viewBox="0 0 450 392.95"><defs><style>.cls-1{fill:#54a9ff;}</style></defs><g id="Capa_1-2"><path class="cls-1" d="m63.5,340c-14.36-22.93,5.8-40.33-3.77-71.22-6.48-20.92-25.93-34.52-40.92-50.49-14.98-15.97-26.05-41.36-13.05-58.99,8.86-12.02,25.33-15.21,37.27-24.18,27.2-20.42,23.68-62.94,43.19-90.8,20.6-29.43,61.74-35.68,97.51-32.39,35.77,3.28,71.82,13.4,107.08,6.5,19.17-3.75,37.1-12.41,56.21-16.46,19.11-4.05,41.21-2.54,55.08,11.22,13.9,13.78,15.58,35.6,13.66,55.07-1.92,19.47-6.56,39.28-2.14,58.35,5.97,25.75,27.45,45.6,34.31,71.13,7.59,28.24-6.03,60.78-31.46,75.2-19.29,10.94-43.66,12.09-60.84,26.11-26.92,21.97-26.87,67.73-56.59,85.73-25.05,15.17-56.72,5.01-64.22,2.77-41.39-12.34-45.91-44.77-75.58-44.56-24.32.17-30.47,22.03-56.99,19.5-13.38-1.28-30.02-8.58-38.73-22.48Z"/></g></svg>