<?xml version="1.0" encoding="UTF-8"?><svg id="Capa_2" xmlns="http://www.w3.org/2000/svg" width="500" height="500" viewBox="0 0 500 500"><defs><style>.cls-1{fill:#54a9ff;}.cls-2{fill:#ff9ff2;}</style></defs><g id="Capa_1-2"><g><path class="cls-2" d="m500,250h-150c0-55.23-44.77-100-100-100V0c138.07,0,250,111.93,250,250Z"/><path class="cls-2" d="m250,350v150C111.93,500,0,388.07,0,250h150c0,55.23,44.77,100,100,100Z"/><path class="cls-1" d="m250,0v150c-55.23,0-100,44.77-100,100H0C0,111.93,111.93,0,250,0Z"/><path class="cls-1" d="m500,250c0,138.07-111.93,250-250,250v-150c55.23,0,100-44.77,100-100h150Z"/></g></g></svg>