<?xml version="1.0" encoding="UTF-8"?><svg id="Capa_2" xmlns="http://www.w3.org/2000/svg" width="45.86mm" height="45.86mm" viewBox="0 0 130 130"><defs><style>.cls-1{fill:#fff;}.cls-2{fill:#202427;}</style></defs><g id="Capa_1-2"><g><path class="cls-2" d="m130,65c0,15.21-5.23,29.21-13.99,40.28-7.18-14.92-18.2-26.45-31.29-32.31,6.31-5.49,10.29-13.58,10.29-22.6,0-16.57-13.44-30-30-30s-30,13.43-30,30c0,9.01,3.98,17.1,10.28,22.6-13.09,5.85-24.12,17.39-31.3,32.31C5.23,94.21,0,80.21,0,65,0,29.11,29.1,0,65,0s65,29.11,65,65Z"/><path class="cls-1" d="m116.01,105.28c-11.9,15.06-30.32,24.72-51.01,24.72s-39.11-9.66-51.01-24.72c7.18-14.92,18.21-26.46,31.3-32.31-6.3-5.5-10.28-13.59-10.28-22.6,0-16.57,13.43-30,30-30s30,13.43,30,30c0,9.02-3.98,17.11-10.29,22.6,13.09,5.86,24.11,17.39,31.29,32.31Z"/></g></g></svg>