<?xml version="1.0" encoding="UTF-8"?><svg id="Capa_2" xmlns="http://www.w3.org/2000/svg" width="210.33" height="69.37" viewBox="0 0 210.33 69.37"><defs><style>.cls-1{fill:#ff9ff2;}</style></defs><g id="Capa_1-2"><g><path class="cls-1" d="m205.52,9.35c-3.32-.24-6.6-4.14-9.21-5.94-3.23-2.22-6.81-3.9-10.82-3.28s-6.94,3.03-9.92,5.38-5.39,5.35-9.09,3.19c-6.52-3.81-11.77-10.63-20.15-7.4-3.54,1.36-6.27,4-9.24,6.27-3.77,2.88-5.25,2.96-9.13.18-6.66-4.79-12.64-9.48-20.81-4.69-3.3,1.94-6,5.55-9.54,7.01s-6.59-2.28-9.19-4.23c-6.87-5.15-13.21-5.87-20.25-.6-2.16,1.62-5.66,5.77-8.55,5.84-3.21.07-7.23-4.63-9.72-6.3-3.59-2.41-7.69-3.83-11.98-2.57s-7.61,4.83-11.25,7.42c-4.24,3.02-6.41.73-10.18-2.14S9.47,2.44,4.8,2.1c-6.42-.47-6.39,9.54,0,10,3.32.24,6.6,4.14,9.21,5.94,3.23,2.22,6.81,3.9,10.82,3.28s6.94-3.03,9.92-5.38,5.39-5.35,9.09-3.19c6.52,3.81,11.77,10.63,20.15,7.4,3.54-1.36,6.27-4,9.24-6.27,3.77-2.88,5.25-2.96,9.13-.18,6.66,4.79,12.64,9.48,20.81,4.69,3.3-1.94,6-5.55,9.54-7.01s6.59,2.28,9.19,4.23c6.87,5.15,13.21,5.87,20.25.6,2.16-1.62,5.66-5.77,8.55-5.84,3.21-.07,7.23,4.63,9.72,6.3,3.59,2.41,7.69,3.83,11.98,2.57s7.61-4.83,11.25-7.42c4.24-3.02,6.41-.73,10.18,2.14s7.04,5.05,11.7,5.38c6.42.47,6.39-9.54,0-10h0Z"/><path class="cls-1" d="m205.52,33.31c-3.32-.24-6.6-4.14-9.21-5.94-3.23-2.22-6.81-3.9-10.82-3.28s-6.94,3.03-9.92,5.38-5.39,5.35-9.09,3.19c-6.52-3.81-11.77-10.63-20.15-7.4-3.54,1.36-6.27,4-9.24,6.27-3.77,2.88-5.25,2.96-9.13.18-6.66-4.79-12.64-9.48-20.81-4.69-3.3,1.94-6,5.55-9.54,7.01s-6.59-2.28-9.19-4.23c-6.87-5.15-13.21-5.87-20.25-.6-2.16,1.62-5.66,5.77-8.55,5.84-3.21.07-7.23-4.63-9.72-6.3-3.59-2.41-7.69-3.83-11.98-2.57s-7.61,4.83-11.25,7.42c-4.24,3.02-6.41.73-10.18-2.14s-7.04-5.05-11.7-5.38c-6.42-.47-6.39,9.54,0,10,3.32.24,6.6,4.14,9.21,5.94,3.23,2.22,6.81,3.9,10.82,3.28s6.94-3.03,9.92-5.38,5.39-5.35,9.09-3.19c6.52,3.81,11.77,10.63,20.15,7.4,3.54-1.36,6.27-4,9.24-6.27,3.77-2.88,5.25-2.96,9.13-.18,6.66,4.79,12.64,9.48,20.81,4.69,3.3-1.94,6-5.55,9.54-7.01s6.59,2.28,9.19,4.23c6.87,5.15,13.21,5.87,20.25.6,2.16-1.62,5.66-5.77,8.55-5.84,3.21-.07,7.23,4.63,9.72,6.3,3.59,2.41,7.69,3.83,11.98,2.57s7.61-4.83,11.25-7.42c4.24-3.02,6.41-.73,10.18,2.14s7.04,5.05,11.7,5.38c6.42.47,6.39-9.54,0-10h0Z"/><path class="cls-1" d="m205.52,57.27c-3.32-.24-6.6-4.14-9.21-5.94-3.23-2.22-6.81-3.9-10.82-3.28s-6.94,3.03-9.92,5.38-5.39,5.35-9.09,3.19c-6.52-3.81-11.77-10.63-20.15-7.4-3.54,1.36-6.27,4-9.24,6.27-3.77,2.88-5.25,2.96-9.13.18-6.66-4.79-12.64-9.48-20.81-4.69-3.3,1.94-6,5.55-9.54,7.01s-6.59-2.28-9.19-4.23c-6.87-5.15-13.21-5.87-20.25-.6-2.16,1.62-5.66,5.77-8.55,5.84-3.21.07-7.23-4.63-9.72-6.3-3.59-2.41-7.69-3.83-11.98-2.57s-7.61,4.83-11.25,7.42c-4.24,3.02-6.41.73-10.18-2.14s-7.04-5.05-11.7-5.38c-6.42-.47-6.39,9.54,0,10,3.32.24,6.6,4.14,9.21,5.94,3.23,2.22,6.81,3.9,10.82,3.28s6.94-3.03,9.92-5.38c2.94-2.34,5.39-5.35,9.09-3.19,6.52,3.81,11.77,10.63,20.15,7.4,3.54-1.36,6.27-4,9.24-6.27,3.77-2.88,5.25-2.96,9.13-.18,6.66,4.79,12.64,9.48,20.81,4.69,3.3-1.94,6-5.55,9.54-7.01s6.59,2.28,9.19,4.23c6.87,5.15,13.21,5.87,20.25.6,2.16-1.62,5.66-5.77,8.55-5.84,3.21-.07,7.23,4.63,9.72,6.3,3.59,2.41,7.69,3.83,11.98,2.57s7.61-4.83,11.25-7.42c4.24-3.02,6.41-.73,10.18,2.14s7.04,5.05,11.7,5.38c6.42.47,6.39-9.54,0-10h0Z"/></g></g></svg>